<mxfile host="app.diagrams.net" agent="Mozilla/5.0 (Windows NT 10.0; Win64; x64) AppleWebKit/537.36 (KHTML, like Gecko) Chrome/134.0.0.0 Safari/537.36 Edg/134.0.0.0" version="26.1.3">
  <diagram name="Page-1" id="NUgQKO9Nz9ZTHZiQaXQk">
    <mxGraphModel dx="786" dy="1555" grid="1" gridSize="10" guides="1" tooltips="1" connect="0" arrows="1" fold="1" page="1" pageScale="1" pageWidth="850" pageHeight="1100" background="#ffffff" math="0" shadow="0">
      <root>
        <mxCell id="0" />
        <mxCell id="1" parent="0" />
        <mxCell id="rsI_LoDy6iaIcR9gqDgO-8" value="" style="swimlane;startSize=0;" vertex="1" parent="1">
          <mxGeometry x="410" y="60" width="260" height="240" as="geometry">
            <mxRectangle x="410" y="60" width="50" height="40" as="alternateBounds" />
          </mxGeometry>
        </mxCell>
        <mxCell id="rsI_LoDy6iaIcR9gqDgO-11" value="" style="rhombus;whiteSpace=wrap;html=1;" vertex="1" parent="rsI_LoDy6iaIcR9gqDgO-8">
          <mxGeometry y="110" width="50" height="50" as="geometry" />
        </mxCell>
        <mxCell id="rsI_LoDy6iaIcR9gqDgO-5" value="" style="shape=image;imageAspect=0;aspect=fixed;verticalLabelPosition=bottom;verticalAlign=top;image=data:image/png,iVBORw0KGgoAAAANSUhEUgAAAEIAAAA1CAYAAAD1cz2RAAAAAXNSR0IArs4c6QAABMpJREFUaEPtm1tMI1UYx//fzDBtgRa6XCx3KhRKl3BNfPDFbNSNCatxYyIGd6O+6JPxwWejb/posk9q1jVrzGbNbvRB4+Vh302WW1gstIUg0AsIG7ZdWi4tx5yBIux2JiutmczQA0nDCd853/c7/+87M+cABR4+YJ/P38PoxhqM3ggAEUEGQSYBxDsea/929jjO4N3WTnjKK0GfBibYj7G/jM5A8V8AoUKU8F5TJ9rKHLBIIgg8cMYRZb8PY+W9yfQuztqdoJHRO2xuM2EKEFYS8EGzD2KqHJWpONyuCkgsDVGSFKUwxlBeXg5BIGQyGYiCAAgiRCLQ8N07bCFpDhBOsQRXvM9icSWJhutXkDn3PCbWVpSg0+k07HY74vG48nNlRQU2k0k4HA4MDQ2ZC4SNBHzY2g1rXETjb7dR//IFpKvOIJPZUxTBU2Rvj4F/ZdIZJB4m0NzcDEkQzQWC1winKOH9Vh+elm0oscggQQDjxeCxxpT+2HYSz1TWmAsEX3OBCBYSlJ1DUcGBEnIWQQa4bKW41v+cuUCcpOK7S+24MXiuCKII4kA+RRBFEMcrSVERjyriE/9dFt1OnaTgmsKmzmLDx95B0OrqKuOPn6e1SZKEmpqaIogiiIMUKIL4ryCqq6tRUlJi2BKys7OD9fV1Vf+fSBH8pcXlchkWQtbxaDRaBMEJFEEc6OCJQKysrKg+R/DUqKurM3xqRCIRzdSora0FcRC7u7vKL2YPOLNWgiCYAkQ4HM4ZH4+XF0sFRDQaVRTBT3izII5+1tfXgwMxauMHtTw11OLjIPiGQJFI5FhqZA2OqsLo2yePKdsejY+D4OlP4XD4MDWMuur5+M0XmauelpeXTz2IhoYG0NLSEuNPX2rtj1Qcy7tb+UDX1bZVtmHQalf1QZZlNDY2ghYXFw9B5CqWI+F7ugZSiMm/qz97bNc4GidPjaamJtDCwoJmalyK/lkIX3Qd42tXF+TcV+PgiuC3XQoIrdS4HPPrGkQhJr/6lFcTREtLC2h+fl4TxFurs4XwRdcxvqrp0AThdrtBc3NzmiDe/jugaxCFmPzLao8qCIvFAgVEKBRSQKg9eb2zFiyEL7qO8UVVO/iJSq7NgNeItrY2UDAY1FTEZw+WEUgbd/t0SxZ8VNGkuX22t7eDAoEA297e1nXF9Jycp4bH4wHNzs6eehAdHR2gmZkZtrVlXOnnqyar1YrOzk6Q3+9XFKFWLG/4JzFz37h/euhxVuGSr081Pp4aXq8XND09rQli+Keb+ULX3f7mhWFVEFwRXV1d+yC0UuONn7/XPZB8Hbj+0muQRTHnMByEz+cDTU1NaYIY+eVWvn7obv/N+YuaILq7u/dBpFLqt+Fv/npb90DydeDai6+qgrDZbFBATE5OaoK4/PsP+fqhu/3VF16BLORODQ6ip6cHNDExoaSG2q5hBhDfnr+oWSx7e3tB4+Pjmoq4NedHcOO+7qt6UgfaHE687vGpmnNF9PX1gcbGxjRBnNQBo9hxEP39/aDR0VGWTCaN4nfB/SwtLcXAwMA+iM3NzYJPYJQBy8rK9kHwl65YLKZaTNSKqFn6+S2X8tKVSCRYKBTCxsZGzoMLswScKw6n06kcyvB/ZiF29D7MKHr+H/z8BwPbPUT+pDRdAAAAAElFTkSuQmCC;" vertex="1" parent="rsI_LoDy6iaIcR9gqDgO-8">
          <mxGeometry x="50" y="110" width="66" height="53" as="geometry" />
        </mxCell>
        <mxCell id="rsI_LoDy6iaIcR9gqDgO-9" value="" style="shape=image;imageAspect=0;aspect=fixed;verticalLabelPosition=bottom;verticalAlign=top;image=data:image/png,iVBORw0KGgoAAAANSUhEUgAAASwAAAEsCAMAAABOo35HAAADAFBMVEVMaXH/7+f/13T/uwwEp/HX7/212XIAvfNMaXEKp/H////5mXj/uwj/89fzUiDzUiT/uwgAvfOYxdT94dM8zfX///9m1/eBvQb+//8Mv/b///8Iv/P///////////+Q3/ssyfUDvfQgxfUPwfb9//////8AvfMBvvb//////fn///////8AvfP////8/v8EvvISwvTf9//////+///5/v/+//////8AvfQAvfUGvvNz2/nw/P////////////////8Gv/UAvff+///s+//////+//8Hv/WW5PuL4vr///8Kv/QOwfUAvfSG4PoAvfP8//8EvvYNwPYIv/P//////vr9////+/n///8+zfbY9P7///8BvvMXxPUQwvT/+PMBvfT3/f8lx/X///9T0fX9//+I4fto2fhN0fcEvvQ3zPYkxvUBvvRq2fkZxPUCvvTA8P7w+/9Azvby/P////9m1/lAzvf2/f+K4fsFpvEjx/XY7/2R4/pd1fmZ5vwBufP9///j+P/v/P9Dz/dl1/kbxPX/////tQWl6PvD6/z///933fn///9Q0fec5fs4y/W+7vyh4/XzQxEzy/ZQ0vd73PnC8P7N7vZa1fit6vx02/lFz/Y0y/a06/3U9f9Ez/ez7P1ztgElx/Y9y/Nb1vkexfW67f3////5mHjP8/2r6v173vlU0vcAvfcbxfWu6vsexfb/ugVg1Pe47f3A8P2N4fvR8/9Q0fV+3/n/uwgEp/Eix/WH4f2v1Wiv1XK12XIUp/GJ0ZO12XJO0ff/13Sx6/3R56v/uwZIz/cAvfPzUiT/uwiBvQYEp/EAvfF0tQCBvQQApfH/uQHzTiL/swDzQA7/uwYKv/Rs2fkUw/Qmx/VZ1fgbxPRsvSsDvfNP0vgyyvY5zPZCzvdv2vl73vqt6/xk2Pl1z6HY9f3J8v5V1PiO4vul6PxGx+l13Plf1/gPwfQAu/HS9P0ixfW67v2/7/207Pye5vtIz/cgxfVs2vdq2fnzUiB0z592vRgAo/EKp/G6GIwFAAAAyHRSTlMABqX77Tql8wD8k6/VOv7t7csBSOcoj9WoCgn9o4w0BP5c+x6EcOA4BjtTkckSH/36/COd6NDISSn2UPMWvQytZRLe9Uzwbv79dqV+sP7FRmA/8HsuWUNf4RFA2tzoHFG685j12Lip1tHw5LmFl4ySXereavHHUWDswDzgysLvw+rS1Lmssfr2O4fpY6hz68zr+uCZOvVs2INIYfl56uPh6Gv74tK916nQqvW1Fsgmvdoo9OHP3XzXyd2vjbOpqffdi7OZXGTtjzhgyxgAAAAJcEhZcwAALiMAAC4jAXilP3YAABvySURBVHic7Z17fBTV2cd/SQ4sIVx3czPcDbQDCIFEwVWH9RIvKVatgFxqUSktvi9e+qmX+qlWbUX7en3b+qrVCqjwFlQU9AVtMSWEERelUcKlHagxRQsIYTdQhBA4hPePMzM712RmspfsMr/9JDtz5syZc57znWeeOXNZwJMnT548efLkyZMnT548efLkyZMnT548efLkyZMnT548efLkyZMnT548efLkyZMnT548efLkyZMnT548efLkyZMnT548efLkyZMnT548efLkyZMnT548efLkyVP6KCvVFbBWyckLevx7++nSttafvPzv/gCA5j5zf+M7dnj8drItFTUiqdhoxyq4NG972//1yrl+Y69DOW2XZP95Wg0AHCwaW1PccrTHqe9P2Dv9zZ5ikmvVBcma1P2j0e/2JXtai63z7M3tO/PVq/P2lq1IXr2A7GRuzIbGTCs+9Y7YdOzEsf7FgAgAosmnpH/26z2WLt648LzHZyWvcl2LrHtfG728rftODoDIiezLNKO0FBhX53v3wXFJ4qsLkVU+/NI7NojdfFkcIIKD9GVKFicv+Ms/aUXNQn66uU3jrC5D1qx1n9G+bYwZkbNNFtPhgkmHLngt4XXsImSNeuil+mO92wBw4MDZIkueBtB337KabXMKEl3LLkHWqF5vnzpYKlPllCyREzmIXGhz5P4tnya0nl3AWDeM/NHJ/tDaRZoWZVev/0CVHlvr6NUHL1qWwJqm3Fjlez8/2C8SANAZsqT5SL8rQ08nrq6p9lnD19TTUwhA8UTOfZa8DkQEcj7YPmFkwiqbWrKunc73BlR7XSfJAoBD+RP3RRNT3VSS5R+99OcHoOKnc2RJx8Z+F75/fYKi+hSSNfLCu84SOTCMAMSJLAD7B4z7PBE1zklEobY05b0xxcgH8iHm5wNivpifD/nDpmNL9B+WJzYt5WYf9Gqb2WdIffyrnCpjldy3e8wg1j7kQ5RNFDOAdon+ozaSYqNYAnwjd5Mv4l7pFPmsqTNmLik1eKZOHw3lBODUjHeq4l7r1PisUWHfcQB6zxQnnyXNzGiqi3O1U0LWiLWnj8dYSgBZHERg+Qf8kPjWOxVkDarrrmYJCSILODz1eFzH6lNAVsWW7lCzlCCyRKBv0+Wz41nz5JNVXPd1qdL3CSVL5NDjv97eGr+qJz10KN7Q3x8Li7TRVJzirFhsATr0VHR/3OqebGMN/Kyv3Cq5TQmIs+TCgV5DT0UOxKvySTZWz390A3RtSiRZYn6vif9qPhin2ifXWFM2nzK2KZFk5QNZVx5eH6fqJ/VoOP1EC6A64iX4aCglHS8Jxan+yTwaDq77slRzxEv80ZB9tV4Yn0GIJJI15mfdSqGhJzlkcfDVjIpLC5JorKmPNZg2mJ2cqJsvGpboP8ZBP9G4fyulovfa8ni0IHnGGj17R6lpgxNPFjB5fjyakDSfVblmu9phJSmCV2Z7DP9X59uQLLIm3dFSqt2jkkgWB/H4uji4rWQZ6+zRDbr2JtFnieBQuHZSpxuRJGNNeyFQqmtvcskC9p/d6VYkx1gl5XuNjU4uWSh9odM7YlJOd/zZf70blqcsiT03VErCrl6fH+5cO5JCVq/6He3sSskgCxxQeutl/s61IynGes5n1uTk+iwRyHpkaOfakQxjTfuWWYuT7LM4AHn3dq4hyTBWeZFZi5NKlrTk/Bs61ZAkOPgRL2a166QTO56llJSPfPSgQksnWpJ4svylWe3vSkkkCxfM7UxTEm+swDPm7U2qz5LtWVTSmaYk3lilJebtTSpZ8qJIVWUnmpJwY01fFjFtbqwRySBLXhT45vudaEuiHbz/yuIBpi466RE8+5ye08d9GJ/o8ayRq0jA7N7sZI9nxbTGPVsJ3g39D3wTMN2PUuSzRCA4xnVr4kSWv8fwZgBA/8+77Valj3nHb3rTf3Kv7mgLmfmx25uZO+2zZheMb75r3t7u2b6+eXl5eSd75j311fC2K5uOAYC/253G0YaU+iwxH31Wuw1MO0VW1jU7/Cc/nPFyy8UfnCo65wPgcmzfn9Pma+vbRmvmDs3ZNuTTnHbBSglZ2ed86ba9LtcDuGv+klVz6NS1tepE6bkSQJyx68BNtGVZwGRNOUvMYtA3ydWzO6b7tzavyIlcw+fTXTbZrbEGHxy1qmckoquJMgMA2Bs41t+8rSklCwsWuXRa7ow17es3m0mBXDXVAmVGV2EzpYqsyMnv/d1Vq12FDtPPe35pj7MKNMG2EkTrTvzUS7WflETwHDgEih92ZysXZFUerh21BTFm0oIsrdNa9pTjVgNwTtbs4nfeOLFFzUxakKVZufRHLu98cEjWk3/8k0+aTCuytGtHatwNazkiq6R4/gEfNJ2fJmRp1w4McGUrR2QNnnprYWwuncl6bKGDZsfkgKxpn8yLQt2P6UvWfe6cln2yql7rpplPK7Li47RskzWafAlowUgjsvRofezGVrbJGvhRHwuI0pKsj35gs90a2SSreGsToOn79CbrtBtb2SSreEOh4YQ0rcjSr980xc3zT7bIGlhfCH3fpxdZ+vULnndhK1tkDarP1gy9MKUVWfpC5j11uY2G62WDrBEbsxug68V0I0tfwItvurCVjTH4yvf2+f2AdrxbGh+PDZfrElU3Z1gNwSd1DN6wvljjwlgdkjX2ne6lsa5JV7IM67e6uQmwQ5+1cAr7Tm+fZShh8YsdNdxEHZFV8WhI3W2ZQhY30YWtOiLr2ufzpKnMIity//L2G26q9o015NlJWjNpqitPmCayySVfoeQINs/Y/qThjge1wQzHd/0SvdRGMjUatKUaChje5uIKT/vGqlii3PzliqzVNwIA/L1P9PjMUHhKfdbVbp6bbtdnFbxbovIijn0WIL2ZNrp7X2OV/jat1Pqsn7uwVftkLb8qNu2MLJY7dGCfvMC/fIK+9GSSZShkeLzJuuF86LvNLlks98OKrRC9Hap8SSfLUIArtWesqn6xjWiMICXIVTNJZDVUv8C3aY6+unJ5ENVz6kJjS/QftZF0VYwtVJWqXz/i6tbSdow18pfQVc8+WeDAoaoWADj2tsLoAL3TSqXPCrh6QqwdY/14i6irnjOyIudGAeCxC8cCADbrbwFMJVnuZG2ssdeLnK56zshq2uwHgMJZzw8BgE23a59lTSlZOBJfY13Sl4OuevbJEiHiuV1RAP49Wa/uBgB/VPssa6LIarBDVui7boxlHTo8MaVJH287i+C/vwYAcPcDC9h9GCvGx6L4J3aZbHHPXwPivC+lq8U5tVJx8498AQDj53MAMLqCvSSyeQeA+c1ZOa/FIoZhPxDPwu68oS/vlyur1NmwrSUPxTOCH7xri2YTjiN4VE8FgKlLd/Sayd48fuP/KPnufclsm+PWR6Z8KTXi7E9ZKZH3bwMA3LYAELnIRCk+emZOw6K9KwEM2MESGl5Z2wQg6kf0km7n/7SDCH7vP79j1fB2ZLkbPjmRM4DvyGet/jEAYMDx0qL/ZINHB0JKRtNBXe5NBJZfqcyKAAc0dZNGniIAB+Wuy/zIQ8+tBIBrWIHDZj27MxqNRhGNomatcOO89n1Wyb/cvDvR0lgn3tZuwqnPwoooAPgHAJEBjJZti+SM5q8duuokcNm0mO0gQkTBq6ycNwJQHcaGPBNYzaZGcODA3di8U11SzeoB7fusve+rb0DvrLEuuki3CWdkcQixi75DrwUCF7NXKuz7p5yt1rSqQ/8N5OcoQ5hsmxJLUcjnmwCAC86+DrF8mC1Z7oaec6QA6r35Be2R5TvkZqTUyliz+ge0B21nZEE+1eGLIOJv7D4M/7vKKs0Di4uLi4sHDpzz+BS52oMmcxAPfqU4Xvk8QGUVec6/fs96AJyf5SuS3qM8cGHdI2sfYgMlDQHdEVf9aZhS4+YeXCtjfRbSFu/UZ8mnOgNC4FDKTi6i60fLueau27Bhw4YN67Y+MnckezQDI7cUANwOqMhSswT1XLT1Y2AU32vco3d9FQFmMFAfX7frrLxet7T5AWDTX9S7oA6s0gtcPYdvZaxJtdriHZIVqVoJABj7fC1EhEax/fDIYjlX/8LCaDRaWJidd+mn7DfTsm7LAURE/miHLESBqrVLl743c/udAdz+KgCgYG5hKYB+9QMBAHerd0G90yp2dXO3hbH8p/XlOyMrcC472tzxHsCh9nvlfgCIviDvGAA4jgOALzexLd70B7DDnR2yAIwkvfoWH/e/3g+QToqfvRQQAfjuAAAcD7Uz6tDTja2sjDV0gt4pOiRr824AyBrARg+XVbKeXFmlN3loXDQKAFUvrAcgQuRtkQU8sUROaniFpZyoZZ0VYY/m7Cu39llin3ga63eHOF35zsh6mEXo54yMiBw4lKyReDl3r7ab0YNd7Bx5ulW2tD2yCr6lZFjI3Lt/VYSlBJ5hWVoi1mQ9Hk9jtXD68h2RFWG44NipJramIPGytkRj3NCDLMCYdNtyMEuHQvbI+nWRkiGPrRGtv/vOmTffPH78LW0syyjVb65oO370nIZ4GuvNiI5bR2QhcAvj49h37hw/fub4mXfKv0y18/aIuheG/I4lX3IJJFBq31PZBhw43KSgpibrkxgwE6QMDStfbVy1qrFxpRTE7VEZStvxb5W7eymNubH8hXpuHZGF1VNZb+/b+XFjY2Nj46vynQX+/gHVUHXRZpY6/JYSiGx1VWwvk6WgpiLLP0ipVAgWR7YBKkNpO37esGEDK+Y8PmLUVOMZtnNjRZtMR8xtk7XCqueia1RkYSgLXGfV9FOGrmrfkE/aQlI7Tyorq8iKtip2qJUsOKRkzOyx5eUFMVmSVVv57rp3fz9349qFvR6dMrWzxvL31LssR2SFrB+sbX4oZtkb2PlcyYW9pbIhInKdtBOFaiXU/ltZV+2zmhQ7RFpZSmBY4Z6c02u2KrpeZShd1/vyCr86ltO91+llPz2xcMIIu09NW5B1vFNkfWefaakAEG0OyZa9cS1LuuIS+agFDoFBcs4QSzjYrKyr9lkx390kbezw6mdfWrEiNyafiix910s7OQpal5x+fWPhIHvv2Ldw8OX6AXNHZK2TGjenYs6gQcOHT6kacddd8m9bHquVypognfze9csSqKwuceK/rBYcRDQ8HoNUTdZExQ4FD4wBAD/9YUkgEND0sCVZ8mKIENHWXdy4bUonjPVrk5LtkoUq6S7zax754Pcbt9TUnDi9cfv2xVcxP1azWurmU2z+hu19AZXVB7Dk6DJm+dK3YpUyJyvQ/z/8AKK7dzToEbIkS17MCsCGPgdO/NHGT2ZZ+Kw+JiXbJathslSKLy/7WJ+c3r2XLO/++utbpSAeKwCIwM3NbP5Hr8eohYjILinbpxPAAXhwpdY8su6NAbN3D1tl54NqhEbbJktEADuWVLw0vENjWQwrj3tLd9eLXF8bY/CYyBz3kA9yAqpr6b4rNwAAziqsBXCjtBPi4j4oOQJsPg/ArwLAoXLZqIvCA4aeWOuXZgvZOYF82T1/daxa43r+jSVeUfAcm5h/SDzv77XQXMk3Sj0GDuDIa093cHptbiz/4PXGkm2OwUfueZtNX/tKlrqqDUt+w8qe9zOgqNW4TfTuv17kRvf8hzyPKIDBYC8WKNwF1T0K/gfmKLVC5I2t8u9lnn/6rEO7C7M2+fGTO5TlseobAIj1N4Do9NwNpuaQZXE0HO/aZ8Ue5ht7TkTtNaRBLUTXARhnDMSi0VxEOOwoHSPPRwFM/eROJYfKZ0X/EXNFwK2c/HbbTR+vWt/48SZEo4jIyzvyWcyTAGh+49z2X69lbqwhue58lggRESksR8uGgNprREZJTf26KnKbaSB2eHkAiOybqqrx4IU9eiszap+lviobyFp87mB9YcPaGynV+Sxp4mR03jwXxtoddUcWBw4PbWJlzLo/oOnbAP9thtPuyYFxplvtPiMCBBYtniEfmPxVn0xqWMTWeoUV9aCE5HEFHA4itjz8SU9NJD718akiHJDFJkqLFj/anrEsfNYP79cn2fJZIidyT37YgNIr/nRpxSQlScq28ikAaBx54zWLVplttbG+ACInctnZVV+fd+KTiZtGdF8OnNO3EQD+MBkiJ3J3sa5o/O00XaV6tjzT88D7Jdh7y7rttw6bTA8F1Fvv2GdJU9H57zs1FjaMNbt9zM7REM2nKfr2OVA7oVhTUwD7c48CeUf7nDyVk11k/PXBvKIGeQc8nNvzVEtOdrc2iNyBHkfP/uLs/QX1HAD0OHAUQB6OFWsrBeBQ71kL+6PZf/1L9GSRppvsHQ2ZfrCpyaGx/GsMP5lrmywAQEO/Jk6XpOSLBNq5h9mwGd0yq9wiJ3IR44tv7JKlumtw42RDKbIsjobbTO8AteWz2KEvwOmT5AQEoFnH2jWaXQawys1CcX1pDn0WOADDrV/rY7Eblhp+R9EZWYZ9RJ3fmh3tUjOOrHJblOqYLJELFf/ZqnIW54YNF4csO9EOWdpgQ5ffSIj5Zsw4ao8sY6nOyeJQu/9JK2NZkOX/3dUmfZS5ZKmT9/6vVfxgQVa02ayPMpcsdXLJL661MJbV/VnfW2zSR5lLlmb56DmPmFfO6vL9p6Pb6fLMI0uT/u5tFqeIlnf+vXWZVScqCdpvQ0cakiwKstxMqshC5MUnTCtneTPbkoixj84QshBoNreJFVl+3+pSi05UErTfho40JFkUZLmZFB0NRa7hb+YvFLEiK7pvxZlElnZB6XHz657Wt3ZP1AayZxJZkZPm9bN+aODjORF9H50pZAXazE1iTZb/3DfMO1FJ0H4bOtKQZFGQRl3haChyo/eYVs6arOi2kL6PMpcs3RI49VnAHb8y7UQlQftt6EhDkkVBGnUNnzXJKVnAmyFdH2UuWTqf5YIsXLzKrBOVBO23oSMNSRYFaZS2ZGH97WcqWeZq/70OqrEHj6yO3kWz8n6ckWQVmJujg3fRXKLcxHJGkfW0+VvuOnjLUc11MHTiGUDWdeYMZQH2X3BafpggVLc1i9rNfyRNyfrwJtPKZQNXdNhoSbkBRFB7wG52oDFdycozb08W0Het3cZf/gUBjn1tm6z++elClmZ55KGl5pVz8j74XACig/xA2pClBctioNQjy4SskN/iVZMeWUayplm9ltMjy3A0RIXVM2MeWYaj4SzL5+s8svQ+q+Fqy4dpPLL0PusR6wePPLJ0ZC1YbShEkUeWlqzZ29p5yNUJWbkjn7s5s8lqKLU8EgIOf9Ep0H2Yk+xIO7JKJ7b7pLkjsi7qdvrcI4L9UYd0Iys0dKehBLWc/grdXw986CR7WpE1e7z1LfAAHJMVgf+bTRlK1oI666CBKcE/up1GZD34kfGxPp2cxVkZS5a44OCuDp7MhPM4y6HShKzZd360ycZLooiDlss/7G0XLKDIQemp09xvPrR664hWTowlk0XsWuvCDr1Al9BzdjM62Q2dk5VhcuOznNCYUfLIciCPLAfyyHIgjywH8shyII8sB/LIciCPLAfyyHIgjywH8shyII8sB/LIciCPLAfyyHIgjywHckcWsfnJMGUBv72s42ySQqejQxbaf5f61ptd1KgLiwCFtn+A+uXJr2F3bnOV3fwfuKtTl1UWkPVtm3l3Dj4ShdXzwybqfcTVD7Z48nSmKQvodo/le9u0uufJkt3wX72y45ySrlzhslZdVFnAfb+1m/m9K07Cf2jBL+zmz/3GXaW6qgiAo3Yz593zGHof+q71izx1utBVlbquCIBPecFW3nI8CRwB0uMOhgQoGwAEwgN8x//OdLHTHSoQPtzhP9Vq1Tb+Mk9ZwH0zguGgAIBv9x/4o3n0JPyH6tvs7Ye+1kszzMFnA6ACFQhPEK4gPBEID9N/Mcdm02dlnmvLBlBBeFIWLkOwngoUZWEEEZT/kTKBBFEW5mnsIOBTF+Cz+M7EPTEbQB0VaB2th0B5wpM6ijAE6Z9A63kqkDoqqBx8K+BDtfSvlU0ZvuXfs8wkZQMgPOEJgoQnAhUoTxCE9I8nCAoElCdqsgC0olL6B1QCrdW67xS0JAmSfVYQAhWCIDwRggiD/aNCEGEEQSSnJstnKKZS+52BuyCg+CyEQXiEeSrQijAojzAoT3iEEUSYZ2QFlZUYONWq/zpVAmYmTXdJPosEEQyDCoQndZQnApFwCiKMsjAEKhCo90Npd0OMqWrDd+bti4wsBAUiSPwQPkxRFq6QHFWQ1AUJT3gac/A+xUQMnmopRf72ARnp31lQWlZPwQuEAqSsngJ8mLKb3UkwLF/3IhTlUlDa0l6BAIBqZqqMDErrJScFBCVb8WA4CUGAJzzhSRAKWpIzYqc1pp4pE7ECI2sqLxDKC4SSoAA+HJS5AgglVH6eglAVWT6tQ6qujH1L077WzCQLYVA+DMpTAUSgAoUSZCEoTfKg6mEHla0UXy+5sko5R2YeDREEEcoIHwZPgixEFYgUZIVZvEXDQFhZyacOGJTQqlW1nMX2maZsABVhUL6eCkEiUAFBgQoUQcLcGOUpLx0M1XFWJbuYr3qoTnZTPgCtGeq1sgHUlxFeoDwLHogAnvBgQRYRJLAEIhDdcGoL5Av6ssmqAencMEOVDYDWMWclnxtKJzdBAZQHlT0W1R8NATADtahCq2op4kKmRvAgPOEp81sEUnBK+TB4IhBeoAINVxABhvGsWBgf4ykW1ldnps9CUKAC4SlfTwUKmSyBIkx5CbJ6qj+Prlb5JZXVYspAryWFDjyRT3iIQhbhKcIVJChQCJQPlynrtAI+jS00Jz8ZLEYWEagAtc+S+aJ1VGCxBK23iLNyNYnV8AG5GWo4dimM8oQnFWE2nqX2XOychwqUh3Fc2Se7d2axagCoRCvQItGXaZJGSgUq0Doa5qkgRVwyWYwynmguhLUCLApV9sUW6J1Upg7RMAdFeEiOXd4dJe/OgnnViTSM7l2SLzabgf6d7YbMOgIkxy5QKD5LCCJIeGiCUh9M3LsPYMhJ0VYmSuWzGFnSjFDG5iFIVuNjN3Qr+1euamy5VX0lOhOxgsZnheUdT6BCkNTRMLvkQ3kgGIbqWpjiuVs0Y8uqIQdttoxRzGdJF6bZxTB2+KN8mAosiudJWXirtE6rdtxBbxQfAORm6qgDc1DspEcgPBGChEeYRVfg5WGuOjo2tprqQKi51sPmq2P3zGeUWARfJsdThKcCZUMO0gXXMMI84anmliPVuLJP5aaUQZtKZXFmKRtgww5yAMoG/6QJgfKUGVFQX5GWdrBKyIixKD42aKMszixJu2HMZ4EKsQmeCGx8i0J9RdpwlVCz01WrM2SU2G4og0XK2BdPyiSfxVNVxCXJ9Opg7Pp0pXZBBkkeg5eIqmdnggLbMSlPBISDYI5fN57VqsVLe306MyXdUyoTRcM8kS4U8oRHuIzwlC01uT9LdzeIPprIzDgLvEKUHFxJjitYRwXClmrvz5Lt4lPbRLogJofzmRhn+Z9CGApR4IlAecnnU4F5LyqTdY+8muyzWqulUSwFplaVz7L4kZG0VRbwZ6ufbDDq6ZPwvyOY/yK1UfeWX+WuUl1YfvtPW3ry5CkB+n/6BK1oFKICMgAAAABJRU5ErkJggg==;" vertex="1" parent="1">
          <mxGeometry x="498" y="-20" width="130" height="130" as="geometry" />
        </mxCell>
        <mxCell id="rsI_LoDy6iaIcR9gqDgO-10" value="" style="shape=image;imageAspect=0;aspect=fixed;verticalLabelPosition=bottom;verticalAlign=top;image=data:image/jpeg,/9j/4AAQSkZJRgABAQAAAQABAAD/2wBDAAoHBwkHBgoJCAkLCwoMDxkQDw4ODx4WFxIZJCAmJSMgIyIoLTkwKCo2KyIjMkQyNjs9QEBAJjBGS0U+Sjk/QD3/2wBDAQsLCw8NDx0QEB09KSMpPT09PT09PT09PT09PT09PT09PT09PT09PT09PT09PT09PT09PT09PT09PT09PT09PT3/wgARCAO4A4ADAREAAhEBAxEB/8QAGwABAQADAQEBAAAAAAAAAAAAAAECAwQFBgf/xAAZAQEBAQEBAQAAAAAAAAAAAAAAAQIDBAX/2gAMAwEAAhADEAAAAPy31cgoUAtACoC0WACgUAAKAABQAACAAAIEKAECACWBBFAEgAQQCgQQAIACCAAIIAAAAAEAAAKbOkFAFUAFQtFgFAoACgCqEAAAAAAAAihAAiFAQIAJYEgUCCAIBBQIIAEABBAAEEAAAAACAAAps6SgFoAVC0WAUCgQtAoVAABQKAAAAQIAAARUCBChAgAlgSKAJAEAgoEEACAAggACCAAAAAIAACm3pALQBKFqKFAoCgCqgAooAAAAAAAAABEAAIqBEKAiARFIIoEEAQQUCCABAAQQABBAAAAAEAAKbekVQCoWiwCigSqFVABRQAAtAAAAAABEAAAiAAioEQoRABLAkUCCAIIKBBAAgAJAAEAgAAAACAApt6ygFQtRQooEqhVQCigBRQAFAAAAAAIAAIgAEQALIEQoRAIikigCQBBBQIIAgAIIAAggAAAACAApu6wCoW2CgUBQWwCigKKAoAAApFAACRQAABABEAEQAioEQqBASUgigSAIIKBBAEABBAAEEAAAAAQApu6yoKqwUUBQWwCigLQFAAKiiggAAAABSBEUACAEgBEAJKIhQiASwJFAkAQQUCQAIACCABAIAAAAEAKb+uS0WCigKKqAWgLQFAKLAAKBQAAAACBAABLACAEgBEBFQIBEAlgSKBIAggoEgAQAEgACCAAAAAICm/rKLBRQoLYBaAtAUAqKAoFACgUAAAEQAARAASUAQEgCQBJRAIgERSRQJAEEFAkACAEEAAQQAAAAICnR1iwUUSqqoKKFFCgFsAoFCigKAAAAAAQARABEAVEBAIgEQElEAiARFJFEECAQUQQBAAQQAIIAAAAAhTo7ZFFEqqqCihaFALYBRQooUCwCgAAAAEAVAgEQCIASUCAkASBFRAIgERSRRBAggFEEAQAEgACCAAAABCnR2zRRKtogtAWhQVFCihaFAsFABQABSAAIACASiAkBEAiKIBEBIAksAJASwJFEECCCgSABACCABAIAAAAA6e2VEqqqC0KKoKLBQKtCiwUAooAUCgAEAQARACHV1zv6TzvN0kSAiASwEBIEgCSxCogEsSKBIAggoggCAAggAQQAAAAKdHfJKtsAtC0KCooUVRVFlAKKFFAUAAAAEAAiAR1dc/Z/b8ds8D5/o8L5/e6mRlUjGMM3Xm4Zvb3x9F9Tzc/LXzPyfVhCICSwCIBLEigSBAIKJAAgBBAAgEAAAAU6O+KqygtC0KC2CgVaosoKBVFCgJQAAUgAAIFA6Ome3rj0/Vz9b18S+b59+R5OvX1zji+dx6YZdG88+NZ6m7c9P0c+rtjGvF8HfzPJ15eOpEBJYhUQElJFEECCCgSAIACCABBAAAAFOnvlVQWhaFBbBRVoUWUoFWhQVAKLQBQACAA3az6HbGepDs6Z8PydefGvpvd58tT53w+jRi+l6eeeori83Ti47xjOzXm+h6cfUfT8unlr5L5fq2WdnfOrNmXJy1z8tyIhUQElJFEECCCiCAIAQQAIBAAAAp0982wWhaFBaJRVqiygoq0KVALaKEUKAAVFSXZZ6nfnlWnN83j0wj1O/Pg4705si0PQ742Znm894y56nTvOw83j0Rnqa8UDKzCVA15vp+nnqlkcfDfPz0EQSxIoEgQQCiQBAAQQAIIAAAFOr0YFoWhQWwUVaospRVFUJSi2hFUFRQAFN2p2bz2bxql8vl015uMK7+mdOLyY3DPUxywgWsc3buaedhu3O3vjyvJ126mnnYFqZVhGMtOjpndvPHx3v6Z27mrneLh0xgJYkUQQIIKIIAgBBAAgEAAAU6vRi0LQoLRKKtUWUoq1QlBbaLKC2CgtQFB6PTHodMcubwY3z41IVnYj0euPK4dIu7cqc/PUKYRt3Nebhmohs1PQ9GODhvRy0JEMq2amjnqFLZ6Hp58Xn3rxrbvPT1zrzeDzdISUkUSBAIKJAEABBAAggAACnX6MKoqgtgoq1S2CirVCUttRVKLKBWVbrO3N87UxzezefT6c+LOuWaxzdUsjLUprzfS6c+DG8ZfU68+bN4OXSGRhLU2bmjnqAkSNmp6nr5+T4+uGbjlAU2amWpt2kU6uuOLhuLU15u/c04vF5+kSKBIEEFEEAQAggAQQAABTr9OBaoLYKKtUtgpaVSpRbUtC2UVQUz1PZxfqPPv4T28vX3z55fOzvDNxino6xxXWvNxlHq9Ofk8+nuTGvpPIxuRVwjGXo655eGoZVnqYy68sc3f0z6Vx4fHtnZ19sWpGccHHenGpAGVU15b957Nx0m7efJ8fbRzsUSAIIKJAEABIAAggAAU6/Ti0KUWUVapbBaoqpS1VWUtlFUoqnq9Oft9OTzd/Xw5fZ5/G59PLb5pfb3zy53d0x9g4fnGfXyNDt1nVi+h0xw8t8DWRExlGzUGrOkbNwSTRjWObU+l9XDgmuPG+Hz9NXO4wrZqaeeoSAMjXmxC52bNTr7Zwy87z9JKJAggoggCAEEACCAABTs9OFUosoq1RZS1RVKltqWlVKWqWhUyr9I9fi2xol+Uz342sMsZdcuvNzs22dMm3UyTysdPQ1jy8dPW9HPxvN0gXJNcsOrrnk47kSBnphGyzr65wjRjW/pnzvN0wzc0tWsrNWNExlka8VWdmvOsYCM9TPU7e2OHh05+epAgEFEgCAEEACCAABTs9WKC2Cl0oszqothlZkAWrVRVLVKloZ1+h9/H7HG8GOnwPo6cvLWJQbdQas2AyOy53Jrt83G8YhTCIu3UWaOWoSWR07z1dM8uNcfLcjp655eOvT9fLyvH2hMrWVkl15sKZWDKz1u/PxPL215qBa2anV1xnp19c8nHXk+TrBBRBAgAJAAEEAAU7PVilsFLWWoBS0qlTKrQyrKyFLVRVLWSe3mfSd+Xk+fp4Pa6oxlysku3UGuBFkDYnfrOVbZOaXgm9MuESO3vnh4bxiRts7uuOXnvi57kkC9HXPLw1u6Z3bnDw6TKRa27nPy0ISBI6Nzo1nixpKNebI2bnu+3ju3nA+e+b6OfGkFAkAQAggAQRakAU7fViiyirWdkKKtUpbKWrVS1lRKZULWVn1HKel2x8W3lWMDIhnZlWqVAUJHpM6ejg5byTdZrl3WefndOjrnl4ai+l056ZfO5bksiEiLv6Z0c9Y5er6uXncOmjnqRTduc/LUISMqphHsd+Xk+frqlRlqet6+Xqevl5/i6+r6uXFjfzPzPRjLBBRIAgAJAAAkACnb6sWwUtXSoLVqlLZS1aqWqWrZTKs0tfRufTpxx411iqMrMxWyzTmgCA+hnPTq+Td82KNhI6LO255Ol8rh067npufJ59cIkRZEiEjPTLU5+Wqen6eXk+TtCxs3NPO4ygZ2QkuMel35+T5uokbtzq655eWunpnVm9fbHkePtjCCiCAIAQRQQACIU7vVhZRVq2UpatDKylpWSWrVLZTKqZ2e3rnn0nHz11XPlzcKZUOvWeXFtICovrZxxXXs4fNbsMJYRZGJ6fXGeJw53w51ka5ZEiLIkQh09c8nDcjr7Y15vLy3SRt3NHLUIbLBhm4RTLU140JEltkM67/Rzp5Pk6yAUSAIAQsACACIU7vXzFLVq2ZVC1S2UpatmVUtWymVVM69rXPSujTdlrXSU2Irt1OPNFAIb06ZPPuvfxPm96kDAxlh6GXf05+Bjp7GufmZ6cOdU1yyJGKoxiR1988XDYsej6eXleTtCxu6Z5uWpKIIhIi9PTHNz3MoUhlWvNys9j08uXOvO83SQUSAIAAItfRZfO6QkCRTu9fOlpVspnqRaDKylq1bKZVbKZVUzr1bjPU8yb22brN1m2pGuN8mtdJRSAPaxnxN67NTfzePrWJisIenM+nrPzM66cteb6GsefnprjGWRiSJLIh198cXn6VLbnc7NTi4dBu3nm5aSwhIEgSXZvOrGpAkqzZWvN39M7t5L5/m2USAIAADYfuPHXw258pqeaCRTu9fPKs9SApdKC2ZFq1UtWsktWskz07me/WPInQnTqd+M8GtDbZ2WdCZRDONdYriajSYnfWXOeRrWK4kPWznl1fsfN1+ft+d9HPRjWJjL6Gsc+bx53jEJLIkdffHD5+ghMvS9XLy/J2Jv6Tl46ElgJEgF9H08sed87h0gliWqYS+j358+NZWcXDoIIAgAB99i/pnPXkan5pufLWCRTv9fO1lqAWrVS21KWstSlqpayrJM622fQa5eDOkOnUwl9SY0rz6ZnYmgzRFNhiQzNhuJFjzd3UuMexnPk719X5+f3Hzvd8x3n5t9LhqxcJcTCX1d88JfJ59JGMSWR3ejHn+faIsjPU6emeHhvduc/LWMSUQkCR6vs5ez7eXXMfHfL9nJx0iEXZqas3q6YLlZqxefnsSAIABHrndLsONPBoSKd/r52rSzKtmpIVlQpbLVMrMqtVM6p9Nrj4d6a43VnZI6k65OLTrMCyZ0ipSm6IWXuk0RxbvJq7s37HxdfG6voPN193jdZqs5t8MunmkvD11pb2y9CYbxN55958rd8O9vpOvDwsb+R4enDNwzdeXoejHmeXplVNHOoiwkCR7Pu4+r6+e2Z+c+b6fM8/QSUkXKynpejn5nm6dvfHBw6Y5sCJYABAAgBIp3+znS1bKZ7JC56lFWzKqWymVmdD3Nc+a3jlyrpswMzNM02HYmOW+LZrssZGRCG7N64R5+tdWNfT+Trg1wbni9sed6uXrePtuzj9C8Xna48nWcfbXL2cvW8/S6d3u4dvD9vLy+HTl56+o68PJ5dPU8Ps0bny3q58mpnydO8+Vz6Z1qxcYkuMRZljCvW9XLVm8Hn6aOesMsZYCmnnenrnk5bys7e2PO83WQBAAQsCAAkZHd7OeVLKWrVLZazLqZVS2ZVTKynVc+vrHjNjpsxMjNNieniY7aTrxNsbF03OSU9fjfM6zVXbnXRy36HPXVy6+xw6+hx3w9M/Fe/h8f7ePXZ5s1rl/Tvn+b3scuTteTrebq5ut5+l0bfK+b0ev15+h25418rw9Hi+Pt+h+PrqN8v5n6uWOb6fq5eT4+3V2xx8NoiyBIhIFP03lr8y7TDCEJLTKzf0zycd039M2uTjtAgAJAAELEMjv8AZztLMhWVDKy1nZlSs9TKpGVmRa+lvHwr0xl2WdGphGxNibD6Hjnz+rUdEnTjWVmDOSZx7HDXjd8yvqfF6/rfn+vj6cuTc/OPreOTX6p8b3b838d+/wDP863SfVeTn9l5uLpOXreXq8zpvyNb5dXz5vxeHX6j0ef2e/LXXyXD0bfB6P0XxddksPyD3ceHLp6532beufO83TVi682SwkCQO6X9K46+A9GPDxUQi0ysplqaOeh39+fDw6YZoEAIIAAkDI7/AGc7VspdKWqmVZamR0dJ9N59/MennSRnXq3njpwZ1nXTqYRmmw2pmnu8rquObTam2NsZyZndyujcwPoPJ6u3nvn1Pa4T5f2cee9f0D5Xt8H08vifoeXy/Vz8pfoOGf0f53n5OzyO+/ke3XyNb8lvCXGPV7Y39c64cbwY26zz/L0VJcYwzdu893fHt3lx9NeV5uuEasXXjWjFwxYSAWJu1OfnoSUkUZ2b+mePjulO3tjz/P0AgBBAAggZHf7OdstWrVLZTPUtZ6nWfqfz+/g98fJerlyaZJ9Drl4bpI2V0amMmdbU2G2Z741ptk2xuk3RnGyPY8+/L74ylot7OV9vyezu49Pz363h2514Po56NOtfKX6Hz4+48nL5f07+B9Po1LhGMYSw695wXk5615uMeh6efm+TrAWurrjf0zjm+peePV4vk7Yy6sXn56qRcrOflqRJYmVtTXmyUi2RnZv6Z4+O0WurrnTzunGhACCABBAyPQ9vMlq1apbMqyrKzLU/SPF1+08vXyu2PgPdx8Dtj3Zz87eueays69TXGdmw2ptk75Nad+GuzdG6Tpl2xnl087vzvk68+jG9mJ7Xl9vsebuPB9XDk3Pz76vi1L1L5VuFapda61wjCMVwlxjGWGMtk1y9/p5+b5OsO70Y39M4ZYy45Q+u68fnOPXzOfTGMM1GJJcM3n52ZpIu3U04qWItkVOztjg4dEWpL3+jn5/m6CAEEACCBkeh7eazItWhaysyrLUp6J0m016z5tfTa4/P3oNldWs64zNibTbJ6EmpPS5urLn3OuXol6MXo536T5/t7ePXyfT5sbnp59fQ49gB8p7vN8L9Txl1nDq610rrjWuEuEuBjGMuJjLjCOntno658jxdpG3cys39MjHN7NY/VOHHxffz+R8/o+d8/fGWRjKjGMJdPPUiG3U04qWItkSPS9HPzfP0kFtnR0zrzdPPUAIIAEEDI9D281mRatUWZ1aysypZs06bn7fr5u7nPi7382bys6tTCMzZZ0p2p9b4cb5fE9V3R7nl6cPbHVjX0Pg9fP15+l5u3Tz6Dn3z346UAA5t5/OvtfPx3nhrVpqt1VpXCtZrXE1rrjGXA34m7pnkuurtn5/5vokQ7fRiRTGPV3z/AErlx8X24+d49/kvH6ZFJWvFkYy4ZurFhnUTDGokUSPS9HPzPP0QXKzGO7vjg8/SAEEACCBkeh7edspdKWqW5yq1lWepT6PfH7LXnzzfmZ2+X11yTr1Omzam9MowPqvHiHgeq75OrLoa7sa+j+f6+nnfQ4dsoAA12eJ6/Lw9cDy+/P5/1c+ma8rbXWiXQuC6pcFxjVLiY5uBjL7Hs46uWt/bPqzn81w7xd7OWphLisgfV458fWfKeX0c2NDZqYxrxrXmyJGEuvFkbdzTz1ELCR2dscvLWGaUVOrrnn561ZoAkACCBkeh7edspdKWrVTKy1lWVlrtufv+vk6uevgtduZrfqbK0ZZ2bE2m1PQk1pujfJvj0+WvU49/f8Pp7OO9O878azlAGjWflfpeDm3nu474+mfl/bjrzfH6NRqt1LplwXVLhGBhLjLhGMsgb+mfW68/Lx0yskuEYZuMY5uVm7pBr53CW2bKxjm5b5eOpELWrFwzdupo56ItkSOztjm5614pRbEdvfHn+foAJAAggZHoe3nbLVqlq1kzbbZlWVlrKz6PfLyLvCKdOpqlzs2JsTadibJKm6N6b833vLdXW/ZfJ+hlJq1ndnW7G8peXpz5evPCvN78vN78PI750aadXrzeHd565q5pda6pdUuEYLjGEuMYmMuR2d8ezrl486a83Xm4xjm4yyBnqYZvPy0Mc2BMrdus4S4xJcMuXjvZqaedgqSw6+uOfnrXilFskd/fn5/n6wqCLIAggZHoe3latWqWrWTNttmVWzI2WfRduPkunPi5HXvOEuVmabE2p6Cajcm6N8bo6sPufk+3s5dd+N8/THTz3jZxduPiezyc+8825zbdPK+P6Zp0111TXoeXuj5v2cvL1NRqmtUuEYLjGMYy4S4kjo659rty8rn01y4xM3CXHLGBnVrl46xlkYxIiyKYxjLUz0RjGMunFxlh2dccvLWMslEM7NlmdnJz3UEWQEKkDI9D28rVqlq1bMkttsyq2ZHsdOeztnyeHXKzZZ0amuXezazs2noTOk3JuN0b49Hjv9F+J9LKBDz/AEcfM9XnRxduWjTRqc+p1cr4/pmizY0t+v8Al+xL8j7/AD/NejnrNM1rlwjBcIkYr1dsbNOfnrKz0948Lz9cc3CNupzct7N5EzbZnpy8N6Od2amrFz1IuOUAlxiGObnqasXbuUkb954OHTZqasaEM7MJfS78vM8/UEkoAggZHoe3latUtWrZkWrZlVsyPp+/DwMdcZcrOredWbnWdm1M7Np3zOmt0bU3Ruj7z5Pu9/x9wPN9HH536Pk2ZtTl3nVqaa0anZxvjemaa7MvM3dOmuueXSuuXVLrlwjBcIkuJ3+nnFwywzdup5Hi65VdRLbNPPWepItb+k83ydMYRFysEjGXDIuzUxjGXOzRi0p730OHd0x5Hl6+n6ufzHzPTp56GVmGb6Po5+b5+gEEAQQMj0PbytWrVLVrJLZatZWZH0vXj89nrkWzq3nVm51nZsTadtziVNxtk3Hp8t/p3wPpZA87vy+Z+l5Ofpjs5a5emdda7NWmmzu4PF9DVp6XO+J1aTWuqtUupdcuBhLrlkYS2zs74xlhw+fp6ffn4/l6zKVqxrKzKiZVrzejpni824pNedYxlREuvK1S0imjFtd3bHu/Q4Y5eZ5uujneTjuRz89Cm/pMY5+eoIAAkDI9D287ZatUtUtmVWy1knbvPbc+VN5VlZ1bzqzc6zszNlnpTOisjYm03J918r2fV/P9I+N+r4tW+Pm+mZy9nK8fWYphWs1WehweL6WuvS53wujUYLoXA1rrlwlwjFcTXm4xlQ15tr0fRz8rydcYhrxc9NWKMrMc3o650ctYxjEWQJEJLrxbZlQ39M8fDdr9f4b+c+r5fL6Z+f8AB6OfndWNK37zjGvFxl9L08vM83USABBAyPQ9vO2UulLVLZlZaplZ73Tn5TeqMq2WdG5qyzrOzMzs9JnmXYmxNptPZ8/San23yvV8F9nw7FzjI7eV4usxMa1prr0/O8X0tK+nzeH0a111ql1rrlwMJcIxXCJLs3N284rhkXu3jyuHTGXVi6Odp19c83LWnFHV2zy8dQRFkCRFka8XKzKob955eW9h+t+ffhanm18ZuVNedCGzU2XPPz36Po5+b5+kEACCBkeh7edS1atWqWy1lZS19B05eM3jLlZ07zrlpnZmZWbK9K45JdidBbNhsj0+U+z+Z7Pm/f5/L9GPY87zvQ7eV4OshgYJjb6PCeP2umvVw8Ld1mu3VLhGtcTCXCMVwjK3q7YxjGXczqzrq6Z8rz9MM2Rz89fSe/z+z7OXNi/D/E9trf0zxefYGQqQiEMc3GM9JG/pnm5b+95a++46yPC1PxrtmRaxzYVMq2WdfXPmefpBAAhSRkeh7eZLWVWhaystWzIte/vl493jm2zp6Z1y0zTOsrM69K40S9EnRJ15VNh7Pnnfy66dPI9XPZHpcHL115naatMCVrj2/Nns5z47279XLwtXWYW6pcFwjCXEwlhI6e2ZGEtN1mnN7umPK49deWrGtup9l6vNl6s9PLPyni9Pi+frDDN5uWi7NZiohIEgsJG/pnn5a15tFY5uMSM9MM0kXJJL6Pp5cHDpqzUACARkeh7eZLVq1S1bMi2Wsq+k68fn8dRlZ6G89czvTNMzIzPQzeDWQrM+h8u9O8+/5b1Yvyvv58vRTs5uvGuHpnOLGCY2/TePHZifF+7fZnp4/XGqtdvJbx3XKuhcYwlz3Orefq/Px0W/JdO+Eu/WdWdd3THlcOmrNwzcq7NY9708eHjv53zd4dHTOdZWc/LXLy13+jHPy1zctYwJBYI3dM6ed5+ewKYxIz0wzSSVVk3bm/pnz+HRAAgEZHf7edS1atUtWymVlrp1Pe9XHxvP19PXPIzryJvEyrKzI6dZ3VpjKtqexwfofzN/DfU42Pb88xr5f3alb49bnPK73RljGJidWJ7HCfMerffmeNrWCjPDbJvkpgSu5n1Oefo+PHR0vw/X0/NXqXXm+r6OXm8OmMacaJJcMs6wzVbdZ5uW8csYtDr652anm+bp19c56nJx1qxqRt3NeWjnrGWQLUjKsM0kVFskvqenl5Pm6oAAEjI7/Zztlqlq1S1bLXbvH1vq8+/M8508Rvk476N505uWpsNiSu3edMsNllPsvFnpmfkPbr1Oee7m4+j6ryY+d9W9tuO3XynzXosMTExX1+GfL7a3SeXd4xiYS4GEuMuJ09cq9rjj7vz+bT0fAdPV4c6jCX1vRy8nz9MZaYxTXm0wyyrKublrGNeLlqJYIhMoeh6cef5um/efT9HPzuG+Hh015sgAbNTVjUQJbZjL6fp5eX5uqAAALHf7OdomVKyoWsrKfX+3y+725bsPhPN6tGr6Hoxu1nDF14sxdUuJ19M8ublWSZH6L8/j9T49/mn1ptPC9GszZEs9bjr1MZ8zpNFeb01DExl9bljg66wOJrCIuEYS4mMsOnrnGXCPUzjXL5LeMsMMX0fTz8rydYIVka8hjm7dzKzm47hhlJbYWRCRrxYtsyOnpjd0nD5+mjF6uueblrVmo27mGbhBUWzGX1fTx8nzdkAC13xoNB3evnaJatUtWqlr3/Tw+t9XnvO/n/l9eiXKunpnXm9vTHp3HQmFuW5rlxNcuqPW4z9D+fw/Nvp9uPdxtplGw+m83Pj668Lrco10XExj0uedfS8K88uKw1y7NTRi4yw6OkhrywlkuOWKyB3+jn5fk6wkQpTGMM3f0iObloSNWbnVISJA1Zu6zVLt1NebjGjnqnR1zrxdONd/fnxcd4xJRbMZfW9XHyPJ2AAtfoGL4tfNWdvr50tlq1S1apbLX0Po4SXzsb5ZrKzfvOvNtbbKSu7eeXN3am+zps9/hPpPHv5f38+Ho9ThfZ8+/H7N84fdfM5+N39P5/8AVzxXXp8seR03KkucnvZx8zrriQhhKFaOdyrZuYxiuGajGIsiR6Xp5+T5OsJAktSSq6OmdHK6saxga82RnpIAGVfpvm3+X98YZacaxlEgIh09c7dTTi8/PSFSX0/Ty8ry9QAOg/beWvG0/Jd57fVztWqirWVC1Ute334+Vjr6W+e6zy8dMtTDN2WNMktd3TPJi5Vkd0yNyfUc+XJq+znGm3oTCa+r+Z2+H9+fn/UtdfO9+c+J3RcY+i5T5rvcZcTE0y6pdZpxq0skuJjLjkXGJGVdvbHncN45siEjKsc0dnfHHw3qxYDHN04u3UUiIl9uPs+O/wA69GOaOTjsSBBBdms686iJenrjo3N+89HTPieLtoxoCFLSEd3r5qyolq1S1apbPb78vJ59JG3U9zpy1r5Od2pFq2d3TPNnVKnszHk63bKfV54+2xjWNuJ6nl6fJeyfPuljE9Pnnyt6xXE+rxj5PW8VGeolkmVZ1us2JhUWEFCGWpnpy87jLhm4Za83I5+eteL09ccfDeMuObjA1YsNmpJQi1Uxl9X18fM8vbg4bQIIVnWGblZsstU2az63r5eZ5uvLy1o56hBAFO/181e17+P0P0vP5fj6/O/N9GVQGeoPa78vJ59JFNu5sT2enPE83G9DVs7euOXnrPTKPVc/Ku8qyPrLw9O5lSoen5deN7Z85jrw5uEuSWXNOdr6vza+R9GYZ7faeDt8T7eOrNwlxzYbN5KjERjKSHR0mGbo53KrVTKtupCS9PXGjnrKzKtWLDVz1ycddfbJBV04vLx1298ev7OPF5+nheDtAsgUGEuGWGbhLnZhL6Po5+b5umdm7c5uehIAp3evnT7T7/j7O2LJ8P8AB92K45Wtm82vY68/I5dJFrbuItD1unLpkLzdL53PVr1mPPusTKvXw+2cvL9XOVjbD1fJPH9txt1HzHk7I3ye9jn83vt7kz4y8jXVX6T8vv8AA/Q4+NphmwxjPUz1JLBEJmw9D0c+Dz9NWbIEgWteKO/048/y7ksMrJLhlrzcqzswl15unnZLbPY9nLzfN05uWhBFqS56mvNQIZWYy9/fnwcOkgQ6N5z1NPPWrNp6vv5eh6efd6Mez9Dh53j6/LfJ9NFWsrKez6OXlcumMts2abdTTi56mVE22fSM6LnbZ7zl8C9UKfbseh0x53pxKhK9fx58X26xtleF5OvHx1vTOPTmOTvbxvjN0tYZuMYy4wiLt3m1JYiMZYer6+Xk+PrJYSJFIDDN9D08/N8vREUDKzHN5eOsZYCQMY37mjGpAhYgXZqasUQGVmEvd2xxcNiEEDPTDLZp7X0eHB590y0BLVqlqnr+jl5/PevNWZV1dc8/PW3ctVLXd1xx89evMfU3h827DUfQabPTz5uslQlvq+THj+zeNSvO82/K8nWyZGpfV7c7xvjTpIGMoiJdiQ051bLUiRhLJfZ93DyvH2hIEi1jmold/o5+d5OipKSlrPUwzcc3PU5uWubloYy7950Y1IAElGzWdWNCAyswl7euOLjugxEADfub++bZRVLVRVqlr0e3PG3j5atVOnrnTjQpatnT0zrl9OY82bxqm+z9N54z3NG88/SeV7Jz7en5c+T69Qwyi8vHXl+PprzS/Q6x0zn8nnvCSwkSNlZJias6wiS4wiLD0/Xy87y9N25IkQtY5si2eh6ceb5OiqClQbNS1JfM8vTXi4xF37zz89UhTGUDZrOrGhAZWYS9nXHHx2AJAAp2+rFRVFZUS1S0Onpnu748vz9KZ2b+udHPVFUps3N2898z5WehKts93rz9L6HLTptw9TyXo5zs43z+84Ory+91LjGnnrTzvJx36HbGfnc8vmzpjAksEbdTGMJcIxzYSWEj0PVz8/y9NupnqQkWsc2CPS9XLzvN0pQWqVMq27nFw35vl6SWA3bzp56hSEBmQwzRCpAvZ1xxcdiFBIAp2+rAtgpatEtWqWvb9fHxfL1q56z0dc8/LVq1S1Ts746uefKz0oLW7pn6D6fCQi1nqdnknldd9vGej580xIcWteV03a8Pydvb1y8PHWRFkCEhUzQTDNiyB3+nnwebpv3lSIUxi1kel6uXm+brSpTKrVTKteb4vh7UwiS7NTGMM0WsclI2amvNksBlZhLu1M7ObnoQRaEgU7PVilFlFUtEtWqez6+XlefpjGddHXPPy1dQUyoel6OePK8Odi2C17v0eGeohWVd3nz5XTclxiRCR1Ynfynrc3yut9ms6V87G+LG9MsiEKe335apfF83W1DHNkd3pxw+bfT1zCGQhWSZV6np5eX5+tMqqCmVnB5+nn+bpjFISXbvOjnoWscsq3Gg26mjGqYwMkwXv7c+Lj0xgQQLUEU7PVigosoq1Uoq17Xr4+T5usKdHXOjnq0CWrX0Hq4+F5e0LVNmp07z6ffl3azklEvXnPFdYkqLjEIYLv1nwePb0Znz8b9vry5OWtemuXGMV9Hrz9v1cifHfP8AX5Pn6SWplpu3nj4b3bm3ctbLMYtZGVnpdefmculrItmRjHkePtzcdQEiLTbvOjnq1IFr9/8AN0/L+uPD6Z8rOpEBlZhm+l6efm+boIBAFqRTt9WIUFsFLVolFez7OXmebpisjo6504tBa39M9PbP0eefg9NglXCMM25eh353ozSnXjPk3pIiyISUQyOLz7yT0948vO/QxOLqyoSPos8/rd+cfFz04c+vjdM6sa26zrzeThvDN7O+BnqYxkZV16zs1OLGsqtmdSPC+f35+WoCSkijdvOrFxlA9+X9P5a4z4rrn5EkCFsxzfS9PPzfN0EEAAKsfQfV8/B5umrNoLZQWrRLXZ1xu6Th4dIdvXAvSbtyppxrn569z08fB8vYUFrNPS6Y87O/R9fPr1mHoc8+JekgsEQxjm4739M8/LWrN9Ppz8vl0h16zz51qzYI9j08sJfP8/T9T8fX8t9fLml6++OflrZqZV63q5btTNJGUbE/S/m+bbmfj/0fdjpkmVeN4evm+bqiAkRQNus6s6Ru6Z9D0Y97jrt8vXaefZ8NQhUi09Dvz83z9BBAAAyOr049H081cHm6CiyiqWiWvc9vHx/J1xl+3+n496fEeD16s6osp6/o5efz3pxbQFPY7cvI5dertjv7YyTsTyc9JAVIksOXhrd0mGXPz16fXn5vHpitT2vRy8bz9dWdIgOo97lfD6Thjs9GOHzdJEO/0Y7vTzxzaZWbbP1/5fi2zX5r9fvbM42SfG+H1eXw66c2QJEXfvNrn5agPc93Ho6ZR8/4O+vNphmiGVmGb29sc/PWrNggAACnV6MWt256Hq583HXJx3RZRVLRPe9vHyPN19D1c+XhvJOTnsWhlZ6XbnzTXNy1aBLXpdceby3v6Tq7YyO3WPPxuKgDGLXJx3nZs1OblrI7emPN49IU6+meHjukJEBIkdnfPF59iHpern3+jnlVFbdT2M8/L3tYlzsz1Plvk+ri4b2amVYxI1Y1rjZZpxqCPW9nL0O+Neb898/vTDNEBlZhm+l6Ofm+foIIAAAp1ejAtDr7Z6+2Ofnrk4aVRVLXr+jlu9OPI8XbXm7dzXi2hlZ1dc7tTTLy8tUAtev25eRx69HXG/pMk7N54Oe4UxlGVmvN5eO9mp19scHn6SPX7cvH49UQS7t5kvPioghUl7O+OHz7Rnp7v0PPu6RGenX2z6XDXs+afL/Sxhi5VnZnp4Xz+/zHyvQliRRt1M9ZzrXm6sXXmq6d515unNzrXmgEoXu7c/P4dIBAAAGyt/fJKKFrq657O+MMvP8AP0QLWyz7n1+T4Ty+um3c1ZtBnp39+enFunLx2Fgp6Xbn5vHpv6Z39M5V19M8PLciFBrzcMpLDv8ATz4PN0wze/rjj561ZslEj1vXy4eG+XlqQUSOzvji8+4d3ox7Xu45WWtmnT1x9N4O/sefPxv2eGqatmdbE+X+V6fG8nXn560871dc8vLeJssxjGXZqZ6iNWNYxDKteaBlZhm9XXOGWjGoIAtZVhlv3MtTDF2dZbBRQtU2ano+rnbOPhvn5atfdenx/E8fXjA27mvFVT1PTy4ePTCN3SaOWlCoVW7ed285V0bzoxdcsi26Od15uzU7c39T8Pb85+r5vE46kYS+p6Ofk+XqBIh2dscXDZYIzs2bnNy2k9T2c/c9/CGemdnV1z9j8j0+n558P93zZSQLnHwfxvZ43l67umfd9/Hn5awzenrji8+/G8nZBQNms9nbEl4eG8JQMrOnpn3vbw+Z+d6duoNOLrzerrkaMawyAp098i2CihaoLXb359HXI9S48rHTzvP0Jt3NeaKel6efnefoOrtjm5bFsktBnudHTNszrPU5ueko087jGep1Zv6h4uvl+3lp83T899XPDN9T0c/J83QIhIFt7e/Pz/N0pv6Z041hhF2an2X3PHazs26myurGfW8jyfW6Oci/OeD0fO+Xt5Pn6+r6+P0P0uGyz5T5Pq9f2cZHQfOeHvycdq6umJLoxdWNe77vPqzrh4dOTlrf0zt1O/tzp4vj74RIAAAAp0d80FsFoC1QUWWvU9HP6D1cPH4dfL4dMV14C16Xp5+d5uiu30Y0ctYy4wM7LWEvR1zlZjL2dscfHcjDNwykuWp+xeDt7/Hfm+jn87X5j6+WGb1dMReTlqQCyB19sdHXPlePr2d8cfDpIA+s+z5fT9XLZWyTOT0/Kw01am7D5Txen4n5/qFPT9fL6b6fn87y9Pk/ler2vbx9Xvy8Lxd/M83QpIqAOnrjl5b37zrzZGMvf358XHphEEAAAAU6O+RQWwWgLQoLZs3PY9HLmzrGujpnZHFjfFw16vr5ed5esM9T9d4b/MeufP1Mc0DKt/XNMTt744fPsauehDdqfS8dbM3u6508dfHdsc0uVej6efl+ToWCIIG3c1YvV2zx8NiFPp/qeb6H38NmWUmzL2/DrzfTjONmXy3k7/AeD2U2bn2X2fJ0dM/DfC9vPy1Dr64yOHjsokAZWYywG/pnTz1t1nducXHcEAAKQAKdHbKhQWwUULQoNu85V7nr4+D4+2Gbt3NvSdvfH031vLweXp858z0d3PX7D4+v5/3x8X3xjmj0PRz8/h03dJnZjHZ3zwebeGaBt3kZVqxez0Y4fPvHNFO/0Y4PPvDNggQCWH0Xr8/heftpxqRlX1X0fN9P7fPlJtzdmXteHfm+rnsy8rhv8/8AH7PH59IdnbH2v2/J5Pj6/JfJ9WVZWU04sEsEAZWDbqc2NbLMrN+5z89as2CABlQGMAU39s0UKC2CihaFLVs9X08ufGtebs3OXjrCX3/pcOPhvHLu6Z70xw+e59Ofnoet6+Xk+TrlW7ecZejrnj4bkBW3Uyswl1YvR1zo56kFkD0vTz8zy9JEAJKB1dsbtzm5a5+Woez6OX6D9PxbctuWzOfY8Xo8708Un4n836emXEko7++OTlrDNyNu88+NUhjmyABlZhL19ccnLdOzrzi8XHcEAAZUBjACOjvkUUKC2AWgLVBbPd9nHxfJ2h19sZV07zsjzOW9ONDq7Y26m/pCe17+PLx1818v056mRs3ObloCRayoYxs0z1OblpAHoenn53l6QAkoht3Bp50bNTVmo+49nm+y9Pl25meb6vk9Hmerz/l3j9vzXHuMJQBQfuHDes/Eu+EQEgSXKzCUb9504u/c26zoxrRjUEAAC1IAhTf1lsFFAUtEFoUUB6Ho52ODj02azrzbXoennzcd7d5VnWrNkYy+t7eO7c4fPvPUzNtnnebpxctgSFUoTo6zl46kKkbNOrrjh8/SAAh09c83LQkZ6nf6OfB5uv0vTh+lerxa867ca4+fT8959fjuXpqYSgQsWh+m87pl9aXyLPzfpmEzQNmprzSWqb95zs4+W8JUAAAACApv65LbBRQJVFsAtAWh7Xu4eV4+2vN27mvF9D1cvP8AN0KSm/pNHO2s9T0+/PzOHQYZuzU7/Rjd0zawyxl0c9c3LX1P1/L198ed8jt8t5PQIqSL6Pq5+d5eggJA6uuefnoEwzZL2d+fJw32anFnXT0zy8tRZICwEilr7HF/WOOuRfm95+d1PhdyEzYZ2YSiHf256cazs5uesJYIAAAAEBTd1lQtRQooUFsFAoDd0np+rl5Pj651rzfR9XPzvL0qKG3c15qFBFqQOjrnn5aGepnp16x63Tn9T7vPlJo82vz/AIewFxyxly1N6efx3hLIHpern7Xu4fN/M9OjloYZsBTs7Y5uesjn56tmMopiIAtfsvLXoYu02S7D8M78/OXGOzriGjGrZT1fVy8nyds7ObnqCAAAAAICm7rBULUUKKBKtogFFD0fTzi8Pn3nqdfbHD5+gAtbt504oKS1IHR0nPz0QZWRZH0f1PP2d8eT4evi+HuBbMqyr1u/LzeW7VB7n0OHoenn4Xzu/n+bpIxlVTDKS9fbGyPO47wlxlQsxzRBHv8Au4en6Ofg+Pv5Pk6wtIkU9r28dOL5Hk6jZp19ca83i47ggAAAACAFN3WAVC0WCihUWotEAtD2Pbx4PP01YuWm3U5eWqAZ6kjGUb+mdOKWR0dc8/LQGWpIkoG7pnDN15okAbNTf0nHw0B09c9fbPl+ToJKJEAKbd51Z109M8vLQRCLItfXfV8nLz3rzfnvn94IksKZ2a5Rt1MY6OmeXjvACAAAABAAU29JaAqCqsAtAVCi0QDPT1fZy83ydB2d8ef5+iFAbt5040KCpFysyrXmwAAA39M8/LQARDv9OODzbEl6OueflbRccoAJYm7pNOLJd2509McnLerFgEZ6er6uXV0x5fm68Hn6AQG3U15uJt1MrMjDN05sEAAAAAQAFNvSC0ALZVJRQpAVCgWwdHWdnbnw+fp19scPDpjAAyrPU14qvQ9PPg83SQN3TOnGqSIAAdXXPLy0iAAtdfXPFw3bOjpnm5bEiARFJa26mjGhIAz1NupzctW3ZrOGbs1NHPQEBUyrCXZqex6+OdnLy35Pl6wQAAAABAACm3pAFUAtlCkFoAAUFodnfnlXPz10dM8fDYgBnqYyyPS9XPg83TCBu6Z1Y1bJmwARDp655+epALItDs7c+TlvDN6OmeflpUgJYEijdvOjGkAQyNmpv6ZwzeXlvo6Z5+dkogBnZrl26kj6D38Bz8r4Xj7oAAAAAgAAKbOkFAqgtEyoBELSFCkBQd/p54Zu/efO8/SRaAGzU1YuenV1xxcNjZqYywkAADdua83GCkhIKO/0Y4+GhhLISwICwqZ6asUCCFJc9TGEej6efPz1zctYSgZWYy7NSRs1O/tjZqefw6cfLSAAAAAIAACmzcUKAWhlZ9Dm/Y89fmnfGkkUhQBQAqd/pxhi9fTPk+brIVUFrbqas30fTz8/zdIDduacUIECgm3c089QACBt3Onrjg8/QSUgKqQNus6caEAgFtmRrzR09cc/PVMJevrikOfnrbqbNTZqed5+gggAAAACAAAFNmxFCgtQzs+rxfq8a3n5H3xIBSACgUB6Ho57NzRzvLx3jKAMqtkjZppxRu3MY15oEABv6Z089CQIAD1/Ty8rz9cMhFAEEbt5041AIKsGytWKB09ccvLYAzsxJLtuenrnh4dIQQAAAAAIAAAU2bAgtAUzr9i4764zPyrtjwqtkEoqKAFAO30Y7e+PL8nXGNeaAM9SRCmzU9j28fW9nL5H43rAKJA27mrFtklgEQxl27zt3OHz9BakQQMrLWvNQO/0Y7u+ODz75eW9WKBt3mS6s0C2ZGvN3bz09M8nHeuWCAAAAABAAAAU2bAAloWpGVWiSUCBKAtCKAA6u2fV9fLxfB2VhmwGzU3bgHNy1t3OztjzfL0AAgMqys15oSwIrduDZZs1ObnrGUIxMM3Zqas1AL9H9LzWN258p8r1ADp6Z5eehUz015SXo3nPU5+eoYyyAAAAABAAAACmeiqAEVQCkLQAAFQAoosA27nq+vl5fk66822DZpo53ZqYy4wMqGMAAILt3nTjQtkiKN/TOjnqm/pnXm6sUC1nZs1NeaMZcM33Pdw9Hvz8jy9fI8fYCHV0zy89bLIa5UdnXGrN0Y0IIAAAAAEAAAABTPQKoAQWgLSBC0AABUABRS2en6uWrOuPhpWdacUZ6mzUpz89bNTXjQEACbdzVixfb93Ds7Y8jx9uDz9N286MakDs7Y5uWtcoRnqYyyUZWdXTOWpo5658aQIb95xlxjCWRnqdfXPJx3hAggAAAAACAAAAApnoAFUBALUKAABVAAACUAtdnbHb3x5/n6c3LW3cprzR3d+fFx3jmjGAIFFM9Sn0v0/NI5+evn/n+jKzXmgQ7e2OTlrHNGzTXmgZWDCXbcq040KnZ2zxcdwR1dcVeTloCCAAAAAAIAAAAAUz0AAFoAEFqAoAAFUAAAA2alr0fTyzri4b0YudZ6kjs644eHTVLhmgAbdTfvO7eefGvR9GOrtjyfH15OO9WaIBA7O2OXlsQksi1nZrzRUtYy1N25qzdcu7WejpOXlrXmgQQAAAAABAAAAAAUy0FAAFUAAIFAUAAAVQAAAbtzs7YGnFtZJT1PRz87jvOtkkNC4ZunGufnrKzCJLakbdzViwQCgdfbGOXLz3Uz1Mc3GUVFDGXOzbqas3q6504vPz0AIIAAAAAAgAAAAABTLQCgAAVQAAgCgKAAAAAKFIdPTPT0zoxrm5aVkgxKYyotmVWwZ1jLhAyTGXGWAEEZVu3MrNupw8dyKQksBlZ2dsYy4ZvLy0ABBAAAAAAEAAAAAABTLQACgAAVQAAECgAKAAAAAAbt56uuZHHx3hLs1NupoxcZRAUzswlkZ6mGdALEohUyrt7YhjGvF5ueotIU6emN/ScvLXPz0ABAIAAAAAAgAAAAAABS6UAAFAAAFUAABAAoAAACgAAtnX2znUjl5ayrbrPLz0iKJGWmOblqY5oAqYrUz06N55+etebDOzduWt+s4RjLy89YZoAAgEAAAAAAQAAAAAAAFLSqAAAUAAAVQAAAgAAAUAAAAjPUyrp6ZqZ7bt54+HTnxcM3KsrMZZGMogSgzswzYsMk6Ok2amMDm561yoAAAgEAAAAAAQAAAAAAAApaAVQAACgAAACqAAAAAAhSAFIC2ypFkoz1N+87tzDIRQTKtmpjGdnNz2KBUhGrN15uMYqgAACAQAAAAAAIAAAAAAAACloABVAAABQAAABQoAAAAAAAAAABAIChUyqgkYklgABlYMJUAAAQCAAAAAABAAAAAAAAACloAABVAAABQAAAAABQAAAAAACAAAAABAAAACCAAABAIAAAAAAAgAAAAAAAAAKWgAAAFUAAAAFAAAAAAAAAAAAAAAAIAAAACCAAAAIBAAAAAAAEAAAAAAAAAAKWgAABQKQoAAAAAAAACkKAAAAAQoIAAAAAAQQAAAAAAABAABCkAAAAAQAAAAAAAGVAAACgUAAAAAAAAAABQAAAAACAAAAAAAhYEAAAAAAAIABCkKCAAAAIAAAAAAADKgABSAoFAAAAAAAAACkKAAAAAACAAAAAAEEAAAAAAAQoIAIUgAAAAAQAAAAAAAhnQAAAFAFAAAAAAAAAUhQAAAAAQpAAAAAAASAAAAAAAABAABCkAAAACAAAAAAAAyoAAUhQKQFAAAAAAAACkKAAAAAACAAAAAAAkAAAAAAAQFIABAUgAAAAQAAAAAAAGVAAAAUUhQAAAAAAAAFIUAAAAAAgAAAAAABIAAAAAAAAhSAAAQAAAAIAAAAAAADKgAAAKKQoAAAAAAAACkBQAAAACAAAAAAAAggAAAAAAQApABAUgAAAAQFIAAAAAAZUAAABRQQoAAAAAAAAUAAAAAAAgAAAAAABIAAAAAAAEAAAgAAAAACAAAAAAAAyoAAAUhaQoAAAAAAAACkBQAAAACApAAAAAACQAAAAAAAIABAUgAAAAQpAAAAAAAAZUAABQSqIUAAAAAAAAAKQoAAAABAAAAAAAASAAAAAAABAABCkAAAAACAAAAAAAA/8QAVxAAAgECAwUEBQgGCQIDBgMJAQIDAAQFERIQITFBUQYTMnEUICJSYSMwM0KBkaGxFUNicsHRByQ0QFBTgpLhFmBUY/AlJkRFc6IXNWSDhJOUoMLi8fL/2gAIAQEAAT8A/wC708a+f/eCeNfP/vBPGvn/AN4J418/+8E8a+f/AHgnjXz/AO8E8a+f/eCeNfP/ALwTxr5/94J4x5/4Zl/2InjHn/3gnjHnQ/7vTxjz/wATtMNur0ZwxEr7x3Cp8BvYF1aA4HuHOiCCQf8AG18Y8/8AA8vUy+bw209Nvo4T4Sc28hSIsaBEUBQMgBsx/DGd1uLaIsx3OFH40YJQdJicHppNCyuW8NvKfJDQw68PC2m/2Gv0Zef+Gl+6v0Xef+Gk+6jh12ONtL/tNGzuRxt5f9hoxOviRh5jZhuHm/mOZyjTxGorK3hXSkKD7KvMJguUOlBHJyZRUsbQytG4yZTkf8OTxjz/AMQhw67n+jt5D8cshUfZy6O+Z4ol55mrG3w3D5RonV5m9nMts0k8KxjEmw1IwiqZH5N0r/qG8D5lYqix2O5GiZ3tm99BrH5VdJiSRGa3vVuYfeiyz+0cae/v0QO80wU7gSuQNfpS753L1JiLi2ieK9laU+MFAAtDGbwfr8/NRQxu7AzLxnzWhjiuoElrG55nUKwsrdWzSQQCMa8iEpkZfECPPZiWES3V080JTeBmCalwy7h8UDEdV30ylTkwIPQ/4YnjHn/hkFncXRyghd/IbqTs7Mq67uaK3T4nM13WC2njkluW6DhX6bSHdY2MUfxIzNemT20AucSmyZ98Vum4n4nKry/mvZNUzkjko3AUBvBI3das+0iRxiOXSyqNzAZOfMmrntIug9xA8j8tbA/kTV3Lc3UxmucwT8MvuFBCUZkRiq8Wy4UmFQQoJMQu1QEZhI95NDFbayBGH2oHWSTiaOJQ4pCIL0mFwc1kXw5/EVfYbNhrgTgNq3qVOa0STx2RDNtHvbvt5bMJxEWMxWT6J+PwqG672POKQOh6GrzEoLWIlypflGQMzU1w8s7ytmrMczlUd/cxeCd/t30MYV7bKeITS58wMsq14ZceOJ4W6rRwmObfaXSP8G3GpsPuYPHE2XUbx/hKeMef+B5bQpNaDsgtprl9EEbO3wFR9nnjTXfzx26feaFxhFh9BA10/vPwq4x68lGlCsCdEp5GkYtI7OepNZ9AKsoFs4Bf3S62/URn6x6n4VcTPcztLO+p26Vnl4RlsVC3kOJrUF8A39TVklhBbie6nd3J3QpV32ju54Daw/JWx3aONd+V8Sox+KCjMGOZiT8R/GiY4cs4/lOeTeH/AJqxxOO2BinieW2bxRlx+G6r3DrNojdYc8z2/NSAWj860Q/5jjzT/mhHHynH2qamgUvqE0YD+0M8/wCVdx0li++hAw8Msf2OKFs/VCP3xXosnPSRyIYbqNpKPd89Qr0aTno/3ihAc98kfkTUmhZCI2JFFL+yhWWOUTwkcVOrKvT7a53XdsM/eTcaOGwXG+zuRn7j1PZT230kZA6jeP8ABk8Y8/7/AJesBmaAyq0wq6vcjHGQnvtuFGywrDt93KbmX3E4VLj0nd6LONLWPlpG+pXadi0srOx5sa0EcNgUtwFYXZRTzmSffBCNcvTyrEcQkxC4LkBI13RxruCrtEYC6n4chzNMxb4DkBsyrw+exAIUEjeM+Afx22t3LZzd5C2XUciKntIr+A3NiuTj6WDp8RsPtWqnmjZfYfUFKR4H8J59KdCjEHZqz8W+ra7ntDnC2pOanhUojxCZBaw6JCCXDcKeNopCjho3HI1FiFzAN7a0+O8VrsLz6RDA/VeFT4VKg1wkTR9Vogg5H/A08Y8/75ltyrSfVsMEu7zJ9Hdxe++4UGwzC9yD0yfr9UVd4jd3mYkk7uL3F3VIyIhCDM9TRJY5sczsAJ3CtCp49590UM5ToHM5BRWJH0Gzjw6Pj45yObdKy2LEIkEkozz8CdfifhVrePbXYn0rIw5MKY6mJyAzNZUfZGQ2QRhs3k+jTj8fhUjmVyx9SCeS2mEsLFXFXEEeJwtdWgCzLvmhH5ioBqSZOq5jzGzImiNm40rd7HoyGtfD/Kic9gYjgaEhzzB0sOYqO6ivk7i99mTgstXNrLZS6X+xhwNBkPjH2rUUksB1QSn7P5V6ZBdDTeRb/fWpcLYrrtXEyfjRUqSGBBHI/wCAp4x5/wB5y9ULnUULzSJFEhZ3ICqOJNYngd/g+j0+AxCTwnMEGmXZYYVc4i2UKexzdtwFacMwXj/XLsf7VNXuKXd/umfSnKNKWYR7hRlzoknYseoajuXrWsKCI9w5nmayrBoljaW+mGcdsuYHVjwqSd5ZXkkOpnJJogEZisIwR7xDdT5JbLzbgxrFpLWS5HoYYhRkzk+Pb4B8diIXcKozJOQq4ZVyhjOaJxPVuZ26TRGy3uJLWdZYmyZa7iG6dL62GkZ5Tx+7nz8qkURyMuWek5VqO0UdxDCniaXKSNCdXEAcDSYbdycIH+0ZV+h7keMxJ+84o4YB47y2Hk9Cytxue+iy+Azo9wto1u99FNGR7DFT7NegQnw3sP27qGGsd8dzbt5PRw+64tHr+KEZ0sV1anXGsgy47jQvILwabyPJuUi1cYa8a95CRLH1X/AE8Y8/75lsSuzVhiF5i0UmGxqXgYOWfwL5129gxa5sYZJYIBawb3MTliD9oFQ28tzII4Y2dzyFR4VZ4UgmxWQPLxWBKvcZuLxe6iytrfkiUVCc9I/E0TyAyFZUqF2CqCSdwAp+zuJpB3ptG0+YJ+6u7EX0ozb3P50zFzmTtxEehYbbWI8bDvpfM8BWk9DWA4At2j3+JZxYbB4zzkPuisbxibEn7qCEwWaezHEi5DKjBKOMb/dXdSe433V3LoM9DZ8t1FH5q1FT0qMej25mPjf2U/idqLzOwqCKyVfiaNWN7JYXKyx/avJhXaWzgF4b7Dv7HcAOB7hI3rsiglnbKKNnP7IzoYNOBquHigX9t67rDIPHPLO3RBkK9Pt03W9lEOhk9qosavHR7cSiOOTkigZEcKkuZ5CRJNIfNj6gOVaASCpyBORz5VcQiCZkDq4HNaDMm9WI8jUWI3cDAxzuCK/S8d3uv7SF2/zUGlvtqN4IjqgmeHz9pTUllFepqyVZPfjOYNXNnLatlIu7kw4f35PGPP8AvuE4DNiQ71j3UHvcz5UvZC15Tzg9TlUF/ifYtHhgitpoZn1CV0P8CKscfxjG7Z0uLW0jtZUKs+lsyD0Gdf8As7Dbc21rdRQsfG/jepY8BEhIuby7lPF6uzbRzs1prKHLT3lQxmaZdQdgWGoqMzlQwjCJdy4g8J6TZCh2Wgl/suM2Up93fnWD4OcNxu3N1v1ZiM7stWVZVi0kAxa67mFGXvDvzNd+BwghH2E/ma9KfkkQ/wD2S/yrCGmusThQsAgOtslA3DfWJYvdX9/NO07+027y5VgmHz3f9avbqSKzTeSXO8VieKtPcSJZSTw2WrNIjIfvPxr0ib/Nk/3GhdTZZNLIR+8a76Zd/fSZfvGjd3BP08v+816Xcf58v+81BNdTTKgnffxJPAVPfytKe7chBuAr02fmwPmoo3kh4rGfOMUl57GRgt/9lG6Q8bWD7AR/Gu/g52y/Y5p3tyx+RceT/wDFf1bpKPtBpIYpnCRGYseQTP8AjVrhXotpFLid3BbWc8ZTTLmS+XQLnkavLHD8JdRGUvCy6kkdiEP4VNf3so0RPFEnuwsFpre4YlmR2PXjTRuniRh5jYdxzFXA1FZRwcb/AD5+qGKnMUVBBZPtHT1EkKUjlG1ROY26jgaTFG+ju4wwNS2CTqZbJtQ5pzFMCpIIyI/vieMef98jTXIq+8QKt4FhhSKMZIgAFHoNwq7VDaSGaMSog16Dzy31d397iuRkLJB9WKOngOREjpBGPq55k+eVF7ZMljV26knTnT3WZ9iOJAOi5/nnTySuPakZh51lUcJkJy3AbyTwAp7lwojjkfQpzBJOf/FPj+JyQdy12+j7Afvq2GDXFukc/fW8wGRkG8E1L2blZDJYTxXSfsnI1PbS2z6J4njbowyrDx6Lg97d/WcCBPt40hCyKSoYA5lTzrGMUkmjW3AES5DONeCjkNoXM1qA3cqOwf1axLfrJ9w+C+oDlWoUz9KtrG4vDlBEW6nkPto2dhZb7uczyD9VDw+01JjEioY7ONLZP2B7R8zUjvPYa3YsyycSeoqxlW9gNhcH4wv7rdKlieGRo5FKupyI2CaReEjj7a9Jl5tn5gGu/wA03xxnL9nL8qjdJYnTuh7I1gAmvkD/AJi/ca7qI+GYf6lIr0dj4WRvJhTQSrxRtgJU5iu77zIxKSTu0jkadGjco4IYbiNoOVB8lyI1J0PKo2aI64HO77x50slviI0TgRzcnHOrqyltW9oZpyYf3tPGPP5rSOtZL1ogcjsC51oNZEfNZbFBBB6Vh96mIWMc0fMZEdDzqzwW6uxr0iKP35NwrtFiGF4LhksKE3d3MpReSipbueePOVykXAKu4GmOrlkBwFZVkNkUPe5knQi+JuQqV8xoQaYxw+PxNZVlWVRSSQvridkbqpyqfGbu6sjbTuHXMHURvrE/6thVhacypmf7eFW2GXMNj+k5LdzbjdGeRamJdizHMk5k1lWVH2Vy5nbb25nmRORO89BV5KJrglPAvsp5D1bTDri9+hj9kcXO5RWjDsO8Z9MnHJdyCrrFLm6GgsI4uUce4bbf2rO5T4BqBIOY3Gpx+lbH0lf7TCMpR7y9fUWoX7qZW6HfU8fdTMvQ7VZl8LEV6RJzbV+8M671D44lPluqKSOOQOjPGw+0Vc2KYrYG+tZou9j3SRk5NTQSLvKHLaCQaGY9tDllS6JuiP8Agat78xZwXQ1Jw302EpLKHhkHctS4dbIuXdA+dXeFoVLQbiPq9f7wnjHn66rRy5esKFBjsUDma7voQa0kesBQFdnuzF3j8xKfJWsfjmfgKu8Xsuz0UdvheRMPCVgDq8geVX/b7GL9NBeJE+CVJI87me6dnZup3t/IUzF8yaypk0nKsqgg73Mk6UXezVLJrARBpjXgv8T8aFaQa01lWVWsHpF3FD77hfvNY3ld468cG8AiIDplQx26sSlvazaraHcEfepPM0JcJxY5TxmyuD9dPAavsFmsE7zNJITwkSiKkXI7bdvRbCWU8Zvk18uZply221nPey6IIy5/AUYLDDP7Swu7j/LQ+wPM1eYncXg0EhIhwjTco9Ww3ySJ78ZGyzu3srlZk5biOorErNYpFmg328w1IenUURltap/biil6jSfMevZ3ktm7mNsg66XHUViWHPhpilhmMkEy6o5Ru1V6Qx8YV/MVnC3FWTyOYruNX0bq3w4GirxHepBojPev3Uc8gs6MOhIyNWNs0OHRORmj5kNyO/YavFC3koHvf3dPGPP1gKbp84KDEbAMzWgjaBzNdluyRxQG/wATJt8Li3lucnwFdo+0uVolnhUHo2HJuTIZKf5mpJGlcsxJJ60iBF1yDP3V6/8AFMS5JNAbjUa5vTb2NQwGVjvAUb2Y8AKmkDAJGCIl4Dr8TQXOtNZbNOfClRmbJVJPQCuzsQfFlkfwwo0h+ygxjhlu2+lnJCfxNZVGPaoySd13WttGeenPdnWVXmF3VvbpM8R7tgDqG/LzrKkjMkioo3schWIuO+EKeCEaB586U8jwoIXcKgLEnIADeaTC4bNBNismjmsCeNqusWkljMFsgtrf3E4nzPr2B03sfnlUi6JGXoSNmFSpcQPh05ySXfEx+q9TRNDK8cgyZTkRtPhqL27SVOakOPyPqhOtaRRGVYNcR3dvJhV4+UUu+Fz+qerm2ltLmSCddMkZyYbUmkTcG3dDvFYIscrySmNQ6ZAVcwpPA6SDMEVgOKC3Bs7nIRt7/Crqz7sGSHMxjiDxTz+HxqQkIxUaiBwqRmaRi/iJ3/3dPGPP1hu9cesPUUkUGB4itI48q7O9nUuyLzEj3VovtZc2Fdo+074lla2o7iyi9hESu0j9xFZYeNywRZkDqajjCr3knD6q+8f5UxLsWY5k0BSjjUYyVjUULTSBEG81M6he5hOcY4t7561lWVBc6K1lWVWqLgGGG7nUG8nGUKn6g61gkDyWeJTA5u6CIH9476vpFkn0x/RRjQnkKyrgaDA0WAqyxm6sWyRtcXON94r0bDca32rCzuj+qbwtUeHT4ZLLNdRle6X2DyY8sjRJJJPE1Y4VNeguMo4F8Ur7lFNiFthymPDE1S8GuXG/7BUjvK5eRizHiScz8xAdNxGejCr1dN5KP2tisVOY4ir9v0lYreoMpY8knH5NtG8EVZkekBTwcFTRBUkHiNo2sMxS6kYMu4g5g1iVxFiVrBNwu0XS495R/L1LW7ks5dcR8weBq4xqeePQFVAeOVd8RlrAkT48ahu5UAFvdSpuyCluA6eVJLJDcGQZlh41J4irm1S+iE8HjI++mUqSGGRH9xz9VPGPP1R649QbB6gGwDLeawrC4kgOI4n7NuvgQ/Xq+xmWeHMnQr+FF5KNwFYaPTMWtkdR4xuHQVjKC4xi5mc+wjaMupA4VIWd82+7pQFZUooISchvNSgWkRgX6Vh8q3T9msqyrKsqyoplWB4bHKXvbvdaW+8/tHpWJX0mJXjzyeSr7oq1HoHYaW64SXVz3UfkBvNbjxopWWzKstl/c3MlhaWkjvK/jy4nfwFQ4XDYhZMRzeZvo7RPE3nWIYhcXT93IO6jTcsKjILsy1r8R8xwNYmP64x94A7cNuxa3Pym+GQaJB8DV/aGzu2j4pxQ9V5bF8VAlHDDkavEC3TEcG9ofb6gOexzy2K7IwZTkRUvKRR7LfgazHSshWk7FPI8DTAruNJORkH9oD7xVm4DFUb2X/A9aubcXeobluU4j3hRBUkEZEfODblWXqp4h5+sKb1B8yNgoDKsHwpGjN/iHs2ke8A/XNYpicmIza29iFN0adP+au7dljhlG+N4139DzFYPOtniKXLpqSLMmr259Lu5ZguhWYlV6Zmt5pVzNd0wpB7VJH6BAJn+mkHyQ90e9WRJJNaa01prTWmrOzlv7pLeIZsx+6sVHoUslhb3MklspBIPDVUcTSyKijNmOQrtKRDhOEWMfghjc+ZJrTXCtxopRGzBMEusbxGO2tk55ux3Ko5k1iV/bYbdTLh+U9x4TckblA90UtzMlyLgSN3wOesnM50L6xxpBHiKiC64LOvA+dYhhFzhxzkGuI+GReBobjnTjMah8xiG8wP70Q2AVppB+kcKMfG4tRmvVk2txq59uCCT9nSfs9XM+p30LRRxCPRuyds+J60ylGKniNudbqC6xp4nlsRyvPLoaLfpKzE8XsX1sPbH+avUfGpY0xCLvYgBOviXr86Nidgsflw4XgsvYK6wmsayPKiCCQRkR6qeMee3KhtG9PL1BQ2jYNgoUKAyrBcJF87z3J0WkW926/CsVxQ37hIxotYt0aCjvqEyE92jHJuIz3Us0Wnu5IgyA+JDpJpYbGThPLF++mf5UMK1/Q3UD/bkabB7xP1WofAivRbmHjDIPNTVnHGzGW5T5OM7x7x5Cr2Vp7pnfifwrTWmtNZVprTVhPDhWDSXMTo17OdCjnGKOZzz351hydys12w3RDJfixrtCCJbSM8Utkz86yrKiK4UQD8DWHYL38Ju7t+4s04yHi3wWosRkawuYsLgeKDLu0RBm8hPEmnRkYq4KsNxB3EU6UasMZms07mQCe2O4xP/AAqZleZ2jQIhJIUchWZ+YvN9naN+yRsXZaXTWl2ky/VO8dRWKWq29zri3wTDXGfgdjcqHt4e37D/AJ/NN8rDq+sm4/EesflFLc+daasrk29wrfYanDWt4Wj3MN/7wq5hW7hNzAPaHjX5s0KhkEU8chUMEYNpPA5VF23wF8MF4b+FBpzMR+k8tNdmOyFp2yfEcVuppYIXunCRQ5Z+9WP4T+g8curDvO9ELAB+oIBFGhsXxDz2LsO1Tkdo9QbBsGwCgMvOsJw2TE7sRjcg3yP0FYviEbotjY5LaQ//AHHrROflQFEdxHo/WN4/gOldnIIbjF0injWRCp3GpE0yuvRiKAqOSSPwSOvkcqtr2+eQJHMST71Ji8/ehXWGVQeaVLiFvJM3e2EX+ndSyYWx9u2mX91qNrhUv0VxMh6OudHDrf6l6n+pSK/RTnwXFu/lJRwm75Rah+yQaexuE8UEn+000bLuZSK01cr3MNvZDiSHk8zXaXfjk4HBAo/AUVoiiKyq0w2CxjW7xbnvitx4n8+grEcRnxGUGUgIu5I13Kgrsje2OGWvotzKkM7gSZvurtreWd9jYeyZX0xhXdODGiKI3nbhltY3aSQ3MrRTsfk3+rV7hlxYTaJ1y91hwaiPWn34VAejEeraf1/DZLM75YflIf4jYfAKtfahuE6pn93zIBJyG8mrXCbnMM+lFO4hjvIrEsFucNkIbKSPIMHTeCDwPqo2h8+XMVIuh93A7wazz40x9MwsP+vtt37y1bztC3ep5OtXtupAuIN8bcR0PzRoV/R32OtsWR8TxNNcCPohi5MeZNHC7BoO5NlbGLLLR3S5VZ9joMMvJ5sLvryxjn4wQlCgPkymu2/Za8wK/wDSpp3u4bljlO/i1dGo0Ni+MeewUDtA2AbRQoA1kdg2CgKA0+dW1tJd3CQxDU7nIVfzR4VYjDLM5yN9O/U9KY8vvPWgKgXuk75uRyQHmf8Ait5JJOZNdnG0Y7bfEkfeDWJxd1il0nSVvzoCgtZei2un9bMM2/ZXp9tKMjmKYEtnQWtFKxG47xRUE7hWmhLKvhlceTGlvLvgJnPmc6tzdXM2kiPIAsWaJTkBVnObnFbfvIYnZpl37xz+BrHJY3xq7JhHjI3MabuSdyOP9QP8KKp1b7qWIyOEjBZicgMt5pbaDAFWWcxzX5GaRfVi+Jqd57u5aaaRXduJLiuzPZGC9tkur/N9ZySMHdS4PaWS67eFA3Nssyftrtf2dtrnDJr2CIRXMC6yV3awOOexlyO8EVpog7LDGtEXouIJ39qf9yVimFpDCLu0lEtq5yB5ij6oikmwcaEZtMvIZ0RluNZVpoirW4a1uUmTihzrFoEjuRND9DONafxFfUNWByugDwYEUw0sR0PzGCWwcvO2/TuXYB6XhxXjLbbx8UPH7qxG3FveMq7lPtD1QdaaOY3rsw+UJchW8Mg0mu5KzSqu4rnmKtLgRZhhnC+5h0q8tTbSbt6NvU/NCrDtVjOGWiW1lfyQwJwQAUP6Qu0o/wDmf3wx/wAqT+kftION6j+cCVjPbLFsesRaX8kTxBw+6MDePUXxjz9VeOxhQORojmKA2jYDQyrKhQ3edAVaIuAYZ38gHp049gH6i1I7MxZiS7caFQRd4+XAcSegqV+8fcMkG5R0FAVh0gt7+3lO4JIpP31jjRS4xPJA6vG5BBXyoLVnCpLSyjOOIZkdTyFSM00rO+9mOZoJRXh5UFrRWitFWcq2t0kzRJKF+o3A1JonlZggj1EkKOAoIFGQqIej4XLJ9eY92vlzrC4A2MWp6SA1iXtYndHrK35msqsrT06+hgBKCRwC2ROkczUVh2XwEyB8Wka64a1TUU/Ail7I3WMYyRYR3QsZPbF3dJ4h71QdgbrDYs4Bhd7J/wDqoWqwuEwjDmGOrhdmYz7K2/DLyo9sMO/+Asr676G3tSQaftJilyCLXszdedw4joWfaO8fW82HYYOkEAlf8aPZKynkMuJPJfTtxeQAfkKbslgCpkcLib463/nU3Y7s8eFjKn7k7UOx/ZlPHa3Z+Hf1/wBLdkP/AAc6ebk1BgHZeLdHpC9JIs6k7MYC75JPbfbAtf8AS1nAzRw3trH1XQFNS9jUm3iSzk81rE+xEFvEZLn0KJeuspWF9lsMnxVEur9/Rs820Kc8qngtbeQxWOfo6bkzGVdo8GS5sjdRp/WE6DxCjZXI/USf7TRtphxhkH+k0Y3HFGH2UykVaf17DJbTjLF8pF/EUOBq3bRcxnowq7XTdSD9r5jAZl0yQnjnqGy1nNtcJJlmB4h1HMVj5T9LSpEweNNyN1HqgkHMU4z9ocDSRO29QR8axTuY44JoJNbzR/KEDcp5igcj5/jVuyzwm2lO4742qWJ4ZCjjIj5vOs/VXxjz2DaKDUTnsQ9eFEZGgNgBrJqGxay00KwCwj9vELvdbwcB7zVf3z31088nXJV2AU47mLuh423v/AUBQFAUBSIWYADMncKucolW2Q5hN7nq1QxZ7zQWnhDKDzoJQStFJCzuFRSWY5ADnTwtGxV1KsOIIyIpVyYVoJOQrEwEeK2HCFAD5neawRM8Ztx8T+Rq9sLtJZppLWdU1ElmjIHGuzuHYdiN40OJSTpn4BCPvJORr9HdmrSCSGxxVLWc+y8pOp6EeHwBRDj+ErpHOxjJof0iXlgZINFveohyjmAMWY8qxPttjWIk/wBaNvH7kHs/jxq5ZkwdNbEyXDl2JOZIqz/pCxWxsoraCGzEcKBF9g/zqL+kzFBOhngtXi5hQQatruO9tIrmA5xyoHU/A07ZCpJKlepGp2p2pZ3hkWSNirKcwehrE8ahxKwTv7YC9U5d6NwK07gFRkQW8OXOr3AZr+5aZ74pyVACchUNne4FepcyO09qNzleQ65VBJHcqrxOroeamu0uMpaWptoHBuH+3QK7AWkV9hkt7dpHPL3pQBhuQCu30EOGJa3NnDGjyuUZBV3JiVhCkt7h0sKP4WdSor9NDnB/91WGPpYYhFciDPu2zI6jmKxm6sExOSWC2It5x3kfsDnRu7I/qf8A7BU8loHzlQamAOeVasPPL8DWmw/9E13Vifr/AImjb2fKX8aNtacp/wD7hRtLblOPvFeiQcrgfeKjgSJw8d0FYcDuqHEoMsp3GfVCKub1JUKwzrGDzJGdG1jkiHywIj4sOlNbQf8AiBXdW4/X/hWi3H6xz9lf1ccpDSyRA7ofvahMS+lQiZ9BTOzH22JpMpcLkTnEwYeRpTypHIOROXx6Gpk9Nt9Y+mj8Q6j5vKsvVXxjz+YG0LQI5CtRoMaBB41oryodKw+xkv71LePix3noOZrGruP2MPs/Zt4NxPU8zTHUegG4CgKt1CgyuM1TgOp5CsyzFmOZO8mgKUUBSYYrYG18shLpJoZOgq0TuYnuj9X2Y/i3/FAVEvsCgtBPZFFPaNBK0VgVssZmv5vo7dd3xarh3uZ5JpPE5zNaKwxQ94pk8EY1k+VWGFXWO3btAmSFs3kbwrVrbJgnatLW1mMpEZEjsg3HLPdXZ2CDGbIviuJzXLliTavOQoyPMVa41gEF2bS2lt4XTduTSv8Au4VDf4fcTd1Dc20knuo6k1i/ZTDcanSa5R0kXnEctXnXajsRLhuu6sBrslGZ95KCF3CjiTkKxggXKwjwwoFoj2TRFdg8SjucAFoA+u03OTwOokjKpZKlepHp3p2p2pmrHJ8Rs5wGu80k3r3fs1gDzTYRE88hc5nSTxAzo0QCCp3gjIihG1n+k4I3ZQnDI8qALsAASxNdk+zWP4ZCZheQ2iTbzBIhkrH8Nxy1xizxa+KYja2soOiBMtAz92u23aG2n7OPbJbXWucrkZYGQJkc+Y2EVbj07CHi4y2vtp8V51lV6vsW7dYxWVZVlWVZVlWVZVlswbErKDsAYJsMut8TK4FsxWQn6+rLKpEMbsh4g+q1Se0A/Xj51hxBnaI8JEK0QQSDxFHeM6tZzG4I4j8RV9AEYTR/Ryb/ACP9wTxjz+YFClFAaxupU60FFaRRXKkOVZaTWVQqMCwPvTuvbn70WnJAyPiPi/lQpFLEADMncKmyXKJTmE4kczzNKKApRSiuzaG9tr7DuJmj1IPjV3kHWBPBCNPmeZpVqI5bjSgUSAmQoJQSljLMAozJrFgLGwt8OTjlrl860Vors92Yaa3kkvg8aS7gvBiKtraG0gWG3jEca8FFXeGWtzfxXLlEkjzzyADPmMt5q+v8J7N2KxrEm/wRIMy1Ylden3sk4hjhDndHGMgtWtniMbx3VpbXOanUkiRtWCYkcVwuK5aNo5PC6kEZMONYjaLf4dcWjsVEyFCRyzq1sO6xtrd2VjA5BYcDpq7fvrmWT3mJpY2kKpGpZ2bJQOJNYT/R9cz5S4o/cR+4m96sMMtMGtTBZR6EJ1HM5ljUr1I1O1XuK2dn9PcIh6Z5n7hUnauwzIAmPxC1L2rtvqQyt9wq87SvPA6QxGJz9fXWsyE62LE8ya7MXavYm1JykiJOXUGjUjrGjO5AVRmSaS49MfEphwfh5ZHKuyNzh9ljyXOKSBIokLIShb2+XCh22wA//MV+2N/5Uva7An4YlBU3aLALuF4Z7+zeNxkyu4yNYpBBbYpcxWkolt1kIjcHMFeVGsNuDbX0b8Rnkw6g1iODz2V88TroU+0mfNTV5hp/RlrKJAc8xwo2b8mWngdBnln5fMYPPaWuLW09/E81tG+p0UAlug3/ABpP6UcG5wXo/wBC/wA67UXVjiOLSX2GI6QS8VYAZNzo+pnUftZp73Dzq3furiNujCr5NF7KPjnQORrwnd5irR1niaCTwvw+BqSNopGRhvHz6eMedDYNg9U7hlUfHOkjM7KIwWdiAFHM0/8AR7i0diZ84DIBmYQTqrLKhRGRob0rAMPW7uTNPutrca3NYjfNf3sk7+AbkX8tiioB3cbTHiPZTz6/ZSigKUUopRXZqcYffpeNw1d0PNv5Vi9p6Li1xHy1ah5HfSrSrSrSpuNKlBKw2zmld54ii+jjXm/CriV7q4eaTxuczSQvI4RFLMxyAFWdlYYGgusRdZbn6kKZNpq/7WC20pDbFnK5nWcsqwC/gSWS5ubmR7q6cjuVzIUVPJA4zgZCc8mKmsXxDC2vFivIHuVjB+jfLImsKvMBmxSKKXClhQn2JHlZ9/LMUAAMhuFdtLs2nZ2UpNJFK7qqFDka/wCtcVTC1s0dAVGnv+L5VYZx2l5cnxadIPxNEV2JsPSsfjdhmluhk+3gKkepHrFsYtcLi13MntHwoN7NVz24nYn0e1jUctZJq87RYldqVefQh5RjKjsNW/Z6eaNXkkWMMM8uJr/pyMcbh/uqfCzYg3VtclHjGe+o+1dyqZSwRueu8ViGM3WIDRIQkXuJWF/QXY/Y/nQb1Cagtml3ncnWoo0iICDnV9niWARXHGaybupPih8JqT2+z0f7ElGiaaNGO8U0C8sxTxMnq51nUJ1xyRdRmPMevLvIccG/OsR9qSKT34wdnEZVG+hs6u1FzbCdfGu5/n08Y86HrivrU3Gk4Vh92bC/t7oKGMMivp65Gpu2eGRYd6VnNmRujMTAk/lXZbstYY3hkl/fa3klkbcjZBKxO0WwxS6tUfWkMhQN1ANMN1QI0jhEBLMcgKxHLCcLiwyE5zSe3MR1rMago8IoUilmCgZknIVOQHESnNI93meZpRSilFKKjQsQAMyau/kylup3Qjeerc63sSWJJPM0i0q0q0ibjSpQSpl9AwSOAbpbg638q0VGzxBwhy1jSd3Kra3766jTqau1NxevoBZi2SgUUOHILW1Bkv5hk7Lv0DoKwPs2lgO/uvbnYbxyWnwHC5AQbGD7FyrHrKCwxee3tSTEhFJ2nxqG1CJOTEo06jGD+NSu7jJ3Zh8TTCpx3OCRLzlcsaYV2PxmDCb2aO7ISKdB7fQinvrdk1rcRMhGYYOMqx7tbbQQPFYSiadt2Y4JUsjzSM8rs7neWY5k0aOw7IMXvLcECTWOj76kxa8kYnviPgKlmkmbOWRnPxOdGjWEf/EDqmzMihqbgMzSQySHIKais0Te/tH8Nme+sDuVXEJLSY/IXamJvPkaMDQYTe20u54Zcvyo7HQP8DRaRWyJomXPSaEOTZ51IgcfGiCDkfUjcxurDkanQJKwHA7x6gAIOxPajZentCrn2rC2bpmu1uo4GrCcI+h/A241dQG3nZOXEeXzyeMedD1hsHGm40nCuwfZyAWK4pdRiSaX6IMPAKKh1KsAVIyIPOouzFjbSzvatc24n8SQzFFHkBXars0cBuUeOQy202elm4g9DT12XtUR5sSuPobVd3xari6e6nmuZDmzkgUKWrYd2jznivsp+8f5UKWlFKKUVh6hHedvDCM/NuVDNiSd5NYdh0mIPIkTKGRC+R5+VKtItItRxGlgNCIiljnvpkTNpH8K51fYTNYt7Y1Jl4xwruetWSaO9lA8CZDzNBBhEGs5G8kG4f5Yrs7Y9xZd/Kvy8xLFjxy2p2SsziM11dM0+ty4RuArtx8hgcMMIVIzKBpFMKK1jI0PBByijFEVIN9GmWjRo0aPqGm9pc+Yo1g/00o6x7cPQCJ35ndRNE0azp2Ky5g5EbxS4bc49hs15ZRazJBnLvAyZQQanwDEbZC7QagPcINE7GUHiPUdQ1EEHI+pJ7duj819k+ouxG0uGFSp/wCzPgsu7yI2rvBX7qByOdSj0ux1j6SL8vnk8Y8/muK0hyqDGMRgiWOG/uUjXcFWUgCk7SYwOGJXX2yGk7V40v8A8xnrEMZv8ShVLy6aaNTqAIG40qtLIFQZsxyArGmGGYXbYTCfb8Up+NM3TgNwoEdKAFXChAkAbwDNv3jx/lQQ0FNKKUUoqUdxZRQjxP8AKP8AwpBWEXXoWIwzcFBybyNYxZCzxORV8D+2vkaRaijypEpIj0NR20jkKqMSfhWG4aljHnxlbxN/AUQGBBAINX+EWqRSTBZA3JE61hWGlLXXIMmY5gMKjwW2Exmm1TSk55v/AC9Xt1bTTW1q8SO6oW1ZU6MORq0h7y+hXL6wrFH72/mPRsvuoipOJo0aI3UaNHYRRO1TkatbETq7MxAByFYdAbfEHjJzzjP5jYaguWhUgbxTXkjLmqAAcTSSiRNQonZh1l+kMVjgPhO9vIV2cjSOG8tolCp6OQFFE12qw9IJEu4hkJDk4+O0+o66qIyO2H2kkj6jMeY9RdqJrwCWT3JQp/h6jdRwNWU/dTDPwtuNXcHcTsvI7x5fOp4x57B6w3ihQOk1lzFA5UHqxtpL+7SCEb259B1qxwWztEAEKyNzZxmTUWFWgnSc20QkQ5oQuRzrHoZ4cWuGnOoufYbkVobLNQJDIwzWIavM8vxrMuxZt5JzNLSk1FHLL4I2fyXOocLu5P1GXmcq7O9lrX0Xv7+MSyMfZXkBWPdnLIp6Yj9xpyD9KWzwxONyW8j/AMUowtPqO/31LcWV9gqXIgLtbHQ2Y35VDf2o8Nmv4UuJr9W2QVYFXtI5Ai5sMzV5LIl2sUCKSwzyq0geJCZipc+7tkhlkuVOsd0B4fjQ9a9v7fDoDNdSBEH3nyFX2OzT3s8sSoI2clQw3gVZ4jLPM/eBNCIWOQpsbl5wQH/TRxck+1aQH/TTYrCfHYQGjf2h/wDl8f3/APFNeWB42P3NRuML/wDCSDyb/mi2FN+qnWimFH69wtejYaeF3IvmlGzs/qX4+1DRw+I+G+gPmcqOFk+G5tm8no4Tccu7bycVadmsRvCdEB0DiwIq57MTwxO/czjSM/DnVg0yfIvBJvOYOk1BbCO97wAgkEGsqy2LGptwh5ikiWJSATR86Ndn51gxxNe7WCldnG/9psnvxMtPuJFdrp1FnDD9dn1fYBtCE0UI4GjtdcxtifRKrdDUqaJXXofWsH/9l38XKQL94OY9Rd6kfaKFS/1qwEn14tx8vnU8Y89g9YbBSnKtxoJ8a7GxIb+ck+0I91KyJ4Rmaj1OC/2Cu2wX+qBPqahQ3UKWNzbJFGpZ5DrIA5DcP40mFSgZ3EkcA/bbfSR4bD45ZZz0QZCkxK2h+gsk83OZo41dN4SieS0b65k8U8n2HKuzfaJLLCzHfatCPkjjfx31j/aWLEbb0WzVtBILu1JSVFNIqMiuwVvEM9xqGraF55RHGM2NWVhPaxafScvhpzAqxsHiunuJpNZIyFB1Jyz3+tMZFhYwqGcDcCcs6/SmJQ38MV1HGglbhV32mvoLmWNVhyRyBmpq1jxbHPaubl4bQ+57OryrtJZNBcAR28qW8Yy7xiWDGn31agRYbeS8yAgoo1FWB404I8Qoim3+dHY+VGjR22d1HZ2a5TZE7zk2/Or3GppYdENzOMzvGo1YXcsKLLFcMXy3knOrK8usQufRppfYKkklRnV1evHMVKQSeaVFIk2+W0i0/DME0Fw0uNVm48pqJw48rlPtBow2LcLqRP3o86NnC3gvYj+8CK/Rsp8EsD/uyCpsOvI3z7onLoQa7Ldqms8RgGJ2824Ed4oq/wC1VrG8ggjkkOo5Z7hV7ey39w00xzY/cBsUZttkG7P1GTntuPaEb+8v4jaBmdtodNldEctNSjKQ5cDvG0HSQRTDJqsJAs5jbwvuqeIwzOnQ7vnE8Y89g2D1RsFbqArC79sMv47hd4G5h1FWV9bX0XeQOr/Dp5iri7hsojJcSrGsQ582NYrijYjfGXhEvsoh6UIDKNa5BeZO4CoVgDqiqZ3Jy3+yv8zUt/LqZIG7uLPcIxprMscySTS0tLS1c/JQwQe6utvM0lJSUlR2MiWKXeatG7aTlxXzrBrm3tTI0xIc5Abqs7mK8J7kkheJIoqAM3ahcwBvpVNJIkgzRgfVu5ngtnkjjMjjgootdy4pFPcxyZ94vFCABnV3LFa45NJPCJkDk6Ccq/6vQbvQ/uk/4rFe08d9YS2wtiC/Mmjv3Cp8oMCRR4pZMzRDNTI1FiNxp13alphzo5caajTUaPqIVVs2XUOmeVC+ZBpjjRawJru4v89egCM5mjbRBuGezfnRFEHa7srnSxHkatLid7mOPv5QGYA+1U1/cRzyIXDhWI9tQaN6r+O2gPkuVGa1bxWzL+69ILEt9LMnmoNG0if6K8iP7wK0cOn+oEkHVXBqa1nQb4XH2UfUcZbPFafFG/PavHbbf2C6/wBNN7USnp7PqcY/KgSrBhV+BLDFcj6wyPqZfMJ4x5/MDYKBoCgKArDQMN7NXF4TlLOdCeVNrkEaDN5G9o8zRVU3Z6m+HAUrsDVv7Ilm91cl8zu/nS0KWlpasYe/u44zwJ3+Q41PN39zJJ7xpaSkpKwKZJVmsJvBOPZ+DVFDJ6V6Npzl1aMqtoI8MsQpPDex6mpLf0mRTL9Gu8L1NXFprkRIokROJcAUqR2cZI1GlOpQciM+R2T38EGYLam6LUd9PeuywlIEXizbzVxj8MB0xqZiOLcBV3j8tyBGqrEhYZ8yd9Y8hGLT/YfwFOKbnTeyhPM1ii6La0i91MzUFpPduUt4nkIG8KKnieGRo5UKOvFWGRFOoas9LZU+4kV1FGjRpjmKO01E6xvqZdVI0cg1IBXZogYoQ/BoyKkyV2FFjRO+m4miazrOpctZqy3X0P74q+3Xs3752mg5FGQ0l3PEc0mcfbXp8j+PQ56Moozwt9JbKPipyrK0bwtKnmM69GVvo542+B3GntJlG9CR1G+mQocmBFQb1lTquf3bV47YN2G3PxK0m9HX4Z+onHLruo1Yf1i0mtzxA1LRGWwbD66eMefzA2ChsFQxtNMkaDNnIUVjiF5LTC7fhEgJqedYw0MBzHB5Ob/8UKFSfJ2kMfN85D+QpE1A0KWlpasvkre5m5hdC+ZpKWkpKSoJGikV0OTKcwaw22huZExMLlJJGN3Q8zVzai5MRZ2AjbVkOB2QxT96ZJ5s+iL4djusaFnIAFXeIIkPsZkuDkad6kapDTmsf334f341amY5GnbdvFFdcsadSBWNtneKvuoBXZS+S3E8Txye0QdaIW+w5U9rbdpO0M+syRJFGB0Z6xazWwxKe2STWsZyDVN4ql5Udz0aNGjtO2z3a6wE/wBfb9w/mKdixzNGjTcT6knjNWhyvIf31/OsRy9Pmy97bnR9TXmMmorsWR08LkeRo3cuXtEOOjCo54+8HyIBO7NTTQwliFlKkcmprSQDNcmHwNMrId4I2puwqX4yAVEcpR0O6iMiR09R+vXfVlP6PdI58OeTeXOsSg7i9deu/YNh9dPGPP5gbBQ2CuzNsJ8VEjeCEFzWKXOhp/8ANmbNz0HIbBUSGSRUXixAFXTh7p9PhX2V8hupTkaGUg6NQGVLS0/yWHQJzkYyH8hSUtJSGkNYVZNiF9HAvAnNj0FRxrFGqIMlUZAepe4qLabu0UOR4qnvZLp83O7ko4Cr19Mip7igUz07U7U5rGjqisZOtuB91MdxpzVmveX8Hnn91XpWfFHDvpXWFLdBwq2xTCLWBYYLqFEWprrB7iVZJZ7N3QZBi4zrtNZ2EMkc+HTRMHzDoj6sjUpzepOIFNxo0aNHbaKBCfiaaJG4qKe1Q+EkCkRY1yWsB/tkp6RH8xTXPtZKudG66rQnJbeMhT78/iKVzGdLVnQO8U+9jVucrmL98fnWI/2+bzpmAG+tZz2FmJy2Z7Q2Vbm4bfC1XQynbocjQYqc1JFLdSDccnHxFa7eTxoUPVaNsH3xSBqmglhwmMujBXkJB5HLZMrateR0tkc/U4w+R2XuVxhlvcDxL7Dny/4y25/MJ4x5/MDYKGwVggFh2eur1x49wqd2dgXObN7R8zQ8NLVj7MrSnhEhf7eA/E0KFLWstlnS0gzIArECBdd2OESLGPsFLS0hpDSGuyWH+jYd6S49uf8ABfUx2fucOy5uwWjMXYsxzY7yatzruI16sKvJtV1J55Uz0707UzViJ14Lh8nTWn40TTHeQawVdd+QeSk1cyE3crdXJ/Gi4NMakk6UB9Y0WBJPA0wNGjRo0aALMAOJqNRHGF6U9GnOlSTWFXLGaYLuHdHY6c+tSOO7CFSKjmUDS1OEkFHUm7OoiWNN4jUP08f7wrFd1/L9n5CnbM7MzXCtee0nYAazz40RlRFT71ibqmwcDUMLzyrGg3scqgw+O2UZKC/NjXpsjQ9zcKs0XuyDh5HiKNpB+kUUx5K2ZX7ORoqCNJAy6VeRLDeSInhB3bU5jru2Yd8vaXVr1XWvmPm08Y8/mB6orHD6LhOH4Ym4sA7/AJD8dVO2pyaFCk9iwc85HC/YN5/MUKFClqPLPfWHxar+EHeurP7Bvp5O9mdzxZiaU0ppTSmsFsTieJRW/wBUnNj0HOkRY0CIMlUZADbfY3a2ExilLmQDPJRV5icuITlpTko8KjgKD1hzZ3YPugmnlLMSeZovTPTNTNUp7zswh/y7kj7xTGmOdYJkPSJG4qopn1Z6qZehpkNEKvE50x1eVHfRPSiQaIo7YWVZgWO4VqDDMHMUTR3DOriQu5Ge6sDaKP0g5a/kzRkOgIOAoHUpBqVw5GyNiGp2yq2JDUxDEmklykXLqKxB9d7ISOn5UY6CUVFEEbF2kZUp2A0V5ipB/VYz0JGwDJawfL08Z+6cqaiM6xVjDHG6HJw+amhjEzQNkiBxzr0kSfTrq+NNbhxnA2Y6UylTkQQaByyPxpxk5rDZhBfxO3hzybyO41fwG2vZozyb5pPGPPYPWHqCsJt/SsTgi5FwT5Deax647/G7k8oR3Y+zcfxJ2DZP7EMEfRNR8yf5ZUKFCloVhT92LmQ8EhI+07q0813ilNKaU0hrsPYCGzmv5d3eHQnkKBDDMEEbMZ7SzyXbxWUxSBN2a8WNXl3Df4XFM7gXcR0MObig9a8qsX0w3MnSPL7610XovTPTNVoe97PX6f5bpJRNM2nhWH7sJu5OZz/KiaOVSedE0czTGjR2Eg8aYbY3kGYTOmllHiJ+6i7ueLGltmbecgKwuBjFd5EZCOjC1BHBp49IzzoZZ76yRfaFMdRpCQ1Dhxzpd8g86vt166+Wwnbl6h4HYuwHKtIkw+T3lcGgKzrsz2FwmDCLaa6gE91LGHZyTzHAVj1hFh2PSWFs5fcGROLZGrhhaEi5+SYcVfcfurELz0uXduRfDUO/WvVTsDFTmDkaE6yLpmH+qpbcogZTqU028KfhsxnKUWtyP1sQ1eY3fNJ4x57B80K7KIovprl/BBEWNO5dJJXObyPmfzP50KWkXUchxJq8YNdyZcFOkeQ3UKFChQqD2MGnb/MkVPu30jEDKlNKaU0jZVeY/Nd4dBYRIILeJQCqnxnqasMev8Oj0W1wVj9wgEVc300/ZF7vIxSvDmaVqDUHrvKifRhM7e+4WtdF6L0WotWB/KRYjD79sx+0Uz8hTGkPd9nJD7388qLUSKciiRTGjRo0a50TRPWo7cyDPgKChBkBlTZZZGgOQpzluFYXus75ukf8DRo1Lno2EamyQE58BSYLfumoWzZfEgVJby20hWaNkbLgRWZApPGPOsRP9dc/AVqFZg+u3DYh5bYN9vOvwBodDVvazXVwkFtE8srnJVQZk1gMHa6wwWO2ljw59CZRCaVtajkDkMqwS6nwftxPP2sTubm5jIhnPg+w1/SViuHYnilr6A6SvFGRLKmyE5TL55UdxI2pK0RGXDpTIsyZxbiN5XZ9PgHxgl/Bvmk8Y89g2D1RtFYcfReyuIT8DKREP/XlnT7o4x8M/vNChVl/a4yeCnUfs31mSSTQoUKFLU/sYPap77M9KaU0pDjo1DccjQalNYLZi8u9U262hGuVvgKx+7y7IBgNBnCADpnvrEuz8+FWYuJpYmBYLktB6wiC3xC1uLXIC78cTn8qIKM6OCHU5EVK2jBYB77k1rovRei1E5ca7Oz5YzGrcJFZKmBjldDxUkUTV0dHZ6Ie9l/OiaY054eVE0aNGjRrkdkS65VFMa1cjWWttxpEEYJypgG41YjRh18eq1kTRzFAas1POjE4J3V2ew1YrYXcq/KP4M+Qo1eWaXtu0Ug4jcehqWNoZXjbcyEg0kntr51iTA37+Qo7GpfD6xXOgpz22ozMo6xmiPar+je5wjDYru7v7yCG6LaEEjgELSdosHcZjFbL/wDjrQxnCZGBGIWTEdJ0rtjhmEY3g1xIJbT0yKMvFKHGrdy2KcmBqUZSv57TUTFScjkcqcCdNSjJxxHWsJ+WgvLf34iR5jf80njHn6g9UepiH9X7J2EPOaQyH7P/APqp90xHugL9wyoUKtfZWd/djP4nKs6FChQpTWJeylpF7sIpIJm8MUh8lNJYXjcLWc/6DSYTiDcLOf8A2GkwXEmAD2U1DAcT5WklLgOJ/wDg3/CpsKvrbBY7O1gZnm9u4YEfYtSWuISz4ZbXirNZW4BYqv5799YrhuI41jMuhClui/Jl9y5ChgmJf+Ekq3w7FbSdJorWYOhzB01jeGzXSR38EEgeQZSxZbwaxCzuUsbNBbTblJPsGjBMOMMg81NPqTxKR5itWdFwvxNFq7OYRNczx3pfRFE+Y6uRWK9lRMZp7SU96xL6Hp81JBGRG41ix0YTax+X4CiaY054UTRNGjsNHw0iFzuqNBHwoms6i8RpzlHRNQbsEuT1bL8tj+GhxqTkRzrCWW6wC30cYxpPmKZGHEVDGAhLAZVdx4HezSyd/PC7MTnlmKubeKC80W83fJuyfLKr9Sb9lA3nIAVPZXMH0sEi+a7R81Z758uqkVlQNCuNGjsm8efUA7Bsj8YpWKNmOIrCZFjxSGQeBzpariIw3MsZ+o5HzKeMefqD1BQ2Cl3kCu0sYifC7bkkP46iPyApm1OWPM50NlpY3U9jKYLeV9TquYU5czUHZfEZVJMaRAe+9L2ftof7Xitsh6LvoWnZ+Hx308p6IP8AihddnYfDZ3Mp6sf+aGN4bH9Dg0Pm7Z0naXIgQ4bZJ/orF+2F+L9kRLdAgA3JR7V4oeEyDyQV/wBT4r/4r7kWh2hxPneSUMdxSVgPTJiTuABqfAO00Fs0xvS4VdRVJ2zrszcz3F41zf3862cAzcs5yJ5CosawO8vxCktxrZ9IIeQKfuNY1hE11qlw+9nhlA3IHOhqwrEcUa9kgHfXEukjQ8pGkinxXE7eZ4pLycOhKsNeeRoY9iXK8lqw7U3ltI/pDtOhXIA8jWL4/iEE0SxTkDR7godqsUHGcHzQUO1mJc2i+1KPa67O4wWjeaH+df8AU+fjw6zb/RR7QWZ8eDWtYPdQXWFxSW0YiTeO7B8Jzomrw9nri7mLyXKOznMpwJrHbPA3Fun6RljyB4r/AMUcEwx/osah/wBQH86bszr+gxKyf/XUvZLEQBo7h/3XqXs3iif/AApPkwNS4RiEfis5/sQmpIJovpInT95SKNGjUUevefCKiheaVYoULOxyVRVh2IUwlr+dw+Xgiq/7FhYi1hOxb3Jf51LG8TukilXU5EHiDQbSc6dwwGVMwFROp7PT8iZP5Uxy40757O8zXKsNxiXDJTo9uJvGlL2msHTMmRD0KVivaX0qAw2gKI25mPE0TUW+ZP3hWIkjEHI3EZEH7KXF7xAPltQHvDOv0uJf7TaQSVeyWciIba3aJ8/azOYoVHgl1PbpNF3bhhnkG31Lh13D9JbyeeWYojI+vZ/2tK4aq4VnWdZ58aIy2S8EP7PqvudvOrJ9Nwo6kffWNppxaY+/k/3gH5lPGPOh642DZYR97fwJ7zgVjv8AW8TuY13y2wGkdRoAP41Z4bdXzZQQsRzY7gPtoYTYWO/Eb4F/8qHeaGNWFpusMNQn35t5q67S4jLh8SCYRBnZsoxl0FSXM85zmmkf95iaFChQqyGu8hXq4rEH14hOf2yPuoGgaDbsq7K2vpvaOzTkj94fJd9dqMS9AwSXR9NP8jGB1NYrIMNs4MLiI1J8pOernlXZlFnxyBvczY/dWDdqre2NzFfPJvnZ0OnMAGu0GJYRe2JmspE9MDAhlQq1EuWJfVmTmSa11aL3lxGvVgKxZZLrFRDAhd9IAVacZMVYZMDkQaL0WotRasPxi6wtybZ9zeJG3g1jON3c+B2k0biMXGpZdHUVD7U8a9WArtC/9bjXolE0TWtkyKsQeoNLiN5H4LqdfKQ0mP4nHwvJT576TtZiacXjfzSj2qkf6extJfNaOOYbL9Ng8XmhpJsAuXANpdQ9SpzH516F2aeMCK/uYf30/wCK7O4TY295Jc2t8l2VXSMly0Z0Dubyomu2cCx38cy8ZU9rzFE0/AbNOjs6OrSUHy3cRTIH3rWjI76yorWiioCCtNQj+sR/vCsS/t8n2flTcBsY5HYjsh1IxU9Qcqixi9h4Tsfg2+rjGpLqB454YSSMg4G8bLSyhuYXZ7uOFwdyvzr9DXRGcQSUdVapbWeD6WJ08xttN11H504ydvOnHteoDyNEU/0Uf27DtfxfYKU5EEVj/tz28/8AmwKfmU8Y86GweuKw3DpcSue7j3Ab2bkoqxwCytZI2Cs8qkZOxo4NbtiM2J5SPIuchjz3Oc+FYhjyY6TEijDSN3dRbganwm5h3qveDqtFShyYEHoauDlDbr0TP7ydmdJGWruTWRFYSurEofPOpX1zyN1YmgaWga/o6g14ldXHuRBPvNYjey3OP3l1ef2XC8xEnIvyqa4e4neaU5u5LE1gdvNKt3cQ3LQG3i1EqOPwq7xbBZ8KMUVgyXegASZDj141hsuEoiNei6Mytn7GWgipO1WGAZiQv8AhpILbG8UlFrlapp1AEcTWD4YTjgtp5O67slwSPFkavL2W0x154Tk8ZH5VjkEd7apjFkPYk3Tp7jUWotRai1FqB7/si/W2uAfsIqxGu/gH7YrHXzxEjooFE0TTH2RRNE0aOxEEa5c+dE+zXZPEkscTaKY6Y5xpz6NyoNm3mMqY12nxFL/E9MJDRwroB6miaJzShxq4Ons9bjq/89mdag+5qZCtSbwG2Py8tkIzuIv3x+dYhvv5fMU2x886G07CM6hnltnzjkdP3TlUWN3iDe4kHRxROZJqzhhnlKzzCEZbmPWrPAJ57uIWk0M+bcjV7YXFrcSCSBxkxBOW6pfWYZ2yEdTQo7W4L5bMR9vCcPk6B09fKsqTxjzoeoPW7KxquGO48TyHOoz7QqPdayfFlH512gjWLGp9HPJvtIq3xG5t9ySEr0beKTGYZhpurcH4jfUkWG3RUFxG2kZb8t3KjgQYZw3AI+IoYJdh/ZRX8jT2dzH44JB8dNbwcjUnDOsIbTeF/cRj+FA0KBoGv6PIdGDzzc5JvyFSWNpCJEEEecx1y5jPUTXa6G2tcfkjtEEa6FLKvANWFHuey2KTe+VjoNSkczWXNd4oSHPOuz10v6fgluw0yAHME58jV9f3EhvL9UhMTgxqAd6LmRWCYyLKd4J99pONMqn86xjDzhd6U8UL+1E/VaJrVRaiawU99ZYpa+/BrHmtYXvxOHzrFn1YnN55UTRNE+yKJo7CaByYGiaz3Gt9WXaTEbFAiTB0XgJN9X/aK/vkMck2iM8VjGVZii1A55g0av8AdhFmvXf6gcrWYZCFrfTsdRrM1akm7h/fFXv9um86NZU4JU1GdxHrODqpW01rFA6hWHsyX0LIxUhgcwabFryOeQiYsNR3Pvq7ma5kaVwAx6VGoeRVZgoJ3k8qOGSEZwuko+BqS3li8cbDbn/Vh+/6p8C7Jxr7MwN7k5H3j18JwPEMcnaLDbZpmTe3ABfMmr6wucMu3tb2F4Z04o1L4x5+qPUGzs1iaWztazHSkhzUnrSGp7qKzw15Z3CprH4A1fXZvb2Wdt2s7h0HKhQq83XbjpkPuFJI8ZzRmXyOVW+L3kDAiYn94A1F2inXxxxv+FDH7eXdPafk1TXeDTjIw6D5EflVrBhpMht5iCyFTv4A+dfoKJ98N2D9gNHAZ13pJG1HB7xfqBvJhT4fdx+KCT7BnXZsXNvdSXDyTw29qveuASoJ5CrO/a9soLlyNcsaucuGZFdoJTPj16//AJhH3bqS7mS3aASN3LHMpnuJrVnQNK5U7qHypyUe0eVYL2XxKOUXE0SINO5Wb2qktZcKsbtMRVo3m3IvU7znWqpJ5JdPeOzaRpXM8B0rVRfPYWrs5MI8bhDeGTOM/aKw2Iw433Z4xlgfszFXr672durn86JomifZomngKwiTWPKsjRFHKswBwrXTE0TRo0d42N1rFd1pZr0T+A9UHSc6DajvFOpBJ2WIzvYQPeFX268mH7Z2HY2aNQIIrIVlWW0xkHKhaukYleNgjcGI3GnzQkjgatJgLhCetSSKZX8zTZFTsVipzUkH4VHiNxH9fUOjVcTidw3dqm7fp57Hwy5SyMmjUgfLNT8KYFTkQQR6h+iXzOwHPsu6+7MrfmPVGz+jLGhhwvLZ7K6lSUhxLBCXrt9jAxntGZEgmgWGMRATJoc8TmRQ4jYPmuz93P6Ne5yuVihJUE56TVniiX1l6Dirko7kpMeKNkKv8Nnw6XTKM0PgccGoUu8gVd772f8AfP50KXecqaTSRprvTWdYcM4rs9ITSk57txpLqVPBLIvkxpcTvE4Tv9u+o8bvVG91I+K1c4/PhuAwWjxRma6+Wl/d+qK7J4/FcYKFeBCyOQR0rHJ8Pgxm5Saz8TlwQBz30JMHfijp99YX2asMWhMsd4YUByzbP+VX+BYTY4UtjaXSPPOdKFtOZPM1e9hrqzgMwvLaVB7tdk8FMOMd9OUcRISmXvUhDOB1Ndt7X0nCi4jLPbupT8jV/wB/c3HeeiSRjLLLSaKuvFWHmKgwqO9wV7i0dnuoW+Vi/Z+FZ1qrOreY213DLzjcN9xq4hEHaudh4GTvR9op31uT1Nb6I+IokBaJHSo2bWNABNTq8YVWC+Y2RLmczwFE0TTHaR1NZgUSaByrHV0ywKOUfrJ4qDEVpDeGsOGi/i651dHVdSnq59SWozuI9TOhSI0jhUUsxOQAGZJrtLfvJ2FEBwe6iJRAQ0Xsw5URnUCablPOn3u3n68M8sVq2iVgusbs93ClxJmGmeJJRVy1s6gwIyNzBrPOmVlyzBANfqh50AWOQqLfgl4BwUr+Y9axhinv4Ip5RFE8iq8h4KpO81YY/wBmMOs47WzxGxihjGQUSCu3E+AY72dnkiv7J7u3GuEiVdflS+IeoNg9QbMDOWH4of8AyK/Ur+8f4Vh+MmCH0W8QT2p5HivlU+CLPEZ8JlE8fOP660iss6qwIYMAQanOdxL++fzoUDpTPmaAoAdaGXWrAEW94f8AyqGeVCg1YRZ+nYnFE3gB1OeijeaxW+9PxKaceAnJB0UcKwXF2wm7MmReNxk6U+MYXiVk8kqxuY1Ld3KAG+yocHtsQgbvLJrKTcylX1Ag1aQx2VqkEWehKu7QXN3bTl8jAxOXWmYMpDAEHiDVglvYXy3MUIU5ZMEOQIq3ubGeB51nYJHvcEb1rtV2vknnNnZGQRxt7TvxehjF5lmk2fwKihj92OIjPmtYd2tuLC7WYQQtyZeorG5rRkXErSwhe1n3nIDNGr06wfxWGXka77CW8UMq+R/5rLB2+vcLV3FYz2theWc7M72xhfWPdNGys28GIIPMUcKjbwX8LV+hJj4JoWpsDuwn1Dv602D3o4RA+TCjht6h+hb7DT2d39eGU/YTTW868YZB5qaRWVTqUjYQa3Vqomjv2xpqlUHmQKxuTPEPJAKyDcKII9RfARWms9PCsMyfEI9fx3/ZUwPeO3Ik7TTjUtAlTQbUM/UFdl8ZtsCxb0y5tjPkhCAHwnrX/wCKNgdz2E9XRhlvJntkKQM5Maniq57hUbA3Cgb8s/mOFsR+16kV+6KEdVdBuyIoLZ3UCgK0Uhc7x4abCY7ZwFuY59Q3mPlUUEYtbiIIAhQZj/UKu7f0eXIb1O8eqDtXxjz+cwP/APK8V/8AoV+qXzP8KFW91NayiSCRkfqKtMVssTnhjxeDS+oDv46vcAlzeewlW7gzJzTxVoYSaGUqw4g8qLAGs9gqwOVvef8A0v40Dq86By2WZ9AwC4uuEt0e4j/d+tQOwGuzN3NPDP3zs+kqFLHOjJRei9a6sGywLEW66RWO2Jlj9JRfbTx/EUDl9amdSOBzrV8KwjG/QY5ra4QzWkwOqP40zAk5Zgcs6zrOsA/rPZq7960fV9jVnRNBaDsoyV2HkaNzcL4J5f8AeaGJXa8J3oYte/52f2ChjN2OLp9q1D2huFGkxxN5g0cfc+K2io4xC3jsYz938q/SVieNgv2AV6ZhZ42jCu8whv1br99acIP12H30bTCm3rcsB5/zFDDcPYZi8+91qLC7YTIy3QbJgQN1XuE+l3LSicD4aaOAvynX7qOCTjhLGaODT9Y6OD3HRfvo4Xcj9Vn9ooYddoo+QPtHqKexugSDC9G0uP8AJk/2msOgkjuizxuNKE7xWUg4o2XlRTpXDbKMjUR3EeqKzqIPdSCKHiahwWGIZs7s+VYhhrWWTKdUZ9YV+o/1bBDIeCGltHPHIV3UMfjfM0bnTFlGNKk5VhsoSR0Y+Pgaj8E37n/9wq5NvcyaDLpZdwPKpLKVN6jWvVfXXxjz24LhC3Sd/c74/qr1pLS3VNIgiA6aRWK4HE0LTWqaHXeUHA0ozrTtC1llWB//AJdig6wUfoV8z/ChQq2/tUX74/Oobqa0nLwSsjZ8jUeOwXMOnFbVZSdwlTcwFHA7e9BfCrxH/wDKk3NVzYXNkcriF0+PL76Gyw+gux/5WzPUPiKiRpZFjQZsxyA+NY/KEnhsYznHaRhPNuZ2A7qjVpZFRBmzEADqawOynsIJkuIikhfgemVZmtQ5tWtfiaMvQCoJD/0zdt1lUflTNmCDV7hssU7dxGXjO8ZVJHJF9IjL5jKs6K5jNTmKjheVgqgkscgAN5q4s5bWUxTKUccQaO6uwWU74tZn9fZnLzFE7ez0XZ5+zbm/MHf7+9L+MdNOxzkaJOzOg2oeoRsFHfWGprxCEdDn91X7Z385/bIoOw4MRQmmHhlf7GNel3I/Xy/7jQv7ofr3r9J3Y/XfgKOLXgjQaxu/ZFPjNyxzOj7qGNXA+rF9xqyxJ7iVw6KAqknKhjTc4R/upcc0HPud/wC9TYxDN47chqOI2/O3/AV6fZc7c/7BUtxZSJuhyP7grvrMHwfhXeYc4B0fgaH6OP8A6atGHdT+Nd1hx/WH8auP0fHujkYmj3B/WmsKFvDefJyanKEU3GsU7v0JhKcgxFGK1/zDWi1/zGrTa+8a/qvxrVbe4TRmtxuWKvSEEeYiGWdG8bkoFG5kPPKmkduLE7D9CPM0DVu7HCbtixO4AfeNkc0kXgcipbvvoirxrr9/ZkQAcjkfUXxjz24bkMOt9PDuxQ2S6RcShfCHOXln6go8K7P5GDEV6wGv1K/vH+GwVbn+sR/viiM5iP2qkbN/gKjzzzBIIq27QXtsml2E8fNZRnSS4JiX08cllJ7yb1qfsvNo72wuIbuL9k5GrS0ng9LSeJ4z3LeIURppTka7PwgX73bjOK0Qynz5VNI807yufadix8zW7rQIrsrYnEO0NnHwRZkL+WddoJMsauUG5VIAHkBWui9a610jZdlJfjcD8hWui9TxpcRlJBmDUi6JGX3SRUZ9ugxUgg5EUGXtHY6SQMQgXcf8xanUqSGBDA5EGuxV16JjHe/YfI7qxWD0XFLmHkshy8uIoGrJYJLyFbqTu4C47x+i86g7Rdm4LUW0NxCsOWWjumy/Ku0aYemLOcKkD2zgNkOCnmKY5n1IzvPq5daOzA0D3xPuoauDquJD1Ynbmdsn5bcMX5K6fpHXLdtDe9vFMvMbxskTdqqLemwyoPjRuD9UZbUdo3DoSGG8GoMbkNs5kiVinMHKru9lvHBk3AcFHAeud0CfEn1T9Gv27IDpwS4+LqKI5j1Ibt400MA6dDXd29x9G3dv0PCpbeSHxru6jhsTxjzq1sp7xsoYyRzbkKFph9hvu5e/l5xpWH45A7dy6LboPB0pGBGYIIrFcYitoGjhcNOd276u0bASKzJrszvublOsB/MVxg8m2CoT8qnmKb2biU9GI2ITTMaQ0lxLAwaF3jbqpyrAO1d5CZ4blY7qN4HGUi01zgOIbpYJbKTqm9as+zNtcTh475J7YcdHiqfA7UWE9raAwCYDMgk5kVIjQytG/iU5Gs91A12GiWO8sW5yS5msekzxy8/+oa1VrrXWumYDsn/+8/wovRetdYnCYrkv9V99I2TVnUFxJbTpNC2l0OYNYuIMUsP0jAyJOpAnjrA93pP7grtC3fSWt4OFxApP7w3HYHyouKL0d+8eqjah6mdHZgY0+kSdAKzrdWW1Rmwo86QA5g7LLdh123UZeqpIrQG8NFadDG2VZnYQRxGWzlsXdZOerZesdkm6KMfA+q/hTy/js8ODH9qQUD6xlcx6Cx09NgidNDFSAeBq6xaWZe7hAghG4Km0MQMgTl8x2ZbLFcuqGnXR3qe6+X57BSHJhV57F7Kv7ZNAb8qGwbMI3X6r7ysPwo12YxIWN+YXBKz5Lu68qxLHbKxMgaYPKm7u14502N4dek+n4aAx4yQnfX6Mwi8H9TxLuW9ycVN2ZxCL2o0SdesbV2UixGxntc7RzMGJijkGjMViU0kmJXLzpolMjFkzz0nPhWutVaq1U75dlE+Nz/CtVaq1ViUMko1gjSg4VnQkZaM1Z1gX/wAT+6Kf+tdlUb69pMR/pbaTszo76UathANHNTQlPMV3o5iu+BozDpRmahI1YU+WFXb89/5esm7M0OdDcacZMahAXBJj1b+W3KsqAoChk+47jUkIbc1C2j92lhQcFFXo9tfLY2x91nGOpJ9UnLdtn3aB0Qeq/EDoBsmOWFwL1YnYKPrW908RCn2k6H1R6+BPoxiA9SR94rEE0YjeL+2T+OwUniq/JN67e8A33jZnWZoMa1GsOkKX8Jz+tlUxKTyL0YiuzkanFPSZfo7ZDM32VNM1xPJK/idix+2s9lve3Nqc4J5I/wB1iK7J9qL+/ubO2uTHIjjpvGQq/wARwOfEbmK+sHjkSVlM0Tccid9foXBr3+wYuEPuT/8AoVc9k8Th3wrHcJ1ieri0urU5XFvLF+8hFB8qlf8A92IR/wCea10XovTEEHM0bWDIgIBUyGKVkJzy2Z12NuoLTEpJbqATxacmU1Fhgi9Kitjrsr2EtEejDeBsHqx7wdsni2E+rA5iwSQj6xoSMTWR9TghobG35U2SYCo95/47AKArKsqAoClPJuFGPLeN4pskQk7hVxN3z5gZAUNwJ23G5Il6L6nDaKuvp2HTIerJ4zsvPZt7Zf2c/mU8Y8/WHrWEndX8D9HB/GsbTRjM/R0z/ChsXcpNXe8xN1iX+VA+rA+ieNujA1fpliE4/aJq2PovZ26l53EgiXyG87BWdZ12Uxd8LxNHAD6cyqmru5N1dzTkAGV2cjpmc61VBfXFqc7eeWL9xyKg7YYpBueVJl6SJX/UeF3Yzv8ABo/i8O41LDgF7gkQjuprOMynTrGe+j2RecZ2GI2lyPPI1P2bxa1z12UjjqmT/lUySwvpljaNujLlWqtVSQxSHN1zNNZxngSKmgaHed461gJ+Un/dFYBjZsJhBOc7Zz/sNY5hslhfOSPkZWLRsPy9ZW0nOtYai4FZhvFupgR6050YNEvvGsvZJzqEkpWdZ7G3KooGjsuhpwe2Xqc6yrKsqArKsqArTSLprEpU8EZzJ8Q9QDMgVdn5cjoANoFHbEA0qj4ipt8z+fqIM3A6mmOZJoVim64RPdQD5lPGPP5xTkwrHiHurS45SxiuB2fUAq432lq37JX7jQoGt1ZGtJoZDiaxRs7sONwdFb8KxcejWNhZ81i71h8W2Z0Nlm5S7iI94Ctda61VHvJNE51M3/u5H8JzWsg5g1bY9iVpugvZgOhOY+41H23v/DcxW1ynR0r9OYFd/wBswXuz1gfL+VG07MXf0N/dWrdJVzFHsj3/APYMUs7j8D+GdXHZTF4P/hdY6xsDVzZXEKlbm3ljH7aEVg1s0cs5G8BNmN3Ut1heHy6yYnTJh+2Kz9bOuO+jQcisg3Cj6l+dFnap8M6J1kZClUKuXqP4qAojfSIGOVYkNFnZp+x/AUBQFZUFoIaCUFFADpV7MIbYkH2m3Cs6yDURlstxqnQfGpW1SufjsAzNE8hsyrKoB8sKJzJ9SPxZ9ATstI++u4o/eYCsRcSX8zDhq9UeonjHn649a/8Al8AspuaMUqT6Q/HfQpuNE68MTqkhH3jYDtU7O59LfDl98CP7jWNT+kYvORwVtA+zd6oYggjlUE4niDitVZ0rlczRnpiT2ZU//qP4VqrVWqs6JrOoMWvrX6C8nT4BzlUPbLFovFMko6OgrBO08F3NOL3CbR84jmUGmvSMBn8dtPAeqnMVFaYbe4VJa216dEb97qkG9Pyq07MwyM2u9jlQr7JiO/Op8AxGEkdxrHVCDUlncw/SwSp5oRtz2AM7BVBJO4AVa9lp501TyrCfdyzNXvZq5tkLwuJgOIAybZr5GivTbipyliT3UpPGPUjXNq4msqIqMHUKx6Mx3EMfux1pHWshQrfWVBa01c4gVYpBl+9UkjSNm7FjsO4ZVnnuNGrbIM7+6pO3gNsVjdTwtNDbTSRJ4nRCQPM7IN3eN0Q+qu5GP2bMGXO/18okZ/w3fjUja5GbqSfWFHYnjHn87Zj0ns5dxc4m1028KfhS+KiczUW+ynXoVb+FA1y9XAgGjSd+FoXc/dTOXYseJOZ2jM8KWCZ/DE58lNWtvcw3KS+is+g56XXcasrO8u552W10am16QQAKGB35/VD/AHihgF70j/3UMAvSMiYh/qr/AKeuucsH3n+VfoyYYT6KZYtXe688zlX6Am/8RDX6CfndQV+g2/8AFwV+g35XUFfoKXlcQfea/QE/+fB95r9AXPKaD7z/ACo4Dde9CfJqsbGeweWSbTk0ZUZHnRwi79xT/qFYBht2MUWFos0uFMRGoc6u8FvrS6lgkgOuJip3jlWGPe38AsJe+iuP1Mq8z0NT3PaDCrhoLqOXWvJ4qOOXD/2rDYpfOM0b/C5fp8LaP4xn/wD1QjwKX9bcw/AjOjhVhLvhxWPycZVguDC0uWneaKbIZIUNZ1nr867R2qwYlqQZCVdRHxrI1mRWYbjUKE3EY6sKxNs71vgANkMmfsmsqCmlXJWNaRQA6bIkLzIvVgK7Q5NiXki0FoLWmglBalkSCMvIchVzevcEgeynTaNoPI0BotXb3iBs4CjQ2dnTaHALI2Gj0fuVy01L2XPantdiowUwR2cUm+Q+CsYwW67P3c9neaNY05Mm8MDzGwbTujHxOeyw+Rw28n5nKMfmfyHzSeMedMpRirAgjcQfnOzjhp54G4SxmnQoGQ8UbI0my1P0qe9Gfw3+rHaXEnghc/ZUeEXLeMonmawfDoLbsrjLzXaZtoQAcRv313eFxcZZJK9Lw5PBas3nX6VhT6OyiFfpuYeCOJaOM3Z+so8lo4rdn9cfuFRYrexPrS4kB86ixa5nTMXM2fMazXpc28mWQn940rMRm7sT8TWqgn/u9Ow5TCtdaq1VnWdZ1vouFGZasMnMmJLmWIyOQp5XWRhrfcfeqG+uIZUkjnlVkIYHUeIrH7u4e8S8SeQrdRiTxc+dDErtTmJ3BFX/AGsxTEoII7mYO0PCQoNRoYvd++D5qKGM3PMIfso4zK3jiiNfpRW8dpEa7H4/YQTzwXOHRv3wBTzFfpHBH8eGOP3W/wCRQm7PSfqLmP8A9eZrtTNgt1iui1nl0RLozPWoOxc11hJxGByYMiw6kCjhsDeC9jNHCnPgmjarXDp4LpHbQVU51d2U011I6pxO7Iins54/FDJ91KGjcEoR5it9ZURkgrKgK0+zWF20lxfwrHG75OCdIzrGIpExObvY3Qk7tQIrTQWgtAVIyQxl5Dkoq8uzdS55ZKPCPmJDogjTr7RojLYaFdkuy03ae/aPWYraLfNLUHYLBbayNsEucj4j6S4/AECsH7J4j2XxSc4PPBNYTga47kkMCPiBXb+1xhMUFzi8UQEu6JoN8eQ2Da/EDoNk/wAhgdvHzlYyH8v4fNJ4x50HgxZAspEV0ODcnqe2ltZCkqkH8D83hU/cYlC/LVkfI1i8Pc4rOvJ/bH50vBtmF2VxeXI7iMsF8R5AGrrCryxcCeE7+BXeDUOGTyb3yjH7VCHD7f6WUyt0Wv0nDFutrZV+Jp8Uun/WaR0UU0zyHN5HbzNWzd1gcEPD0qR8/uy9XOoiBKhPAMK7RRLFi7hAFUqpAFRSGNwwpHDZEcDWdZ1Cc+zt8OjqazrVRas6G+tWXCiauHzfLkKwn/8AMYvt/KrgEXMo6Ofz2f2vs51e0k/+xqz67MNskvpzE8yxNpOjP6x6VcQS207RTKVddoJUggkEVbdprmFAsyLNlz4GrvtHdXK6IwIVPHTxqCCS6uEghQvLIwVVHMmrPB8ftOyxw5LqzEugouanNQeWdXlpNY3cltcoY5ozpZTRJrDCTckknILRu5tRIlcZnrS4ndKMu9JHxANDEZuRU+YqDHTLEDLbRPyNDELOQ/KWCDyyqSbCJG328qf+vOvRsJk8NxIlDCLR/osQj8jl/Oo+zc8uQhmhfMgCsLweDC7NLe3jAAHtNzc9TWIYLBi9jLBOgO72W5qeoqa2e3meORSGRip+ygtBaC1jMxNz3I8CAff6gG71ANTADmauCO+Pw3Cs6yz3ira0e6JC7gOLVHhcCjJtR+OdYJ2iueydhNFY2sM6ySa2Mmeqh/S5dc8Lg+yU0P6Xn54P91z/AP412m7fxY/g0lg+FaCdLq/f6tB+6jQ2KM2AonMk0iGR1ReLHIVjTj0lYk8MShR9m75pfEPPZBiYeLuL5O9i5N9ZauMLIj76zfv4fhxHzQORzrG/lreyvh9ZQGrLTrFDMnIV2bQRYSikZPmS9Y7cra4PI5y1kgID1qW6ln+kcn4cvVxCQ28eGJ/lxCT7zV2nd3cq8tWY9UGu0p1XsEnvwKdlpJuKnlSTAjI1rq2nzwe/jH7BrOs6zrMHfRbZqAqY5ymsNzF/D51fIVvp/wB81mRWBTKbuS2k8Fyhj+3lUiNFIyPuZSQazrMg6gSCKhnixyAW10Ql4g+Tl974Gri3ktZ2imXS6+rh9/Nht7Hd2rBZojmpIBof0h47zmhPnEKxXFZ8XvnvLvR3zgA6RkN1aqsSFt7l+i5D1MPfMOrDMUkQzBU5itO80FoLUDtDIHQ5MpDA+VYHi9rjVmssDgSZe3HzQ1imM2uDWryTupkKnu4ubmv+obgkmaGJ8zvoYnYy/T4cnmuVAYHPxSaGkwbDZ/oMRC/v5f8AFY7hbw4zcRpKkmRG8eQprWZfqUVZeII2MeW20SBpD6U5VNPLrUAQXDPvKJmRnROoknnsFYcAloh97eaYZUG61cKEuJFXgGNKM2A61I2qRiPUXcGP2bMJTO9EnKIa/t5Vcyd7cO3x+aTxjz2291Navqhcr+RoT2WJbrgC3n99eBq6w2e1GojXHydd4+ZtP672Zni4vbtqHlx/nQUyKNIzLez9tJHFhsOuTJpjwpcUu0mMkczoei8Kvrue8SGSeVnyBXf19VVLHICseOWJFBwjRU/Crs61hl96MA+Y3etit5DdQWXdvqeOEK+47jstPGfKs6z+S+2sOOdpfL1izrOs9hatxFFs6C9aeTNjVpKVu4SPfFYkSMQm8611G5jkWSM5MhBFY5GBercJ4LlBINmdZlSCDlzBq8xN721ijmjUyx/reZG0nbnR2R+xhUh95stmezD4SIS3vUilEJpSH3OPtowniu8UsZNLCKwmHu8OxGYEqRGFB86VWEoZiWzPE08eUjUEoJQSsbjkhxSRiCofIqeu6hcSrwc0L2QeIK1LdQEHvYN/UVptX4MUo2mr6ORWprWVfqZ+VFSniBB6Gl9m2ZubnL1MLuFeHuWOTLw+IoNluNXEiQRF2OQp2LuzniTnUY3k+6M/VbcgHXfstf6vh8svNvm08Y8/VtMQntPA2ac0beK1WGIeL+qzH/aaucLuLUFiuuP303j1+zU4TEjA3CdSn28R+Iyq1tPQjdmTgjez5danna4mLn7B0FClOq2cc1YN/D+XqKMzVmuu8hTq6j8axR9eKXB/bI+7dTDXYHrG+f2H1RV4iv2cspVUAq5UnZatuYVnRPyQ86wps2uU96BqzrOtW6s6zoeyMzTuSCaG+oxpkU9CKxeLTiD7+IBogis6BF/2cI/W2b5/6DXA0dtnAt1dJC0oiDczV3aS2U5imGR5HkR6p2XHsYbAvvHVtgjM0yoOZpUAGQFMCqqtADpSIQfZNIEYZOMj1FYNgEmLXZiSQJGo1M9Yrgf6CwGZRL3onkAByyoR50UOrfxpYt28iljoRjkK7WHRbWydWJ9UUlxJFvDmvTWb6RFapTAckfNCByr0UNvikDU8EicVOwZg5ikxC4QfSZ+Yqad7l9Ttmdg3Qn9o+oBmQBTnNjSLrcLV82i2jiHPf83HDI2TBDpHP17XELi0+ikOn3TvFC5sL7dcxdxJ76cKmweUJrtmWePqnGipRiGBBHEH1IZWhmSRDk6MGB6EV2shi/QVhiVsuUdzCA/nxojSxFcqtjnLo5OCvqId9YUNWKW/7+dXTa7yZursfxq19uUwk/SqV+3l6y3kJwB7Vm+WEupRstuLVnRPyYrBz/XwvvKw/CjuJGzOuVAgbyaadSaL6hu2Z1i51XEb+9GNjCsDnCX/AHL/AEdwpib7auIjBM8beJDpOzOjstL+K+hFniR/+nNzWr6wlsJ9EozB8LcmHrYj7Pcx+6m3CUDXLHotRx6nAphm5NBKRPboJXZTD8SSX0u20JCw0nveD12thuJcFt++QZLJqdo+Ao2xXeN46imiOvPKljoR0ErtluktB8Gq0nt+4aK4G4mroRLMywb05GgCTkONXtg1mIiTnrH3HnXDZAmuVRy51K+uRm6nYtzIn1s/Ou/jk+lj+0ULdJN8Un2GnidPEKSN5Dkilj8K41Lu0p7o9RNwZumyyj1Pn1OVXkneXLdF3D1gCeAJpopFXUyEDqRsiFuEzlLFvdFelRx/QwKPiaN1LIwBfdnwHzMNxLbtqhdkPwNJi6Trov7dZR743Gv0daXe+xuQG/y5KuLC5td8sTAe8N424dL+l/6PLux4y22UsdNvUN9h2A5EEcRU4AmJHBvaH27QawJtWKxfAE/hTyDW3nSyFZA44g5irxQLksPC/tj7fXtzvNZ0T7ArDH04jCf2sqn9i4lXo5FZ1nRNOx37cFw44vjFtZBtAlfIt0HE0exGBeidx6F/r1HXXaiwOGXy2pbX3Q0Buo2Z0CUcEHIg5g1jAE/c3qeGdN/wYbjtO39JynD2tJAJF3aS3FfVhXXOi9WFYg+u7b4ZDbgYzebyFRJkrNQSglBcsjSLqGdQdrbWGFIktJQiAKN4rFcdtLdY7e5glYSRZkDI7jS5oSVO6golTU27fRtmA3bx1FLHQjrtVerdYuUj8MA0eZ50oNQWVxct7EZ8zuFYbhCW+THJ5fe5Cu0gCi2VP2v4VZ4fHBGGlUNIevKmRHGTKCOhFXuG+i2L3sW6Nm7vLofWS5deJzHQ1h8kDX0Wtu51HSTy31iOHPYYk8bZFAdQYcCONOxkYtzPqNuUL9prD7E3c4Ug5ZgZdaxG3t7V0gt0VTGmTMBvJNGFzOYhvbOhh83PSPM16EB454xU0aRsAkgfYLmFB7NuufU0b+XggVB8BTzySDJ3JHqJ4x5/OW2LXdtuEmtfdffXpeHXn9ptzA/vx0cF74a7K5jmHTga7KzS4biRt7tGjimBRieh3GsTszZ4rPbMMgxzXz2t7dujc1Ok/mPUwA5Yln0RqzzOxvlrBW5xHSfI1v8AWhPt1nRPsLVs+i6ibo4P41iI0384/azobHYAmnNLx2YXez2GJ29zagtNG4Kr73wp+2MkdgZ3wLFRJ7pgOn/dXZIwY/iU1/iSI91vaNDwG/8AgAK/pLsbGG1tZ0RI7t5NO7cXXY1WH9cwm5teLw/LR/xrnR9VdJYBjkue81fYb3EYnt3762bg3Tz2CrBdV2nwzNTNrmdurHbb3D20wkjO8VGQ9rEw4OA9BKCUsW6kBSrSMT3MUfvuF+812lmWTGpR7gVayLVGuqB16UgKbwchWJ9toI5DFZ24kKnIyschV/2gxG/BDzaI/ci3DZgUYeeRzxVQBUMWo79y9a4AgblFXN76biyOfo1cBB8M9uOGOCyjtZN6RJqkA941rsP8uapNJdtAIXPdnUWgSDvASnPKtdh7k1a7H/LmqcwkjuFYDnq2JcQx4el5cQGfPKNQWIAPE1LdYXcjOCxMMvTXmDU8sehlFsEbrnstbgwkjQrDidVS4rPLIz5ICTyFYJighuWmuhmACEy96rm7QO8krjWTmRzqSUvK0nAk0STxPzSeMefzyuyNmpKkcxVh2gvrKZHDLKEPCQZ1irWON2y4oUMIbjoPgbnV5gGorNYXMU8cihgOBB5iprO4tvpoXT4kbqh9rXH7w3eY9TAv7c//ANJtuHkGV4W8Mq6ft5VoYFhpOa8fhsI2Qd336d9n3eftaeOVXHdd+/o+fdZ+zq45UpyYVnRPsCgcjWK/24v76q34UDslOYo8KFDechXZTszBgdhG7xg3si5yycx8BsvezeH38y3Lo8cyHPVC5jJPUkV2m7CLewPc2M873SDck0pcOOgJogqSCMiNxFMawq79Cv45T4c8m8jWJW3ouISxjwZ5r5H17DEZLJyPHE3jQ8DV3h8c8JusOOqP60fNdlj7PfSe6nqCsCkM+Gpn9QlKCUsW7OgKWOsAt+9xq2HRtX3b6vz3+I3EnvSN+dCOohoDDLiK7Y41PZ5WEHsLKmp32+dYBDK2IAoGMYB11kxO8ZfCsduxaWJjU5Sy7h5czss8QSZAsrBZB151h5iN2HmdViiGtiT0rGMT9OnfQdzNmT8xJduLFLTIaFJf7TsjlDjRL9jVLGYnyNeGP4t+VAFiAKgQBwPqRDU3nU0hllZzzPzieMefz67hWB3ixyvZzb4Lkaf3W5Gp4JLWWe1fNZImLLUGNXkG4yd4vR99LiNhOwNzaGJwc9cVXOEWU07fo2+RlbeiSbjkanwi8g4wlh1TfWRByNYDDK12zhG0aGXVluqWN4ZCkisrDkRlS0rFGDDiDmK7I3WGDAEdHgjd83n1EA/bWOvaSY5eNYZC2MpMeXD1UyLis6J9gVnV+2qK1k6xAfdQf2qJIpjnQ3igCah1I6upGpSCMxX/AOIeOpxeA+cVD+krGvcs/wDYf51Z/wBI+JvaXBe3tCU+Dfzof0oYjzsrT8avbo3d5PclQhlkZyq8Bmc9nBauf65hEN0PHB8lJ5cj8xbXUtpJrhfSaJLEknMneaj9jDJG985eovM12TOq1nTo4NCOtNLHQSuzad3dT3HKGBmoIaWOhHXb9IxhEBIGvvslPMDI57AKtoxNdRR++4Bq2t1t0CRLpA6VNdJbWsk065qgzq8unvbl5nO9juHQdKy2WkwsjHM8Yk9sNoPAgViuIJiVyssdtHbgJp0p+frxjNxnw4mmOpieu2I9/H3TeIb1NMc2qABEMrcuFTEwWYQ+OX2m+Yy9VPGPP59DnQYg5jjV/IL7DIMRUDvovYlNSppckeE7xs8cAPNDl9hqDEru2+incDoTmKTGhcEJe2sMuZy1cDUSJDGscahUUZACsbw830CmFAZlPlmKksrm3z72F1+OW6uzuEHHMagssyqNvduiirbs7hMFkLZLC3ZE9+MOfvNdvey1vhHdX9gmiCV9Dx8lb1JLSL9BxXUYPea9L0DkaDZiifYGyY68KgPuOy0/CiaFA5GguS5igcqzDDI7MNObTR+/GaJonOgKNYRKDLJaSfRXK6T58qkjaKV43GTISD8yn6PuezltYsncXusuJvfBq5tpbWUpKuR5dDtO4AV2MXOC5/fFac6WOljpY6w5O4wC/m5uRGKWOglYj2owvBp+7uHMso4xRjM12nx84/fiREMUEYyjjoDmaLVgwDYtBqIG+kjrtVN3OHJEOMr/AICgKzqNO9kCjcSauDqlIXwruHzA9mInm26oW0TI3Qir5NF2/wAd+xG7vJudPHrnIXmaiQSzhP1ce9quZu/nZuXAeXrj1cqQe2PP58HKtdYHdokz20++C4XQwqW1lsbya1Ygsu9eauP+RQNtN4gYW6jeKjsmBOh0dGGRINPDJH40YbMKxx2eK2mXUSdIesUxOe4uiuZjWIkKFNQY3fQcJtY6PvqHHrd31z2YWT/MhOlqsr+1ku0KYze2wJyYSOxAFYzg+KiWS2GJG/twdS/Lkqeh3nKp7K5g+lgkUDnlu24Z8vhV9bcwBIuxW01nnGPPYrk4bKnuuGouSKG1H3UV6Ud1Z1YPpvE+OYqRdMrr0JFAUTsR2RgynIg5g1iwEyw3ycJ19v4MPmb45Sog+ogFW2IpLF6PfjXHyfmtXtoLWQaZFkRxmpHShvNE5muzmNjC7kxzfQSkajzU9aiVXQOhDKRmCOBoR0sdCOpk7ns5bR85pC9BMqYrGjO5CoozJNXkwub+eZeEkrOPtNHIHaCRvFfpzEdOXpT1JNLO2qaR5G6sxOxEeRtMaszHkozNKjW6O0ilX8IBGR2Z9RWQNEEepxOQqQjVpHBd2y/9ruZPeSgMzROpt1OO4jY/XfICpP6rZ6P1ku8+XzedZ7E8Y8/7irFWzFXWeK4Ul2n9ptRk/wAV/wCONSb21Dg2+kdozmjEH4Ul/MiAtk4O7eK9KtZfpYMj1FYfBZPiFuVn7v5Vc8/OsawV7fF7pI5UkAkNPZzpxjJHw30VZDvBHnWo000j20cyOweP2CQcvKocbvoeE2sdHGdfpiCf+12ET9WTca0YPceGSa3Px3isLw+Cyg1RESM4+k6iscwxJbczwRfKqd4QeIUyshyYEHoaRsky+Oy1JYTxnnGfw2557AcqEpFGTUMiK3VA4SeNujCr7JLyQDrnRJPqYcfSrWeybiR3kf7wo7jkfXtl13CD41dPrunPxy2wxvIco1LMeAFEEEgjLZ2Cv2ninsZGz7v24/LnSx0EyoJWMjuza2/+VCPv2drO0d5f39zZiYJZxuUCR/Xy61nTH1+xuAWuC4HbmJAbmeNXll5kmu3WBWuK4BczOgFxaxGWOXy3keoTWYrKsjUe7N/d4ee2adZLeFBnqTca8KfE/lVrED7beFahHpE5kfdGm+p5TNKzfd5fM5+qnjHn88PUwi/NndDPwNuasTsxaXbIn0MntR/D4bIva1R+9w89inIg9KxhmGIGVDkJFVhl5Ul7cJwlJ899DE5eDqjCvS4H+ktl+yklstLqBIgcZGjBbt4LkD95a9Eb6ksT+TUbScfqyfLfWHY2bSAQ3cUmSblYCsZxSeHuPRm0o66w/Wlx+cjTPFDMv7S0LzC5x8tZtEesZpLLC590V+YuneirPAbhr+MW0kM4c6Rk/WrvCb60nkjmtpAUYqchnw8qIIORGR9TOhlRXfuponQZsjDzFX++SOT30BrP1IJmt50lTihzrFYlE4nj+inGsefP1M9tgMpWc8FUmvESay2RzPBIGiYqwoSW+KDKbKG55MODVcW0trJplXLoeRr+j6eGLGpUlcK8sWmOtIWlu7UvpFzCW6axnVnGJ7uGNd4ZxXaHtJhVvic5ub+BNLacgdR3fAV2n7dPfhrTCdcNrweU7nk/kNnh9Ubex3b+0gwiO0xgmIwARxyhCQwrtj/SFZ3mFy2GDl5DONMkxGQC1/RrhVlD2bivkRGupy2uTmMjllX9K2F2cCWd9EiR3MrlH/bGw7czTtkoTpvPnW6sh1pEzOZ4DjSxtLJlu31K24QRb8vxNXBEEAgXid7n59PGvn88PVtnGKYabZ/po96GpFOZzGTDc1A5HMVLxDjg/wCfPZf/ACljZzf+Xo+71ZvlIlmH7reewEjgcqE8o4SP99XGJG6wOCOSRDNA5UAqCdNFweKJQYaWyXKt1Qv3UqyRyMrKcweFPil4Ll3S8b2jnlJmfzpcYuJBlNDbTD4kUWsp98uGunxiNHDsPk8E88R6SJRwJ3+guYJakwa9j/Ulv3SDRtJ1kVGhdWY5AFSKsMOisYhkAZebmmAYEMAQa7S4KkGDWeI225CxikTo3rWn9dw6W1P0kXykf8R68JMdlM3vELtG2LEWEBhnUTJluz4ikYo4ZGKspzBHEGrzGcQxCBIbu7lmjTgGNZVYSGKZmDMAFOeRpmLEk89poj1Bs7D9iRj+d9f7rFDkF5ymrSwtMOhENlbxQRjlGoFYt2ew3G4WS+tI3J4SAZOPJqwPsfjfZ6e5Fhi8As3bNUliL1257O9oi5xC/nS9gjHGEZCIfu+rGN5Y8F30TmSTt9BJwwTKh8ekueBNHK2TIHN2q0QQxtcyctyjqaeQuxZuJrP55PGvn/c7W4e2nWRDvBrEYUmRbyAZq/iFMNJ6g8Kj9tWj67189kfy2BuvOGTP7D6tuw1GNvC+4/A8jTKUYq3Ebc9i89twdcMD/s6fu2AkcDQnlXhI4+2lvrheEpqHH8Qg3JOcuh3isL7X3JvIY7u3tJoy2RziCn7xQxXDn+kwwD92ShdYI/G2nj8jn/GseOGzdj7uOGaXRHIj5N1Jr0e0PC4r0KI+G5Q1+jWPhlU0cNm5FDRsJx9UH7at4rm1uElWM5qaxbC57WcSiBxDOO8jOW4g0YpBxjf7qKsOIO3CMK9PLSSkiFenM1Jg9m0HdBCo6hjV7aNZXLQuc+anqNjHJcvUAq2gtriHRr0T/HgauIJbd9MqkdOhqI6LWVuuS7Mt208B62Bdqez2F4BYwenxpoiVfA3i50O2mAHhisFL2rwJ+GLWX2ygUO0uCcsYsP8A+ZSv0zhM8ZH6RsXRtx+XQg1j9pBY49e29q6vAkp7sqcxpO8bbTDnuU1ltCcqu7N7UKviU8xQgkP1cvOu5RfHIPIVrjjAKJmerVIJI+zkE07nJ5T3affvqGJrqfI+ZPQVdziRxGn0abh/cE8a+fzo9fC7tY2aCffDJuNXtmYJWQ+anqK3qehFSb8nHBvzrCjree3/AM6MgeY3j1pCJYRJxZfZf+BrP1E47V9uxcc0cH7D6mVGgSDmDvFWGNwzRhLhhHIOZ4Gnv7ZFzM8f2MDVxihv2kt48xCVOQ949dudCRxwdh9tC4lHCR/voXk4/WGoMWur7CTYu4ZoM5Isx94oYlLzVKGJPzQV+kQeMP416bCfFD+VYNcxTWhWIaSjb12Y1LavdKkhzdFoJZsfGRRhtGJylP316Nb8p/xFCyjbhOtGxQcJwxo2RP61a9Af31qB5lTurkJNF8eIq/wuOOyhe1njdXY5pnvBr0GYDMgUbWY/V/GvRZvcr0WX3Ka2lyHsGu4l9w13EnuGu4l9xq7mT3DWGYFKhTvocnfm/BKvonlkCLHlDGNCA5cOv21ieF91GZowigeJQwojZkPeFZJzb7hXyfVjWqMfUJ82qwnSW2ULkCoyK1ityFiEaN7ZOZ+FF2biSaRQcyeA41GgYmR9yCsQneeC1i5KvsqKkIs7ful+lfxH+4p418/7oDlVpKMRtfR3OU8e+Nqli1at2mRNzrUe/NDwb8DVrMba6jk9xt9YjD3F9IB4SdS+R257IZAj796ncw+FSJ3blfuPUbSbf0MAB/SNW88sqU76Oy0ObvH76kepnRO3OrZwl1G3U5VOuid16H1redradJV4qaxGBY5hLF9FMNS/xHqYfNJDdqYmK9fiKmx+6OapoX4gU7l2LMSWO8k1wFZVuFE+oMyQAaunIm0gnJQBXeOxA1n76ntLiFdauZI/eU13j++3313r++3313r++3313j+8331rb3jWZ61GR3i6uGYzootrZZuAZpxuBHhXr5mg9XTKbSb9w+sATT+xkg5cfPYBqOQpED/CNeJqWTXuG5RwFW6C2hNxJx+oKdzI5djmT/cU8a+f91ikaJw6HIg1MBf24u7fdcR+NRzp8mGscOfwp1LKJB5NVz/WcMgn4vH8k/8ACs/VHy0On66cPiPUBpuJ2RP3cqt0NXC6J3HLPMfMA5HOr3fMHHB1B9ezPpdq9m3jHtxefMUQQSDttfZEsnurWRNAUT69qmcwJ4DfTsXcseZ2QXctsc423e6eBrVaXviHcS9eRqe3a2k0OQeYIPqwoCSzeBd5qDFvSTldP7fAE8xTSInidR5mr++WVe6iOa8z6yeypfpuXzo7EjJ9kf6jUqyFcljcRj4VaW4kzllOUafjVzOZ5M+Cjco/uSeNfP1h6mXzlldPaTh1+0dRV9bppF5a7438a9KVtJJHgbcRWHkM8to+4Sjd5jhTo0bFWGRBy9VWKMGXiKlUbpE8Lfgem2/hja0guoECIw0sByNNtm9uKKT4aT9mzL15QJLCJxxQlD68cjRSK6HJlOYq/QSabuPwS+IdG2ZdTWYjsNw3u1Zk1wHr/E1GdMEr9fZHqk0ia5EUsFB5mp7GaHflqX3l2KpZgBxNSsABEvBeJ6moV1zIvVgKvW13kp+OXrKpY5CnfPcOA3CiajjP/PQVbQrFAFRd53kmiCKvoi9sdJy07yOv9zTxr5/MDf6oPzVhfG2cq3tRNuZavrP0YiaD2oH4fyoyACOSMkOn4dKxHJzHdR+CYb/g3Oswa0+pE43o/gb8PjTqUYqdmFsLiGayc7nGpPgadSmasMipyO2M67eROntihsPrW7Z28yeTUfVyNbqsJlbVay/Ry8D0bkalR4pGjfcynI7Ln2RHH7q7CfmJfYgjTr7R9Zqhu5oPA5y6HhXf2tz9PH3b+8lTRpaeBw5YbiOQ2WA1XadF307a3Zupz9bwJ8W/LZHHzNPJn7K+H86TIoCOBFHhUzBYXJ6H+5p418/mOAoeqPmrC+EQME41QvxHSr2zazkDodUTeFqw8C8iksxxf2kHRqZSjFWGRByI2aqzBrKsjS/LJp+uvh+I6bIZWhlWRDkynMVfOtzI1xFG6o2WZI3E7YHCTKTw4Hyp17uRlPI1q9e0bTOAeDeyaZSpKEbwayrd1rMVqPqT/wBdtBOPpYt0nxHWoV1zKvxq4fXO5+NcB6xGyNdbhepq4fXM2XAbh6xOyJRvd/Cv4mncuxY1GyrIpZdSg7xVv6MyyyR5xHTpOfAZ02HyZZxskg+Bp43jOTqVPx9RB9Y8BRJYkmo4xlrfctPIZDko3dKisZpBnlp86S7jtAsDsWKjeelNew6fpFq7vO+GiPw8z1/uaeNfP1xxo0K7E4FBj+Pi3uye4jQyuBuL12x7EYTbYBPe2EHo01sNW4khxXolx6N6R3Evcf5mg6fv28vmrG9UIbe5GqFvwq5tpMPnSWJzpzDRyCr8x4pAt6ihJ+EwHBj1+FEFTkRkfUzoOQc6fTIpkCjP6wH51urDnW4gksnPi3oehp4yjlW3EHI1p+IrTUyl0SXMbxkfMVprL4isviK3da3VmKzoOQQRV2c5tfJwG+YtLg204bip3MOoprcW07ypvi0akNDeaJ9QDOs8uG239nXJ7g/H5hE1tlUjg5Ku5Rw2+DDfjI/4CldkOaMQfhUkrykF2LEbAbJuIlSlt7SRgFnIz6iruG3jBEFx3gU5Ddln8aVQg1P9i0ksBXOdXZuQHCo7nN9FrAqk86nuTbpoD65TxPSif7qnjXz9YUNvYvAMdubxMSwopbJHuE03hfqMuddr8J7V4lhhiE1nNAN7xWwKM/31L2lw5OwxV7WdP6r3PcG2fLPTlxyyy2GuXzdlfKENvcjVC34V3Rw6bV9JaS7j5VdRCGTQ51RMM45B0p0KfEHgRwPqo5RsxUigZMm9DUcjRSK6HJlOYq5na4naVgAW6bYQZEeIDM+JR8alt5oQDLE6A+8pHzDe3aIeaHTQOVEevZzpLgsljKBrlkDRP0y5U6mMlGGTDcfmW9i2VebnUfWFAEnIU5CLoX/UfUvPYWGH3EzPmfV8K7vE35VuT4tQzY5moomlfSgp3S0Qxw75D4mo/wB2Txr5+uNkeRdQxyXPeelWXbzsxaWkVtDdlI4kCKO4ek7fdnD/APMh9sb1/wBb9nH3HE4ftRq7XQ4bFj8pweWJ7SUBwI+CHmKzrl85ZX3cgxTDXC3EUbZDB3erVbPvjfnGf5U6yWsjRSDzHI0UDAtHvHMcx6sb6cw29TxFOmk9Qd4NHgKWN38KMaFpMfq5eZrALZY3ldypkGQHwq5SOa2kSXwFTnXdwc5ifJK0we+5+ysrfrL9wr+r/wDm/hX9X/8AM/CvkP8AzPwr5DrJ+FRdywaNS/tDmByrKD33+6lSA7jMR/oruov88f7TXcoeEyV3HSWL/dXoz8ip8mFejS+5RhkH1G+6ps0KAZjQPxqYC9t+/X6VBlIOo67dy+qi63CjnU7apTlwG4epZYeJVEk3hPAV6Fb6cu6Wruw7gd5GSU5jpX0Qy+ufw9S1j725RfjVzL3tw78id3qBCRnwHU08urgANlvA07ZL9pqSZYEMUHH6z7D/AHZPGvn8yD6hNAUfnbO+e1bLxIeKmpIYMStc4z7Q8J5r8DUkclvKVcFXFZrJ4vZbryNMpQ5HbFA8vAZDmTWUEY0Oxk38uAo3BjzVIkXmDlnUZmnilfvgojGeWeWdEk8STVtcy2kveQtkanxW4u7V0JVPeC8x8xG5SRW6Gp00TMBw4j1szVuXedVDtx61JdSa2CudOdWeJTWdwsoCPluKugIIq90ZieKKMwybxkMtJ6UZYeUJHk1fIHm4ru4zwmH2giu4Y+Eo3k1GGReKGjUPsK8nQZDz9QUAFUAcBsljS2s3MoBmdDpU/UHU/H1bX5OGaboNK+Z2qhc5KK9iP9tvwFMxY5k7Le1M3tv7MY4samulC91ANMfM9dhP93Txr5/N57AKJ2D52C4kt5A8ZyoPBi0OhvYmHCrm1ktZNMg8jyNLIRuO9ehrQG3x7/geNRLrlVTzNTzl2KLuRdwGxHHhfhyPSnUo2R2xvocHlwPlTrocj5iT24Efmvsnblu9SD5OKV+eWkfbQBNHIVaXCx6opd8L8R0+NXEDW8mk71O9W6j1A7LwYihcSe9n51JIqgI0anmct2+vkW99fxruQ3gkU/hTQyLxU7LSUvbIZNzHcM+dIFtFEkgzlIzRDy+JrEr32XXXqlfifVufkoIoOfibz2BAu+Q5fDnTSkjSo0r0GwVFarEne3RyHJOZq4umm3D2YxwUf3pPGvn81nWdZ/3JWKHNTkRUGIR3Efc3igj3qucMaEa4iZI6yrXkwLcRvDCnj7zOSPf1A5bQwZQG4delWvdJcgXC6kO7/mry1NrLlxQ71bZnri/aT8vmIfaDx+8Mx5jbZYckUYaVQ0h68BTRRsuTIpHQisSsFgHexeDmOlDrT5JbICd7HUaLbbeVZ4vRpz+4/umpY2hkKOMiPUiAL5ngu80zFmJPPakrp4WIqyurYXIa+h72MchuJNXMy3E5kU6PcRj4almucz3kshz5lic6PqWkQkmBbwJ7TVKxmlaR9wJrWF8Ay+J47YoXmfSgzr5GxHKSb8BUsrzPqc5n+9p418/7+vGrW+ktjkDqT3TRhtcQUtEdEnOrmymg3sua+8KVihzUkGhLHJ9MuR95aNsSM4mDj8a0MhyZSKVh4W4flVtIksXotyc0P0b9DU8D28pjcbxSMUYGnXSd3hO8eurFWDDlUygSZjwtvFWi6rqLcSNY235Bspc+lb3YAVOc5SBwXcPVidbyMQykCUeBz+Rp0aNyjjIja3sRBebbz6hidYlcqdLcDW6P4v8AlsimaP4r0NOispkj+0dNoXrup3W1sREq/Ky+0zHkOVE9dsNn7Ouc6E/E1LeAL3dsNCdeZ/vqeNfP+/g0DSuUIZSQRzFW2LfUn/3iri2glXvDHmp/WQ/xFegGTfbSpKOnA08ctufbRlpLthuJ+/eKd4XAZ4dOfNDSJCdyS7jxVqis58SmjgMibgQh5sau7G5sZ2iuYXRxSHUNB+zz9aO1nl8ETGv0eY9880cXwzzNA4etnuEs80beS6abEZdOmFUiXogqzxFJkCyMFkHXnRdVGZYAViN8sw7qI5rzPWoRpcv7oz9dJFvEEcx0yjcj9fgakjaJyjjIio1DNv8ACN5p2LsWPPaASchWsqoUNnl+Hlt4CozkHPIjKtOXi3VmBwFWsYdjLL9Gm8/GppTNKztxOyC1kn8IyXqa1wWfg+Ul68hUszzNm5z/AL8njXz/AMBzOyC6lt2zRqEtre75PkZffWpBfWgzD97F1O8V6XE/01oh+KezStYngZo8/tFC1s5D/bAnx0V+jzEQ0N7bt0KvTXFxf2vd3V1E8qeBtQJruZD4zbH/AFULGCRC8s0CkHeBJv8AOo8LwhvHi4j8oiakw7B08GKNL8BFpox2yfRQd78WejcTx/RW0cfxC5mpJ7t/pHkA+6t1RyaX3+E7j5Uy6WI6bCeWwNot8vfP4CiPXjnS4QRXJyI8MnTzq7tZLE9zKMmOTEjYql2CqCSeQp4HicrJuosAMl3D89oUmslHE5+VFyeG4fDZFE00gRBvNXMqhRBF4F4n3jUUEkxyRSaENva75m7x/dFTXkko0j2E6D/AE8a+f+C299Lb+Fs16HhXeWl54h3EnUcKmw+aIalHeJ1Whv3GgQDuzFalPi+8Vubnn8edDNGzpwo3jMqeFZjpWdB3HBjQnlH1zXpUnMg+Yr0jrHGfsoyI6ajECRuNGSHLIREfENWcPRxWUR5v91SBM9Jc+zu8NZJ7/wCFaV98fca0j3x+NaR7wrT8RWXxGxPZ9s7wKiu8gY5h3kZ5HiPKmstWTwPriJ45b1p5YbFdEHty/Wc07mRs2JJoDPgKyHMgfjWochRzI3nbHG0r6UGZoRMsZhtxmT45OXkKENvbb5n7x/dFS3zuNMYEadB/gSeNfP8AweG7lg8DnLpyoXVtc/2iLS3vpT4drGu2kWQdOdPE8RydCp+I2RvpcawWXPePhU8ls7uIY2jQ+EE55UVPmOo9UCkcAkfVO40wKkg7IvHqPBRnWee3L1ACxyFHN2CICegFR4ekMYlvXCLyXmabEZQR6IDEi8CONBra5P8AWD3L+8gzB8xUlq8Y1IokT3hvosTsGwAk5AZmorGRt8mUa9TXpNvaoUiGs1LeyybgdC9F/wAETxr5/wCEpIyHNWINR4lJlpmCyL0asrKfrC34U2HyZZxMsg+BqSF08aFT8RVqITIRM7IMtxHWprOWMagBNH7y1kp4HLzrQ3IZ1uFZ7D7aZ81/LZ4Yv3j6uYOwKW4AmkACNmwBNW98LWErFGpcnxsKkneVy7nUx5neaJJ4nZHK8RzRytemB/p4Uf48DQFpIcgsynoN9DDkcZh3A+IpoLOHxyM56CjfLGMreJUHXnUk0kp9tyf8GTxr5/4YrshzVip+BpMRmUZPpcfEUZrOX6SEoeqVCiIc7W7y/ZepLcTb5oRq9+M0MPnaPWoyOfhO41IksW6VD9ooaOYI8qCIeEmXmKELg5oVbyNNEwO5TT7zuByG4Vl6uqo53i1aT4hkc6y2ohc5KCaSymbhHl516AqfTTItf1KL35TRxAqMoY0jFSXEkvjcn/CU8a+f+Fg1mKJ2pNJH4HYeRpMSnXi2fmKGKkgiSNSDXeWL+KJk8jXcWT+GZ18xXoMJ8F0lfo+T6k0Z+2hhtweLp95oYS/OVaXCV+tKT5Co7IRs+uBpBn7HtCsrhPobWNPjmKOH3DsSQuZPWv0bLzaMeZr0BB47mMV6Pap4rknyFZ2K8nevS4E+jtl+2v0hKdyhUHwFPcSv4pG2H/C08a+f+LZmgxHA0JZPfau/l/zG++vSJf8AMf7676T32++jIx4sazPqg7M/8MTxr5/94J418/8AvBPGPP8A/oYf/8QANxEAAgECBAUDAgUFAAIDAQEAAQIAAxEQEiExBBMgQVEiMDIUYSMzQEJxUFJggZEFJKChsUPB/9oACAECAQE/AP8A48VOg9T4iNwlVRe1/wDLqNPmOFgAAsMOLoEnOgmRvEFJz2M5FT+0z6er/bPp6v8AbORU/tM5T+DCpHbChRNU/aLSRRYCVeGRxtYxlKmx/wAeWk7bCDhH/dpKSUaR0OuPEV+UBafWVL9oOMDCx0/iFq9rq1xDWrAXJM+oqf3Q12yghp9VU8wcXUn1YO6yg6stwLY1+GZ3LLGoVF3EI/xhUZthBwx3Y2lqCb6zngfBYKrKM1Q/6lSqzm5gi1x3N4eIAHpEfOxzNLaXAgoKovVaCulP8pZz1rDJU0+8ekae8OC+MOGr8o2OxgytqJUqLT3MZyzEmLWddjPqQV9QuZeg+4tPpw3wa8ai67j/ABC2AUttBQtq5tM1JNheNXc7aQm++FNcozt/qMSxu0vgBLgbSmKajMx/1KlbPsLTMRM1+0uF7axK+QFbXENEFM6nSWXzMq+YyC97zJ9xMh8zIZyzOW0yGZPvDYHSfjUxcG4nOR/ms5CP8Gj0nTcf4atNmmSmnyN4axtZdITfc4gXiUwd9hHcscQulzCb47YAZRfGnUambrHprVGen/sYHVOkeDCLYX8ynUdPjtDaqRkGsIymx0i1nWXpVNxYxuHYarqP8Et0pTLT0J9zGdm3hIG3RYDeb6R/QuQf7xChRdorkNm6UXudhCbm/QjlDdY6CsM6b9xE1BHUDmFsbmXi1FqDJU38ypTamdYCO8Usuqmc1H0qCNw/dDcQi39fE2iOr/EwjBULbT0J9zGZm3l7S+IWXtthTFvUe0JJNzhRpgm5lVlJ06QCTYRyPiO2NsUco2ZZlVyKif7EIsbdRUtqIKFQ9p9M/ewnIA3YTlJ3cQFcmVmvOSvZxOQezCGi/cTK6aic1KmjiPQIF11H9eEqsqr6pwxQEgHWWvAgXVoXJ+wm3RlMsF3hN8W0ULLSxOghvbKNplPiZT4mU+JYy0UZFzdztiB006hptcR6bBQ5wVGbRRBwrjVyBMtBdyTOcg+Cf9gruxttDUc7npteOuU2veAkQVnHeCqD8xAVXVTaNSWoL949Nk3/AK2lMtOWBKtAOdYvCKDe5gi2J1hsDpACxjIALwC+wmQLhceJn+wnMP2/4IrsxtA5XRdBFZ97mF2JuTrM7eZnbzM7eZzH8mcx/JiO7G149Zr6HSc55zWgq6bD/k5g/tEzJ/bCU8T0feBVY2F4Gyek7W1Ey06YBtqfMatVbRSAPtCjnW0KkbjF9fV56QbQi+o6A1oDbUG0Fc7OI1EMM1P+tbDAwKWhXzoJdRtM0JJ74BbwnsMBlmTxLRdAThUawy9fwS/c/wD50Ay8vEps/wAROXTT5m58CHiCNEFoSWp3PmUmFReU3+oylTY4ZmHecxpnuNopDAi09Eyr5mQwow7YA2mW+0IINj0XgJGqwFKujaGVKRT+jaYgS3vKbi8qcSiabmBqrEMwsPELsw12hPQBeE9ht0liRaHYCUyAbmHXqRMzASq2ZtNulKbPtLU6e+pj1mbTtimqMMH/ABkzj5DfoEU5WvHFiRjciZ2mYdxFKg3GkqAVhmXeFD0fcQWb+YlW3peHhwTdTpBRQdpUoC11/XgezfG3ss4XeCn6fxf+RKSIbqJbuekC8J67ZjYRiA3pmhhW3SvoplvOnQqljYSyJvqY9Vm07dNHcjyMKVQ02zCV6YBzLsegx9QG60cobiOhSxU6GZz3npMyX2MIIw+zSitkGNQWc/rRD+kdyDlUXJlKmKPqbVv/AMhJMAtqekC8J7DptgIPSubpKnAC5tK51yjYYhANXjVDaw0HXRNnEYWJGFEhhy27xlKmx6F1QjptLQiUiHBpmEEGxxDEThQGJNtY6hlsZw9W3oaEQw3J1/qJB7DWIgpA63J3OAHc9IF4fA9gC5tHNzp0hiJYNKQy3Y9sApMzBfj7KaMDKos5wBtKn4qcwbjfopfK0It1i4NxKpFQBhv0U6hpm4j8UzC0zedRFc7KYGKtePTFQZlhFv6eB3MvZf5x36Tpp1k4B/xMo8ew+igdzAAN4xJ9uv8APGhUyNrsd5Wp8trYjQyqLMeo4AkaiN5xtgIYG8ymewjpn/kfrT+hAwZbWMA6RBp1k2g84BbOx62YIMzbRnLeq2Fwd4VI9qv+0/bG0H4tK3df/wAxMfVVPs5lIC2hFunfTAGXNRcw+QhAqi439/MPdG36AYi+0uJZZk8GZDLQD2CLm2C6axeq9tIAAMzYEYBrQ+zV+CnAYU6hRwwlemFa42O2Bm9P+D7R1F+rfXCm+Vo10fSOocZ197KYWtAbjqHSPfHRtDt0AmEwYX6zE+PTqdoBacajkC04ZGVPV0qAd4VI631or00/xaZp9xqMDKeoYe1T4d9zHoMuvbpBsYRY4fOnfuIjFfUJVQfNdvcZrS5maKb9Ql/0w84NtBt7l5eNsZT0UdF80AtK1YqbCPWeobsZw1Zg2U7HG2IfsYyW1HVa9H/eFpaWiOUYMJxCANmXYztKPzh9jhKd7tjXTI9h07i2FFrNbzMtiRKb232lRMh9uwmUTKIAB7IxHugYiHAjSJt7TC4tNsO8Y+kxdhg5sCZzOIfZYeJCJ6rX8CHi1fe4/iMGqG9K5n0z/uIH8mCgi7v/AMl6Q2uYOKYCygATnVT3/wDoRalTyITWOxEH1H2hbiLfGCtUA1pxeLNr8sz6xP3JErUapsFMq0CqkoLmUs2UZt5VTPtvOU/iFG8TKRCJS/Fpmn3GogiGzCVBZz7HCMLFceJa79RgUysQAGHfBCGGQxlKmx/TCXxHTr1Do26zhfovAcVlT4mK6nQGVmqKLoIKlcm7LeXc7of+mHglbXaJwtJO15sthG4NGJY3h4NLaQqQbGARRFEUQCATKGFjKHCtRc5W9PiXAj0yzXvaWdDcm4l9LiNUy7bzieLq3y3nC8ZUsQdYONvPqvtGrqQRaXWmAHF7icyl4jmnf1S9GWozLSmSl5nLp+Zy08zlp5gQKbhoK4trHq5hYG0KKRvDTT+6ZU8yyeZ6JdfEzQkneDWmR4wBjDmLfuP1IxAl5eXwtgOkdOb1ZcT1VTso7wAAWwbaVKq0hrCedSzMJXLU2tTW33tGo1iMxBhRwLkGUuJemLCcPxYf0vvgceIQh7+YoiiAQCAQCAR2ddLylcrc4otlcYVaiNpa8RkKlRpKNMhr4GJ+JSy91wrDRT9vbsS+8YWNukw+ZR3t5xpvYyqlvUNj+qGAEtLS0GIhxPTVOWzYnqpepi+NfiguiRmLG5iVGVSBEp1azXlNcihb3jOhurEStT5blYjZGDeIjZgDgdBH4oDRYWLm5iiAQCCBxOaBDW0sMKLaWxpHMHMqhitlnIqeJyX8QU3GoEUm2uFB8jgx6PqIXaVKV6am85RhQj2DtpOUZY5QT1L4iGzAyqLOcUIYZTGFjY/qhgOJS9oMe0HQPPVWTOhEptdR11GA0PeKAosISBqY7vW9KaDzE4MncyvTYjKo0HeIGHylNKmW6m0qpWCEhr4cIuarqJ9JTz5oMOKbKlvMAiiIpMCdK0CYOFHmNw+QZgYK5j1GacP8W6kploqhdo2hh1o4lQYUEKkda6gr1t5lbUg/bEG0qDOub9UIRcEQcO97StWam2VYhzKDDBB0H3l9dQnxgQDCbCKQq6y+f1N8RK/El9F2gr1B+6UHLoGaHhqJO0AA6OJplwCO0VT4lOke/WtVlhrP5hYtuceG/diLmBGMWkBvid4PymGJF5cz1bTJCL9INjeOLHqGotH1RTiZSaxsY65Wt+pE4mqb5BgazEC+soVuYPvD0jz7DuE36yVQXlOsry8c7CX5p+04l7tlGwxPFvkCrpOC1qEnEfoOF+R/jGiNCelt4KqKhBOp2hpsMSOgi/SdVB6BgDYxh+H/ALxGB9aX7j9SJkU6kTlJ4nJp+ItNE1UYDoPiW66i5lIlJ8y9BMLgSrVLn7YU6zkgStV1sIa7WsNB08CwBIOI9+nRzi5lBMlQj7YpUK6TmmBrjG12nFC2Q/fCsltesi/Qmtx1jWiegyk1jKi5Wt+nGAgMGplgIx6F6uIrsGyrKFdicpl2lniqyVSt9DCjHvDSPmVb5iJTAK3aVHB2xDAL9+tEZzZZTp5VAhEtLY3Eus9E9Eyp5mRP7pyx/cJyfBE5Dw0yps+kNKmfiZSYr6SIiAPmHQAMtoFC4r8pxg/Dv4MErnS2NpboIxU2MYWNuql+Ww6RD60v4/UCaS0XSWJhsNIIMO0yzTor0CzXWUOHKHM2JGt8HYKLmVKqub2lSqCuVRLdS2vrOTSKEqdonCoVBjGlR0UXM4Zww1OuB395GRU1MqVVI9ET1JqbwgLqJUqkG1gYpDbqJlTxPRLJ5mRezTknsRDSqb2lWnUqpy7aw1Qot3jMWNzgMT0EYvrY9VP4NDv00jY28x1ym36oG03n/wDuAgtCx6h0ioM+ScQjvYCVEZN8MjeIQRv0ooZrE2lkFMqpiAtSABtPoz5lLhSjhr4D5YW90W7wViNAJTZibvMi9ZJB0lJ3LAXMes4Yic0HdRM1M7rByvJENNTswnIftrGpuNx0nDdOpPg0O3VV1Af9WuktsBivn3K4Is47TOMubtHY1XivkGm8SpYEkwkuYcFpM0NNaY11icMzanSJwyrrecPrTGIiakxnVNWMBBFx7qkA6wFTqIbwy+B6DKX5glb5novLwVGGxnOY7zOp3WfhnyJkHYw0m8QgiJ3GIxX8toNiOgYUvUpX9UJlJ9IjMBouPa3uEXFjKrsoNKI5S9u+DMtrKMACdBKdIk6wCAQYcP8AC0GBlLacZTLWIMDNw9Id7yk5dAxhh9ul3ib9B6DKZs4/mV/zD7F4cAxG0NRu8VxfaFV8w0zLEYj8o/zF3h6DKbZWBlZcrn3h7aC5jnILd8RG39ys4poWhJJueilQzi5iUgg0lIaXloBBhQ3YffFtouiaR6VZjciBKyiwBnDPUIIcQw+xTGkygw0xAAIm8NTxOZA8MuRpiYnyEr/mGEy+Fz1b9FT5S9oKjS6HcTJfYxlK0hfzgw79HbCp6qYb9TSsNTGN4ME3v7vGVcz5RsOjhVu8C2FhH0UymtlEtAMaelRh/GNQ2WDTG8HsWvFFhaHA6Sg2ZjgRCdLRWENjNRFhi/ITifzDCei/sGP2xVSxsIlEJCbixnLXOBbCooViBiMKPqVk/Un+3oHx9ys/LQtCb640+HeoLiUqK0xYS0q/GAS0tiNKx+4xqdsLS3tKQDrL3xdrmUANbQtpbBjfAGExIdYG1lc3cwrMst1GDob4jHh/ngZxHpAIn1LETPf5QoD8cTvKLZXBlVcrkfp1FzBqSeg7AdRHVx1S7BBjQ4VQt3Gspo1OoVGxwtKg1Alul9KqnFvkPeBPaFmEuTBTJlEWDfxChmUwrbDQawmCCDeVvmR7JwGOhpnHmsrXWUa4qJc7wuoF7ytUzmL3xDA6NGSwuIcOI1yv5H6dO5g+OIj7n3KfDhXLnUmVOHp1DdhEpqvEBNxfpOtQdVfQqfvj+73VS8taHA+JT+LYtth/EHD1T2jIymzCXg3lf5mX9g4DFPi2BhyEwi6+mUwQNcF36AxEIDC4w+VD+D+n2WHYYpv7YxrPlXTczh0vxH8XlLiVqtlAwrM1Ng3aDUXEGtQ9XEi9ODUYD5e4oucd4BbBNEaWxymcLSAGY74VKYqLYwgqbQHWVzeocTB1WgGNPv8AxhUudBMh8TK3iISDi256FMPqFxKGoZft+nbYCNvinc9ZlxMy+ZzF8zmp5nOTzOdT8wVUNQsx22gZAHZNCZRq06NMX3nPp+Y1SkwsTKFULemx22lOomYm8zL56eIqhRklLibWDDBd8T7ABMUW6O2C/BsDgZQa0BEYxhSc3JjIA1lN5XB5lo9J13Hu0vl7Db9A3gNpQIFQGOMrEfpiPVaXviPicdZrMp8zJfvF4dU0nKWcpPE5SeJykHaLxFAm1pxAAWyLqYaNZVvp/wDUoVguji8q06eXNsIKVNhcCcin4lThUYenSUuGpkHSfS0vE+kpz6ROxM+m8MZyH7OZVUq5BwXnACU3r65lnMfus5vkTnLOYszDpVbzQRq/iCr5xOAvyjLwnC8SpkMHEJHrXFlhi7iV/wAwwcTUHefU5vmoMqmmfgtsBwtRlzLGo1F3EPXS+Y9g9uk7ymfVOJFqp/SrqYBnBA3ECkzKBuZcDYQgaN36hDv0cQ2WkZw1PPUHgSmM5LmVzamZW4ZmsV8Th6dVWs20FsOxMokIlzND0vTV95SpKHI8YDEzKJlEyCZcACYDVHaVHYixFsBF2wOG1GXhF5bC0tLaS0T5CcR+YekEjaLxNVe8fii6kMBhTpK4JLWn0tTcaxqbLuMafyEO8PUdh0nDitSG8j9IiFzYQUlXWZcpBEoohXKWN/vH4d1+8sRG2A6l3xGHGn0gSkgWmAu7QCwsJVI0BF7xKdUPctpHFT9toOGeXammusqVbUrgXioHpZTOHYoTRftt1bVf5GA9kC2FRbiWggw7QRvyhjeEQ4HBPkJX/MMOBg6ldkOhi8VUHe+FNVY2Y2g4cj1AggR6bA3tG6j8ek4VdaaH9Jw49MMPyEqaNErOuxg4hW+YhFJoeH8GGkwljim/Txhu4EV2bW+04Ysad2j61FGIOFZSUITQynTVQE8SvTzi43EpVA69NTQqfaHQUBlgMLy+FXSkvRfEmXlP5iVfzDiYvUZe0vBKXzE+oqKTYyoxc5jFFzDQP7TeFGG4x/b0nbBtaA/nrvb3aFQD0mGMQGuYzXN8anyMBInMbzOYZngyd4AvaZB5mQzKZYyqARYjeGmFJAlFbIJYXv0bR+Kp7RXV7FcAAML41RdYuvUUsL9N+sziNEQdN5e8Iwo6uJW+Z6DoesrAIdJTYBhGIuegVnEd8x2wNFwt4R0dsN+HP89bC8UWHu0mNjFIb5xkKnASp8z1J3gl5mMuZlDVc57aTiaJapmBtKXwF8KtbJsLylVqO13FgJT4pXbLYicUxCWEO04I2e3nEuVax26CNLSkbjqW99IwI0OCjE9fE7gdQl5a+0oaVBKmrHoaL0jBB673wQeqHfrViF0MFbswvHKH44WnbBfyW67GKCD7tL4tP2xalhY7QpfVYu8b5HqTY9DGwiiwjLmECkGZiO8OsGglpUQuuWOlVTltvOH4bJ6m3xq0xUXKZRJAyNuMNMKObMyn/UsPMy/ecszlmctpkcdoVfuJlbxB0X6VGs4k+vqG0tL2nD61BeMNSegwaTfpdcwtOQfMAin1ex+3oWqQLGWpuPBhoBO94qjKRKiZT+kpfFp2wBI2me/bWFDv1Jseg6notLS0tLSqPx0GOkvHXMbjfoDZagHnEDC57GcxvMFV/M5zznEzmfac0eJzE8TPS8S9GWozJRPecql2aLQS4s0qcPzGvefRnzDwj+Z9I8+lefTv4go1B2ho1PE5b+JQQh7kTWEdDCL1Xi3c5Vi8Kq7mVqJp69uv9uGUzlmZVG8z6aSi1jaLsY+Vja8NMj2uE4UOM77TloBa04jhVtmSCWxAlrSl8WnbGn8xLkHSZ77zKDsYQRjT2boHQtiMbGZY4H1Kj7S0KmWt0Xw4i65XHY9FY1uZ6dsD0A39igL1BKx9ZlzM7eZzX8mc+p5n1FTzPqKgG8PFPPq3lGuXJuJ9WfEHF27T6pW3E56d1nOpeIz0iNpmp+Jmomfgy1GZaPmPyRsZ6PM4fIr6GGV7ZLGZU8yyeZZJ6JdIWTxM4ttDUMzmEnDtghPKbAMRtDUuNR7PD25a28YtbMbdVDYztinyEO8JgmYiaGWlPv8AxgIZbGobU2I8Tgx+CplpaWloR/7Q/iWloVBh0x+JwZM9NhBgxNjaGjWJzEayiXy+veHoX2OFF3vH1Y9TY8ONGP26SMGEXbDMJnxBINxF4o5TcSpVaodevt09sF0ot0rUI0lkbbSMhXfGnSep8ROVRpfM3PiUOLQnKRYQG4nEcSqCynXpvhw+5E/biu4h0Y4DAGEzl83c7a4Wg6K4tw7H7ThB+Cv8S0tLS0A/9r/UtLS0rLla/QJS7wYXl5fqBv18JpmPUMBhS/KY9Vry0IsesfA+wdh0nDal/vrzG1sCpAvKnEs2i6DG59jhj64dARiJU+Z6qXywGkB06HyNQYM2koKBTUKbi0tLS0tAP/aP8S0thXQnXx00e/uZpmmeZpnMzGcOfwmPUMBDF0oHr3hTzMggUSrv0H4D2H7dJwb8seyrke5QNnEqCzMMBBKvzPReXlE+sRtCRB08TwlIUTVXQyjR4paatTe4sNDPqeIp/mU/+ROPoto2n8xKiP8AEgy0Uf8Asn+MLy+Bpp4jCxtiEaojKpsfYGJ60OWgYGPT2xMOlD2bQ6CO2YwYv2HsP8uk74VNFUfpaZswMri1Q9FXt/A6kNmBlUWqGbL0ovNQ0id5TTIgXxg9NH+QvH4Cg2wt/E+krJ+XU/7A/FJVJIDaT68L+YhEXjKLbNA4O0vLxlU7w0ljIVnDbmA2jC3sX9h9KAwXboPRU0oqMbYWxtALSuw2HS/y613jbnoGNf5W/SiV9Sreeh/gpwGFpbCv8r+Y2gA6aTWcS8vLwYf/ANj/ABCY9Ck+6w8FT/bcTk11+L/9mfiF3AM+qt8lIg4mme8urC15RGVjgx0H6CtoiiE3gFug4gSuLIg6LS0tLYVWyr0pqwjG560Gsv0DCmMzASsbuf01TWiph3wM3pD7HAYjBxmCGObt0gxHzC8vLwG0zy/4n+peXl5eXwKKdxDQp+I1Bv2ORLpAFIsDBTB7w02hBHUOHJ1Mfh2AuNcLy2PE7gQb9A6BOI1tLdNpaVK1tFhJO/Snc+wvfpGHDD138Qm5v+mp+qgw8QwYLqjDrTWmD4l+gIx2EFJ/ES6A5hac1ZzROaJzBM3qvM8zTNLy+NoqEmfTVJynpgsw0i0XYZlGks4U59PvEeoRddRM7d1mZO6y1IzlodmlGjlN73w2nErZ7jv0IPUJxBu+CnthaAdCi5lb5YgS0tGIUXMeqW/jEdA0UnoGDXvM1hrFN1JwGPbCl6abN/r27W0PucIbkr5hFtIMKZ3H26Vpu2wg4ZzvChV1W+mt5bhx3vOZQGyz6lRsgn1bdgJ9VUn1FTzOa53MRlYTTEn1S/WSBKDXqwsQd5nba8LstspsJzqnmU3NP4aT6qp5n1Tz6pjuBPqB3UQk1SAhyzk8SNnmXix3BilXH4x1+0J4cNkzTkIdnn0x7GU6Dq4JlSkzMSBDScbiC4O2NtMbRLBheOQzEiWlsSQouZUqZz7DaKB0CM1hM5hYMNYpGWw6Tg3pogedfbBSuLHRo6Mhs3t0HyuDK65ahHmDCipLaQ02U6iLw7nfSZKKbm8+oVfgsPEVD3hcncyl8QPN+oSro0VrG8BvheH5YXl8b4OdZw35gjj1HD5U/wCMaa5jaMCpsehOKYaHWPxLNoNITC6F80BuLiGcP8pzG8wcRUHec94vElhqJzEO6y9PuJlpHvOWvYwpYRnvBVymCAS0tOKa7ZfYEffFKZeCgkrcN3E5YnLgTKd+gQwC5tOJPqsO3uJXuMtQXEfh9MyG49uv6lWpNr4UFyprKj5BeNUZtz0scuX7SqLOR1VtwcKTdpfDfWX6L4Xj7yhpUEqj1nCkdcp7w6aYqRWGVt4ylTY9JAYWM5CQAKLCXlHRWPRQO4MC4WgEtcSojIbGU6TVWsIBLSxlyO0q0yzkiGm0sR00wt/XEsGv0UdFhl44sxGBOvQMKA9d/Ec3Yn3UqMhupmelW+ehlSg6a7j2aXrosnjWWJ2ihaIud4azk3vKjFgCekayv85U1Ab7dTsCBhT3w7RdjhfC+F8CZTaziVzaoZeDTUSt8sw79D1S6gHfqviNKJ6KCaXgFhN95lgF4FjDUCBbGEWMtAJacUCtUmB28zmtBUTuJamZy/BhRhNoNF6KDgjLLxiFF4dTeDp7YJ6UJ/QU6709pejV39Jj8O6a7jr4Z8riU6fLzX7R3Lm8EGqnoEQXYCVT6zDrT/jqb8sHCmcO0p9+raE4KLGcStqhx+dP+Ommudst7SojUzY9b6UgMUXMbQCHQWloB4gtOIqigubeUK/PqbWtAstrAsAlp/5DRVHUHInNJ3hy7GZL7GFSMRWcd4zF9Th26BDALmVDZQPbynrp1np7GcyjV+YsY3Cta6aiWI0PQIKxKsGxp7289AlHVxHN2Mp6nL56g45eXvhTw7Sj8ukQuJe+PE/IH7YGUCM1j3jLY26adVag5dX/AEZVpNTNj1V9LDHhhdjANYdTLQDWWnG1aVsjb/acAUFU2lxCNZaWl5/5E6rKbplytKmUGy7YVaRS2Ki5hNzfAORM4O4mQHYwqRACdsG8dAwpiVDduvKRguW2szgbCF2Pso7IbqYOJDaVVvORTqflt/ox6Lp8hjlz5SO4tDgI+/Rw2tQQmBrG8qj1X89aYdpSPrEbQnoJxdsqkznve95UfPTR/tje0r+qzjv1c9uXkOvSguwErG7nHhBqYo7y0tLYN/452JJaUOEd7sh2M3mxmcS8vOMqZ6mnaCLSd9hKPDhP5nG6ZQJTohRc7wgGVKWRS46g5EpMucdpVpGm5EJvr0Ha0o0s5lVFQhVG0ym9oKTTl+TGAGxwzqNhOaYWJ3/QU+JqJ3nNo1Pmtj9oeEza02vKSul1YfcSqlqhA2OoxOqg9HC/mYn1U7+OtN8O0Q2YSro5xJhMGDAEWM5OtswnFXXh0C7Th2Y3GBlP10ynjXrG+srUMgzobrjRF3jG7E4o5Q3EXVQR3lpaWgEqHKpM4FSKIPmbQmxBhsY/GZTZNZU4io+5w4QXYmKuD1OZVB7Y17BMpl6Xgw2vpFtfWXpeDL0vBjZf24B1CZ2F+0Z6L/FbGMRa1sEfLGrsTecNWytmePUFyTCbm/6kEjUQcTUtlOoihKlMFztPpi9yhj0nT5CJrcdHC/M/xjQtcr5hFjboW19do1rnLtBh2w4j5384t0Vahc/bBa7ink7SnXsbHAyi+R7ysmRyOujXakftKlBWHMpbeMKOl26eEOakPtLYkzi3tRaURlpqPtLxtZxVYj0jo4NSamm2HFVMiWG5wp1gwsd4lr3Mr1s5sPYLnJkwDX0MItO2CjX+Ixub/qxKD2ax2MKlbr42icXUXvf+YK9F/mtj9oOGVxdW18R+GqpuMOERi97aRlKmxggNjecYGNTNbQ7RL5RfpGHbCsbhT9pfWXhONoaCTkJE4RGRjfafTr5g0GL/AIlIP3GnsJUambrCbxdKRPT/AOPPoIl8CZecabqE8mXhMvOKIyjFFzMBEUKLLHqBFJaVHNRixxRslmtK1UVDcC3WNTDivqFjDF0F43pW3n9YJePZkFUbxhY4br/ESvUTYwcUH0qKDFUKLCcVQNRbrvDSdPkI7ZVvDVdhvKNQtoeg015Icb4Aztg2tJT4h6by+FDcj7S+Aw4Y6lDsYylSQfZRAyhSbX2j02Q2bo4E+lsCZeXlY5q6L41hMvKlYLp3lSoXOPDW5ogE45rUwPOIFzaPv7GwimxlQWY4A21hFzALm3YR2zG/6284dxcoe8ylGKwZG30i0j2NxCrLuMOG4wkhGnEV3d7bWi8VVXvec+m/zWBaHyX/AIYvDMwzKI9J13GND1UnT/eANp2wB/CIl+gGWxomziMLEjC+AJBuJxNmAqDv7NbcCJXDDJV1Eq08h0Nxjw9flmx2MzS8vLxTm4hj4EvLwm56fqav90LM2rG+K6C/snCrrY4n0iH0Jbuf14NpU/EQVBuN4294CRtBWYCcym3yEQUwQynaNSZyW8w0nHaaiXhYlQwOoi8VVXvPqUb5oJbhn7kShQWmtxrfvOLoArmUawi28B0wp63H26bzNC18EIDAyto5l+ih60akf5HsUxdhKhuxxVS2gx4apoVMvLy84bXM/k4VKhJt2wPWxuYrEG3sDzizAqBgg7mL6jcxmzG/9A4epkax2Mq0+W2XtguumAnE3FTMO8FVx3grt3nNQ7rA1KxEyJ2aco9iJy38ShxfLXK4nFcQy5cmxg419mAM5vDv8lt/E5dA/Fv+wcOyHPcEQ0alr206yIVI3lbUg9KOUYMJxCjNnGx66O9+gOUNxMyV9G0aOjIbGUCA0vMwlRrITKLLTpgGPVLdYxamfkIqWNzHJvaUz1E9sQIAWMY/tEf0jL/QqZFenkO4jA4N5wraojfbpbUZsLwOw7wuppDzLy4wUgG95z3U+ltIOKc/IAy9Jvklv4nJonYkT6Qn4sDG4WqO05b3sRKNBaQ++HFCzWHbqp/iUyncajrXRCepa9lytqMCxOhOFLQ3hN/aZrQkmBiIWBikbDpHRyr080PoEQWGcwm/9CpuUa4lZQw5i94RBrpgPVQI8HpQ9j3hFjbpGL6qDiHYd4KzjvPqHlOuzMFva85dUbPLcQO4lYNe9TuJkp/3TlL2acg9jOQ05LxFdGDAStT9Zy7TKfEsceG4fm6naHhaZXLaVaZpNlOB6URHFr6x0ZDYxdFJ9so28yGZTMpliINsUolhePTKaQKZlHcy4G0NxQDN5iguZUa+g2/onD1QvpbYyrSym2DeZw+pKeR1N6hfpGI1Q/bpOFHi1YWfQw1kHePX5pKjbouZnbzOa/mUnLqR3nPac8+Jz/tOavicK6smkvOKamXsZakZlp+ZkTzOUPM5Q8zlfecoxC1sraiVKQy+icppy2nLaZGhRpkbxMjeJlPiZTKPDkasIwvK1GwzDo0mkuPEpMGWV3sLCXggF9TKrlgoh9C27/0am3OTIdxtGW/8xfEptkcGV1yuelWsYRY2xumT7wY0tyPPReX6KZswjizEdSOUYMJXUA5l2PRRZlfSNxlTYQkk3PsudbTMY9N11BuJczMZmMuZc4DeWyr9zLxyMp6zppiBf+IzXiDKMxhNzf8AoysVNxG/FXmLuN4bHUQi4vH9dIN406h6hbuOtTY3jizH2au9/PXS9ammf9dFPS5xv10xrCbnBKjJtL06m+hjoUNj0qO5iV83yhIEq1b6DqGmuIEa+wEppfU7R3zH+kUqhRriVUFuYm0Bt/Eo6k0z3hFjY9INtY3kY1lUorqOh9QD7La0wetWKm4lYA2qDY47U/59ofEnqAubRqTLgBeMewi6kCVDdz1CE4ARFAXTCqLrp/SqNbIbHaVaeT1LsZfYiVtbOO/Up7GEWNsOHOcGke8ItpiuqkQewmqkexRYG6HYxgQbHCppYe02igdRi1GXaZ0f5C0YBNjhSF3hNz1bDACFoMG2P9Lo1beltpVpGmbjaUiHUpDobHotgPULYKxU3ErEOc4GmKGxhFjb2KZs0II06L9D/iJm7jeKLmObsfZAubRzc+wB3MJvBYHWJkNyNIaJ7awgjfoGAHcwm8FJjBUCekw1V8x6l9B+tdrCI5JsfepVRbI+0qUzTNxtHUVFzjfv03l4bHXCgQ6mkYRY2OLagHrvLmVN7+fYpvkN4UyEsNvaTufYAvCcdqf8wEjaFid8PwzAiHvHVR8TebamBl/dA/ZBGfKLd/1oxZgNDEKgzKc3vUqthkfaZeSb7qZUXKbHbsYRbpBtCO4isVNxKj52ucV1BWMjLuPYOqezT9VPIe+0Itp7J0W3sHTToqaWXq2wCk6CEhBYb/0EoxnLaBGiXtr71Ktl9LbTIMtv29vtCChymWvqOkGEWwAJnLacGgBJO8cBlIMsvmWTzPRPRPRPRPRFynQSyeYAnmZV8zKPMyfeZDMjTKfEbSw8RvxFzDcb+wBc2jG56KVG4u05aeJUpZdRNuhBdgI5uxPRaFsEUtCwUWX+qUqpSFVrLpCChsZcGHTFULT0DQ6zPbQCDMwJvtLxKjIbrH4h6ikewDY3jix60uTaGob6GJVZTeVLfIDQzMviemWHmZDMpwXS562AVTffpTQFsQLzQQm+CJfU7RnGy/1ZHKG4l0rix3j0yhsYDLX2ii5tHe+g2wB7GEWxU2MIsfYOqg9a6AnGm4GjbGOuU26LmZzCRsRPTMvgwqRhTYlReCyaneVqmlu/S+ihcLW3hOIQDVo7lv6wDaJWDjK8egV1GowvCL6jG/mJlDeraVaZQ4bj2F1uMaVEKLneFQZWpBdVwOijoRgwyNGUqbHoXeHEMRKbrm9YvHYMbws/c9NMXMOpuZe22KqW2npp/cwsW3/rQlOqyTKlXUbx6TJAbTMD8pk8SxG8B7GIwIyP/qOhQ2MBtCOsG0beU/kMavwODnXpBDjKd4QQbHHYW6MptebYKxEIB1HQSES3c9C0+7aRqnZf68DaJxHZo6Kdbf8AJyb/ABN4VZd4KhhKnUiAL2MyNUIUmMjIbEQa6dQRm2E5NvkbT8ML5tDWOw0lOsGFjvLiVqob0iLob9YIqCx3hBBsYBCb9F7adAlsEF9TGNzfBULS609tTGYtv/gKVGTaXSpvoYeane4nMU/JYDS+4mSmf3QUrahhLllsx1mU97TlqdSROVS/unLpf3TKg2F5mYbLaFnO5wB1hFui9l9gMGFmlRDT0OAF4UINjL42mkvgoJNhHI+IiqW2mVU+WsaoT/gqVWWXp1N9DGosNd8bjDaG0vhczO3mZ2mf7S4IvaXXxPTPTDaaeZYeZaW6B5i1OzaiGlfVdoWWnou8JvjfoAJNhApAyrMqJ8tY1UnQaf4StRl2mdH+Qho31Q3hUjfAHzGKkm0t1A4r7Am+ggpBRd4ax/ZpLo3y0hQjbXqWkTvpM6ILCNVY/wCGgkQVjs2s/Db7Q0T21hUjeJlv6o1MjXcTSWPRuMO3XaDaJVyCwELEm5xDEbTmX+QnoM5QMKou5nMA+IhYnf8AxIEjaCs3eZqbbiKAPg0KZvkP+QUWIvCGG4mksPMymZTD1hyOgC8FNvE5VtzPwx95zfAhYnf/ABkMRtBWcTnnuJeme0y0z3nKU7NOSexnIafTnzBw48wUrXuLz1D4rOU5nJacodzMiDcz8ITmKNhOaYXJ7/5JeZjM7eZnPmZj5lz/APF1/8QALxEAAQMDAwMEAgMAAgMBAAAAAQACERIgMQMQITBBURMiMkBQYQRCYCNxM0OgUv/aAAgBAwEBPwD/AOeIvDcoarT/AK57qRO+k/sVIVQ8qtvlVt8qtvlVt8qoeVOz30hVEpuoQhz/AJ4vAR1h2Ti92+mypek1ekRjlCjBEINaqG+EGCeQvTb4XpNXpeCn8GCd2agAgoPaf8yXAZXqjsp1CvTn5FUg8NTWhuNjpIaXkpoAEDasn4hUF3yKoLOQmvDsbnbUZUFEJrC5AQIVIXp88KHhVxkIPB/yE7FwGV6vgKHuzwhpNCA2cZNIQAAgWuqJgBN0gDJUKFyU5k8jKa8zDsrlSfCBUqVIVQVQUhSgva7hUEYKrIyEHA4/xpeAqnuxwhpjvygIse4jCY0NHRzxuWh2UHFph23folodlCWjlZRYCoc1DUGD/iXPAXud+kGgIXM5NW8zwEWgiLSUOLCARBQJYaSjdi0tLeWprg7YgHKpIwg/z/giCM7ueG5Uuf8AoJrQ1Re8/wBR3QEbPfHATAQObh5NxAIgqSPaULphVt8r1Aq/0qj4XMyAqz4Vf6VYUtKpLcIP8/n2gk8J8qYReXcNTWAW+o3ys2N5Jds58cBMaBycqQpClTseTHQc0OELScYpORsSBleoO3Kl5VB7lem3KDRc0yFCoaeyoI+JRk5QcWoOB/Nv1A1esVp6vhP144XucZK9yExyiYVbvCrjITn1NMbMBpChUp4ACDQAnkDgDlNaAOVAUBQFSFSPCIaAg0RyqQqQqVT+1B8oSuVJCLpPtHKa5z/0gxoypFg8dKNqO7UHxw5D8yedhlABqlcqFA2JUKhuYRrB4Q1PPCBBwncuA2Y3vfk3lwblVOdgIaY78rDk4UmoIGdoCgKFhcqSpUjeYys2nnKgtwmuB/MOEGEGEprW9kABbKFoYAZCby4lEzxeTATRAtc8Nyvc7HCawDc5Gw9hjtaRIQMiyAoRBTXFhpKkW4RbPIVcZVZTX+fyhMKJKLZyscC0lC4mAmcNVMjlQ5uOU14Np5MWFwGVLnY4TWAWu2c2oQmOng5tGSL3NBTXVcFQuVO//ScZdu3H5KV8kLpQveeFni0OBMbsxO9ZPDUGRyeb3YQ2eINQQM2HPQeINYQIIkbwFqSOECQVqMnkIO2H5FzuwWUzmTeLz7jCceQm2lgKlzc8hFwdwNi8BUl3yQ6Bwm43b7TTY7HRYC0kdrC0OQ0wFCLR3CgEQmuLTB/IOd2agxO4BTOBdm9x7BNEBFs89BoEkouJ+Ka0Dpsxu9shMdUJsbjoi+E5Ax/1+Oc7sE1sIFO5EICLc3kwm887B0354CDScqBEKlzPjhNeHdJnez4O/Rsbk9GDlDofEwcFD28dePuvdHATWxZJVSqCnYXnk7FNuLuwQaZscwHlDotybHNqEJjpHO/9ukOD0HCQhyEDHB60oCftudSEwdzY88cWQFG3K5U7Ta3FpM8BBoC0XCTK1CCeLXFw5Ca4OxePkbXe11W5yOk54TNQOuG2HfooieE09j1ANoRH2SYCaKjUbXYQx1xZ8lgIuJNITGBohPYIm5zO7cpjp4Obph9rhIhaZ4g9tnY6Ooe22CmGRe8cKeE4SmOnqSVJU/ZJrMdrjhNx1xsEWaZ7oaZJ4whpEKlo+YCD2D4hF58J2sQnahlDX/S9ceENdncFerpnuUfTJ+RRAB4cnA9yqiE3Vchq+eE6J4Wk+DCqCkbBO9rp2OE3HQ1R32IlaXxuCkJk8g7HgyEDP4V57BNECPrUkdkyj+yLNI4KFIw4L1yOMo6rislDUIEBEkpxRuHCfqh45HKhN1A0RCJa8R3UQtJkmStPSblamk3IXpL0/wBp2lIiUwOIyqXIBy9y96lylylyqPhVHwpJ7Kg9kGxkKT4UnwpPhSVyoKjbDtx7T+EcYEpg7nc2zz0RuExheeE7/idDVpw4S8oamnMBBzTgp2k12VqaRbyMbDfVEHcW6YaRhanygbzNJ2a0ogzJTncbn2unzs3v054QM3BPxO5CYe34P5u/XRjm0mw8cb6WhIlyAAEBajGOPJTn6bAnOqMpodkBMdUJTuRCPCGztWMIkk82BpK9Jy9IpulGdtUczuREBNieVWFWFIR2eJCZqAhNf7iFUgR0al3uKPITcbkQZQM/coNr3QICaIEbm4GDI6AGwEprWaXL8p38mMBaWoB7nHkrWoy1NLR8gmO0y6I21jDF6rojd543a0uwhpBBjRYdUBeqg+eCEdEJrA1PyLi6EeU32ujyhw/eVKBvPHN4TNyE3gx9ysQmMBElEQdim+41WDrHhuwJGE0SU7kqDgZWloBvLsr0meFqtDXEBDWfCmx7ZCgprD3vLAVQ1AAb6nayQEXbvHEjsplwNnC4UoWlDF4ydwnBNMj7TG99qAnNp21D/UICONz1YUIAuMLU0ixQmdyviP2tBkNk5O40G1ElfyOGQLR1tTd1owhwY8IajT1Bm8fK0cH7UlVFVO8ouJzsz3EusHRNoaStLSDB+9tTRYAXLS0jTym6DQZPNv8AJBIEfSc6E8y2dy2VSojdzqWytMzO2i6eOmb/AO9gThITTI+24wJKLyVUcJkRxubiUCuFwiWFuOUCFUtMCmVqSHQ1MaQOd3NcXfq9zg0SU59TibIUFQVBXuXuUu8KT4VR8Kv9KsI6rQhqp0ZRPFk8qZ31BLVpZ20RzPQG5Qud8gbhw77etjfS72VLlQo2IQFgTQXGAmabmjKZpkOqJvMxwjq6jTBR/kPVT35PCeNh1nAkpun5TgEQAJTWyEQR3Uu8r3KXeFUfCrCD2qgA1ApuiSmtDRAtF4udkIWvHCBkfac2oQi0jKAJTW0hSjKjpgLRc1symvDsbVt8oEHFryWiQEay6XKQHcr1U58j6VK1IAUm8JwAGEGAhU/tQ7yjUqj4VYQcLRt3uPyF7OCR9t3udFh6jU0EmE0BjVFfJT2SQAFA0wgZGztVrU3Uc/HCd/IaMcp+uXCE4c2gE4WOqdtTCF4TsFNxbCpBVIUHsV7lKDhsbj8he7gz9o8JndxQHc79+roM/unMq2a10yTsTCfqgDi12bdF0SFA1HpwpdGw6blqYQvCdgpmB04VIRBQJVQs/sjaE4SEwyPs6hhqYLB1GMrdCAix+rSYCc8uyn2mwZQewCAVLDlagaOWoIdByBQdtqYUKFCFgRwmY6zcbUhQQqvKBBdsLO+zeHEfZf7nQhueroMhs+bNcwxSgnHn7ITxuFG52OEzHWG5MIvJVIyFUadmGRa/gg/ZZyS5DfvcbtNlbosdrNaYTnl552bn6xxYAtTso2G4R3ZjrDO+pjdnK9MSqYwp87hPEhMMj67zDSmCGiwXG7+M2AXb6muSYaiZ3HUHUAG0p5wpuO7cdbDt6QRynsLSgCUxsI7xGEDvp8SPr6mALW4u73O1CWhowm6jm4KL6tKbe31ibX5G439RvlSDjdmOscjcShnlHY4siVjO2H/XPLwhu7F/foO9ujCcyB0j1zi52RZK1XyY2a6kyhzszG46Z2apCkIxuMWFDhP4IP128vJQxubxtIUhSFIUjb1agAey+Z4U7kEXEoO6x3O5+Q2GwT+Hbg6jU0kjlM+KDgeq7HQFh2eJaUDIn62ngmwkAo6jVWTgKXnsof5VLvKo/aPv5KoCoCpCpCOkgGkwV7JT2tB9u8KE5xdlQo2hQjsJTw0fDlVHwq1WFW1VC86vhN1fKGw2Pz2G0JzA5ek5M0oMnY4TPivTavTjBTQ4ZO3qAGCg9p79B2OgLQnYWn8fquwUzgBFwblVuPxCocclBgwoAtOEMWDKLkPKdhQhPShAc7CyAqAvTavT8FUO8r3hS/wnuMQRvonjYbf32m84TPjcdNp7IaYBkbFxHZeo1BwON3YQQuFo20sEfUc4NCOo4oPMQqaTMIPB2He52LSYROxXKMqkrAQ52F3dFN6eo2RvptgWD5m0bDY4TMbi8gFHSbs4kYCdqgDlNcCELhm9nycPqax92+ny1FgK9MjBQLwvU8hVhAjd2LdQ8wtaGANGe6YSRyj8ha0gHlOIJRCBm13ZHCbjqHTaU3TAtb8j0TgpuOkLH/EoabSE0Rwiqx3QIO/e8f8AkP1NVk8jYAngJogRu3GxYCjphUHsUA9Eu7qtVhVBSE79J5JcSU3Ci0uHQfhHCGLZ6rMm8bOwm46colBOHCAsoCAjasShd/7Lwj1dQCQi0tMtTXB27cXO7bQqQqAgeC0YQ1QwUlsrPIUOTecmE9rRy10pzS0Snu4TeSAtRxrjsENpgwbf63jqaXfovwm4sCN5PGxx0CASqPCbPe0/MX8I9XUyNnMnkZQ1I4cuyGLnZFjjATRATm1BUuBVRCJlA7T5TdHSPNS5OTKpCpCaKTKJqceyg+V7l7kYA4Unwqv0qwqwqwqggQpHSK0x7ei/4odMGFXt26HewtXuBXqT2UmQU0z9R+RuQDlFhb8ShqDBudkWHl0WPFrfiU09rHNmxzcm2AqQqAvTC9ML01QfKpd5VL/Kh696qf4VbvCLz4TXwIXqr1AvUC9QKsKtvlBzVUE8iLgjeYHJR1CUx9V/faQqlJUJ42bIQcOlqakcBVFaeqZg36mRYcKARyvTI+JVZHyCDgcbuyLGebHkG3tsHWgg7NgyLGBtPPWf8UzG0BUhUN8Khq9Nq9ML0gnMhemvSXpkd1QfKpd5QDlDlD171L1L0KlynyQgmTPClyly5XuXuUFQqVSFFh+Q2gFBsdF/yO4xdq5FhwuyCKOmCve39oao7okGI3fiLO4B7rWArPQHFnwP6QRdSQU0yJ2CDmJ0Twh1NTCGLhu/IvG8KN8o6YlNaG397z8xaWqSECDuXBuVU92E/SOc7M0yTJv1cBd9yu1sIgN5Ch7f2jqkDCDzMmxp/wCQLV5ebf7WMMjciU2WmCn9lp9xZHV1O3Sd8h1+/QF/974G0pumByenrfG1uLn421W1BNYSqHDBVThkIajV/cEJ3JM2/wBrGG3U7LD/APvpwoUKFChP+Q6IR+fQlSVKbYM9AWjYfI9EtnqanxKZgWMxc4cFDC1MQhwNyAcoPIMIubPIUN7FUncfK2Shu4gEKrE5H0SJf0h8+jOwEWN6DcWjZuT9VwkFafxsbccJvxR5eBa8RzZJ29scZUqbASFUUDK1E9k8hMdUPoD57HoN+R6TBa3F5whi9mPraeCLBk3swmckm12Lh8tqQvTCpcMFS8dl6kZCGo1AjsnnbTADj9BmTcLGZPRaJNpwhecWnZxgJghv1m8PIQ2C/tfMStMQ24iLIX9r6QV6TUAGZ5UagUuDpIR1Y7IajSg4XHWAwm6oObtPolaWD0Azzcegb9TCH1ncPBsORfqZjzbIRIIiU4gd1WFWFWFWFVzKrVarVarCrC9QKsJzgV6jU9wI4VbU6AZCpYVQOxVLxgqdRVuGQtTUkRvpGW2E8JmNjeVpfG4CU1sX97hsc3u5cB9fVxNjrS4BeoE50kKXlUv8r0z5Xphem1UNVDfCLAFG/wDZR0HiGoAKkJgBEFUN8L0wvTavTC9MKj9rUYYmVyuVphwCAfEwqz4XqJzwQmuACDgeg4wEz425TWwOgM2gSoCghczaNhy89PlmMIEHHTeJaVpmWjd7gByg9rsIvAUvOFQTkoMaFATvkT4v0jLUbP7DoBP+KGNsP/73c6kSgQRIsOiDhN0gNoMRu/CpCoaqAjpxgqh3lQ8KXqsjsvVCLi4yU0kGQgbNMcT0RjcuhVlM1FUqlM36WJ6hZ3ag/senp8Et31TLlpiXIAC1vNSbi7SwdnBRsR7h0An/ABKbgbag4nwhuQdMyMIEESLcKsrOzsix6m17S0wtIcr0wqSMFe8Kt3habxSFULnT2RxY7O4xsLn4TRA6pAOVDmY5Ca8Hou9uoDtJeVQ2E0ASBdpfFN4kXMaQTs7d2R0XDgpnx308R4saykyOj/ax53naU7I2Bs0yC1QFSFSfK9yqVQ272PHfYCdje7l0fQcwFe9v7TXg36wlspzqohAQNu9rsFMENC/tc35kbO3f2vA2K0z7d/i//u1xgSmuDhIvHyO5MC5jazC1dMtcN530Mm6AVShKqUjegIADbvezM9OReWAqHNwhqDvxaRIWl8i3c2v+JTcI+bqTXOx3fi6LNPG+oOJQM2uaWmpqa4OFzO531MXaTXZC1g+ZOFO076HdOBmQmzHOzXVbnCG1IUEYUkZQKnYXOKaIF87GVSe6DR0SAcr04+JVbh8gg8HG7vZqzYMWanxQGzcXnd44KGLBuBJVATRBIs0+JbdQKpFpwmY31EbRrgCIQ/kNPa7RbDdi4BOfK0e6c+cbNfJpuhPBhMeHNlC17oCYSeSp4lVhVIHak+VQEAB9A6bSqXtwV6kfILWAcJCY6Wg797NX474dedyOEzAsG4VfGFp8vMp4G7uHA9Bj54Od3YQxuRIhYNwsZoGOU3Sa3bVxuG0t30+TKhyCK9y9yE99oNVIKDXjJQB87OEoMAWoyRATW+EBxH2naTSm1MNKbqxw4IOBwjZq43f5tMxwhMc26eNxY1sbFgqlFm7xUITDLb3MDk15Bh2zuwt1BDlPQ0GA+42apFO2k2Ts5kJ0xwmMpHQDeatiPCBncoCB9zUbIkdkDMFHTaVQ4YKGo4fIIajTtqkQgZ2haRFMI56LO4vrKrKOqQQvUNg9riPPQLQc7H5W6+RaLP481HcmBKJnKAkwE0UiNyJ4TG0jPTPHOx8Icn7zRS4tQ27osachenHxKJlabqTyg4HCAkqkBObFgca4No+RQ6D7dQcVeEDPRJcHl3ZNIOLNfItaPYTu3Sc/C0tOgb6nxO2gJdNg6Jwm43B4R4CaIH3tRvEjsgQ4SuQi5SDs/SGQtNgAR0mlem4YKJ1AENYHKDgcHd/Dgbf7dFw4Qt0+Jb0WIsjlqa6d9XTqHG87OFOkP3tlAQIt9NvhAAY3OY6I2Z33yhyfwDfY6nsUNqAqXDBTi6CmagpCDhvHMI6TSvTIwV/yD9p7i4rSfBg2OuhRscJuLX8EO6Bwm43J312xyp31+Ib4G2jpgAHv0QER0wIJ2cVgICPwD2yEx0jY76fxhUhUBUnyocpPhVKoJ+lUZatNgMyvSHZUvGCqnjITtURymvacHoSmWkSITDxB7XuxZAOVBZjCaQV/IBLdqStNsuAWq1z3mAtLQjl3SDuyJTU64WTCHkocmfwRFDpQ2GzOCRaPG8BBkPNhQY2ML0x2XuGCq3jsvV8hDUaqgnvLttF8uLTc72um85FxZzI2axreQNnY6YCAUIAog9Gr3Qsp3PCj8ERITDHtOx2w+09EZI3gKkI6TSn6AgkKk+VDlp1B4Uu8Ko+FWqwqwiQRCY8EKRZqPpwhqOmU11Qm8khAg4Rz0wRhSFIUqRYXwmulSFOwg6hARMBNH4R7Z5Ca6dgn9jcODHQ73u0iMIMPhBlPNkKAqQiwNdKoCoVCpPlagIPO2kHQpcpcpPhVFVFVKtGMhNfyZVYVQVQVQUhSFIUhSE/VBwmmEx88W8rlOEFMFjBBJQ9xn8M4UGUDsRIhMMi0hAzvzP6sd56Jwhi4iRCYeINjwCOUNFvSaoCDgVChQosydm56YCPJgIcfhiJQ9pg42CHDiLsG8puOi3F7vaarHdI4Q2LQV7moGbSiyMKExscnpCE49gmiPxDmyE0/1Oz/ADeN2EyQbBkjojJviUzjg75d0jm8OB3HlHCbi8bkydmHn8U5spjp4OdmeLiN38Gqw56Jz0HDuEOdm+ekM3loKhwwgatnY6QG4/FvZ3Ca6pO4NV+NiJEJnHB3OEOg7HRHtMI4Qx0hjoHczgqsIGbwEXAKku5VJTWx90CUR1nN7hNcHCCm+003jjjZ/BqU7jx0W9BwkKZEdI9Eb5dsBG3uUuHZNJORtB7KPJQbP4AAoypEdZzO4U1D9pplA3BESmiBG545QIOOgM9Fwh1XS79RvMnoEoc8n8DIUhSEes5k8hSZnuhDhPSqC1SmyDwufC5XK5XK5XKMrlcqT4UqVKkKQgh7THRFjnxwFUU108FZsJgJogWgbEwgJ5P5RzQUCWFAgrFhMLkqFwNi0HKDA09EYvOEGhOYCITZwVBXKkqVI2N45Np5MXl0IN7n8sRK5YU1wO5wgLx0Bwbzu4dwgZtgIBcqVI2cOVlMbaOTO0qNy6eAg2PzEIsI5amvnO4sMxwmmR0ju584UlMdPB2GbCI5CBmwqN4TmmPaUBAQDbXHhDjiwmFy5AR+bLQVLm5TXA7YwqlOx45CBkbDoBOxu3OwtPt5CG+TZO5CFmTNhd4Qb3P56EdPwgSFV5XBVKAK5UhvKa4OEi8uAVfhe6VQO6cyNmNjko3xTyEDKNsWHdx7BARsSAuXICP8CWgqHNQpKpPYr3KXeFVOQoDTwFIVRVb/AP8AKrf4UnyoHcoBuxt79CI5Ca4O53BnoEwmjuUSApJwg0D/AApaCoc1B4PSgKkKFC5XK5Q6Jb4VXlAF2UBF5MKe5Uk4Qb/iS0FUkYQf5QM7FAHv0j0i+eGoMHdcjCDpuLwoJyg0f46gdl7gqggQjPZBw+iWyeUBG5EqnwvcFWpcVR5QEf5OgKHBH9hAxhVBCDjaSpUoXkA21BVeF7iqPKAA/wAzAVAVChylyqPhVhVheovURdPdcdyqwqwq/wBKT4XuVJ8qgKB/pYCgKAoCj/5df//Z;" vertex="1" parent="1">
          <mxGeometry x="50" y="140" width="108.8" height="115.7" as="geometry" />
        </mxCell>
        <mxCell id="rsI_LoDy6iaIcR9gqDgO-14" value="" style="endArrow=classic;html=1;rounded=0;entryX=0.015;entryY=0.572;entryDx=0;entryDy=0;entryPerimeter=0;flowAnimation=1;" edge="1" parent="1" target="rsI_LoDy6iaIcR9gqDgO-8">
          <mxGeometry width="50" height="50" relative="1" as="geometry">
            <mxPoint x="160" y="250" as="sourcePoint" />
            <mxPoint x="380" y="200" as="targetPoint" />
          </mxGeometry>
        </mxCell>
        <mxCell id="rsI_LoDy6iaIcR9gqDgO-15" value="" style="endArrow=classic;html=1;rounded=0;exitX=0.993;exitY=0.058;exitDx=0;exitDy=0;exitPerimeter=0;entryX=0;entryY=0.575;entryDx=0;entryDy=0;entryPerimeter=0;flowAnimation=1;" edge="1" parent="1" source="rsI_LoDy6iaIcR9gqDgO-10" target="rsI_LoDy6iaIcR9gqDgO-8">
          <mxGeometry width="50" height="50" relative="1" as="geometry">
            <mxPoint x="230" y="200" as="sourcePoint" />
            <mxPoint x="400" y="193" as="targetPoint" />
          </mxGeometry>
        </mxCell>
        <mxCell id="rsI_LoDy6iaIcR9gqDgO-16" value="" style="endArrow=classic;html=1;rounded=0;entryX=0.015;entryY=0.572;entryDx=0;entryDy=0;entryPerimeter=0;flowAnimation=1;" edge="1" parent="1" target="rsI_LoDy6iaIcR9gqDgO-8">
          <mxGeometry width="50" height="50" relative="1" as="geometry">
            <mxPoint x="160" y="200" as="sourcePoint" />
            <mxPoint x="410" y="200" as="targetPoint" />
          </mxGeometry>
        </mxCell>
        <mxCell id="rsI_LoDy6iaIcR9gqDgO-17" value="" style="endArrow=classic;html=1;rounded=0;" edge="1" parent="1">
          <mxGeometry width="50" height="50" relative="1" as="geometry">
            <mxPoint x="440" y="215.7" as="sourcePoint" />
            <mxPoint x="360" y="260" as="targetPoint" />
            <Array as="points">
              <mxPoint x="430" y="225.7" />
            </Array>
          </mxGeometry>
        </mxCell>
        <mxCell id="rsI_LoDy6iaIcR9gqDgO-18" value="public endpoint is opened&lt;div&gt;for all network from internet&lt;/div&gt;" style="text;strokeColor=none;align=center;fillColor=none;html=1;verticalAlign=middle;whiteSpace=wrap;rounded=0;" vertex="1" parent="1">
          <mxGeometry x="210" y="255.7" width="170" height="44.3" as="geometry" />
        </mxCell>
        <mxCell id="rsI_LoDy6iaIcR9gqDgO-23" value="" style="swimlane;startSize=0;" vertex="1" parent="1">
          <mxGeometry x="410" y="130" width="230" height="130" as="geometry" />
        </mxCell>
        <mxCell id="rsI_LoDy6iaIcR9gqDgO-24" value="" style="shape=image;imageAspect=0;aspect=fixed;verticalLabelPosition=bottom;verticalAlign=top;image=data:image/png,iVBORw0KGgoAAAANSUhEUgAAAgAAAAIACAMAAADDpiTIAAAAGXRFWHRTb2Z0d2FyZQBBZG9iZSBJbWFnZVJlYWR5ccllPAAAAwBQTFRFR3BM5pca8KEk140X/tUv6Kki6akj3rcb98wg+9Ip/tQt4bcd7bMl8aIl2J4b/tQt0osb0osb/dQt76Aj0IkY66Uh76Aj+Kks37gc/tUu/tQt37cc3pse3JIf7Loj140Z37gc8KAj8aIl/tUu04sa3ZIb+c8m9csf+tAn+M4k9coe88gb980i9swh9Mkc+9Ep+c8l9Mod+9Iq88ga980j9ssg/dQt/NMs9swg+tAo3rcb/NIr9Mkd+tEo+M4l/dQu+dAn+M4j+aot/NMr+vr6+dAmOqXZ88kc98wh3rcc76AjVL3x7Z4h9aYp6pse7J0g9qcq6Zod6Jkc/tUv98wi96gr+Kks9KUo/dMs86Qn/tUu8qMm8aIl+M8l8sca5ZYa8sgaUrvv5pcb55gcPKfb+M0jU7zwPajcTLbqQq3hUbru7p8iO6ba8KEk65wg8KEluJoi7p8j65wfOZnHT7ntP6reTrjsTbfrQazgSLLmPqndQ67iRrDkRa/jR7HlSbPn9ssf9Moe/tQu88kb8aIm8qMnTKza86Qo+tEp4ZIV9KUp5JUZSrTo55gb/NIqT7js45QY5pca/dMtQKvf37gc4pMXS7XpSqrYO5zLOZrJz4gX6urquJsjR6fW1YwaPJ/P5r4e6+vr7cwv2ZAeuZwkOqLU2dnZvp8ixqUh2LMgTbDh7sUdysRP68Ed99xv+fDI+NhY99NB4so7QKDQ6cco988vz6wg4rsem7h6c7ax+vftQKXX3ZUjs79moL6C2MlH3sUzs7lbRqvd7Ozs9sMj+euvXLzjcb3Jh7aU+cgo+eKIkMKj87ki8K8i0sM/xr1GVq3MabG40MpXocWRmbJw+vTfgK2Iw8VggMG39q8oSqzSbq+oa6aausdwqb1x+Oab+b8pk7mKUaCzXqSqe7KdR6DGrsV766Ydq8fVRZ29ZLnSX6286eff97Yn6d3C5Zoj4eHh6KAb8rpiVarGi6997cqN3Z8i6q8g9Mkl/M4r7dek5JYX9wAPR3BMR3BM19IGjlVhjAAAAQB0Uk5TAICAgoAQMIBAQGNAIMlgps2jxurun2Dstu/f23DvUEDvr4+PUNv//////////////////////////////////////////////////////////////////////////////////////////////////////////////////////////////////////////////////////////////////////////////////////////////////////////////////////////////////////////////////////////////////////////////////////////////wAAgrZsOYsAABxOSURBVHja7JtdSFxnGsfbrGZXVxFcmqCUQhpIm6XBIlOzIUS3dgpup0m7mcRGs6W4ixJaukuWEhG61S1bsx920y3szNWBcgi0tVlHB2a7CjqL6IzOOIs6yIwUjUJQMOTCq43szZ6ZMZlxPnzPt3Pe5/+DJr04c87x/f/O8zzvcfLEEwAAAAAAAAAAAAAAAAAAAAAAAAAAAAAAAAAAAAAAAAAAAAAAAAAAAAAAAAAAAAAAAAAAAAAAAAAAAGA5KsrKyktMprysrBQrf+AcLi+prnUeGNXHyysQwkFRVlJd4zx4qo8fRhamU1peVQzhP3KgHN3A5PSdRUZNCRQwi2eKLv1dBRCNGQ9/Sa2zWKktQz5Gz/xVzqKmCn3A0Km/ut3pbC9mnLXYEBgaf3ux42wvR1LGFP+if/ofUYWwDHjVW9VujfSlGtAEA3SnpMYy+UsGOGGAzs2/9mNL0YQaoOvGv+pjy9F0HLnp9tqvpsmKYC+g1+Pf5LSkAE14H6DL3q+2yaI4a/FOUDvlVn38E2AM0KH8Wxr8Zkjju59qa+ffVI0MNbX/Govn346dgKb2b/X8JWowB2oY/zjAiRJAOv+m9lokqTL/Bk5ACaCdfwN+KUQ7//Z2/Ksh5ZQ1cAR6gIr9P08C4GWQ4ve/1Q1cgUQVUsVX/g06/0Kg4plDT1VWHm3mlrWGdr4E0PGfi5UeOcZx8imWOXv+G3T7jnjpkcpmAuzwJkCDPi8DK549SiF+qQHwhx5P/1PNNFjmMP8G7a+CDh0lkn/z5zwKoHUbcLiSSvxcNgDNAhxqbW5upcGDz7lEkwClla1U4m9t3rnCJVoEOHy0lQzNa1cgAOH8Wx9cgQA5+V+mA68NQIMApPK/PHuaV9QKUEEp/9YHpyFA9vxP6flv3YEAWRx7kxL8NgC1Ajz95mVC+XPcAFQKUHGU0vO/vAMBsqhEAyAtwJHzhOC7AagT4EeUBOC7AagS4BCl/M/z3QBUCUCqAKydhgDZE8CfCbF8GgLkbAHeIsQsBMj5JRCh+G+uvcI9igV4lpAAy69AgNwR8CYZzs9CgNwO0HazjQoEGoByAZ4mE38bhQagXIBjZPI/vwMB8o0An1CBRANQLEDp1U+u0mD5LA0UCvBDIvFffWsHAuR9D0xFgLWzECDvbwL/QAMqDUC5AL8gQdsOBCAtAJkGAAHyQqcBKBfgNwQg1AAgQD5mz0KAggK8zz8PzkIAygK07fyVEkoFeI17ZutJAQGyeFAPASgL0FYPAUgLMAsB9hfgOt9QawAQYC+RegjAEOA9nrk+CwFICzBXDwFYArzOMQQbAATI4LVGCEBZgOsUGwAEIN4AlAvwBq+8fwYCUBbgvdl6CEBZgKk6okCAJGt1EECeAL/mkTcidRCAsgCE81cqwJO/5RDK+UMA4vkrFuACd8zVQQDKAhDPn7oAdPf/ECDB5mwdBFAmwM854mLkTB0EICzAXB0EICzA6yj/pAVA+VcnwEU+uDCF6CkLEDmB5AkLsDn1R/AIegJcmDsH0igV4FdWJ3ICoRMWIDKLyAkLgPi1C/CpdUH8egjwS4uyHWlE2HQF2MTkT1iAbdR+HQX4m8XYjkydOXfuDCiEUgHesRKbc1NImKgAn25GED5NATY3I5GpWSR7EAJsb0bmpiSwrAQF2I7MNWLc4l+Av+TlYkSquQifqgCbU8+fex5YE+0CSPEDOgJ8lsU24qcswDtzWEHKAmw/xAJSFuC/WD56Avw9Dco/aQH+h+mPtADIn7YAyJ+qAH9KgvyJC4D5j7YAEawbaQG2fwq4QYUAnzVi2UgLMIdVoyvA99AAyFeAh68CjlBcATaxZpQFeBIFgHgF2DwBuEJpBXiIJSMtwPexYrQFqMKKkRagFAtGW4ByLBhtAdABiAtQiwUjLUAF1ou2ABgBiAtQgvWiLUA11gsCAMICnHgRC0ZagBcBd0AACAABIAAEgAAQAAJAgINFXEywEo0m//ZCADrBb0TjcUcuwXg4GvNDAJ6zj0XjAQeDYHjDDwG4DD/okEsgbpAEigR4G+iFdyPuUMpWOKb/jfwAApjOq96NoEMdAd0dUCRAI9CBlbhDC4GwX8+7gQDm4o0GHJoJrkAAa7IYduhDICpCAOvFH3foRyDshQB0408SFs0W4CRQydte3eNPNQLNdwYBzECMOowhsAIBLMBKwGEYcT8EKHL8cYehaOsDEMBgXo46jGZrEQIULd6gwwSiEKBou3+X4TgcXY6gHwIU4/Af7jIL1dsBCGDg9BfsMpEwBCgyYoEuUwmKEKCY2OgyGUfADwGKh3CX+QRiEKBYxr94x4GwAgGKI/9gR4dFDIAAXOXf0RGFAKTz7+gIGyjAy0AGB5u/ZICiu4UAvOUvzQEQ4EDzf1cd3dcGE/QnSfzfQPctladagQAHR1hFYLdcj4LPZnCw22ADIMBB53+rUPiPJXAprgQBvzECdAIGK4rT75fDoEupAaLcO4YAerKoLKZr8uJPOaCsDARFIwSwgX3xBpRk5MqKeH50ZmJi/E6SiYmJ0YVsBRSNA2GZ9wwBdCT4gWzeHdiT/b3VO6Kts/MFW2fy7Yz0ZLZ02mz+2Pro3iog/wIfrEAAs4nKT+dR8XdL/y2s+m0nT+Y9Y4ut0xZbvy8d5k4eqkgBPwQwl5jsaKTRz+1OGbCwKrLP7F+ff1wFBmRfJShCADMRA3KTedz852f8cs8+nu4FsotAFAKYSEtc9uPvTjE/Ico/fWeLfyb1sf5+l8wr3ViEAGY2AHlP5rVUQ1cW/+4mQ1KgP+HAoEwDtkQIYF4DuCWLgVSE7nVRxUU674zuVgF5F7sRhQBmEZcXyW75H/WqbTTj8ykDXPIMWNRXgBdAfk4tKsl/flXDpcR7CgzoDjLPBwF0YeuGHFL5L3j3OdFwCl/hIzpjqSLgknXJDQhgBhsK8l/Pf4qRoZBnyZ5myXM3NJL3yJ94F5InGpBxye6ACAGMRwzIzn8+lufzvqHpMXs+xqbzSzCT6gJyDIhCAMM5OdEtg2T+9/25Hx+atu+HJ5TbDzpXUzVAznW9EMBovAG5+S/kFOSR0JidyfRwzjXHkwZ032JfOAwBjN4ChNkpSPv/fPmPTNvl4clWoMWfGAX7r2kuARBA+wQgIwRXvvx9d+3y8WQPA0kDBru1lgAIYMoE0J8n/6ExuyLu7p0FXvK7ZRrghQDGbgHkDQBZ+Y947EpZGs4zB7g0lgAIoPkdwDUmiQFg3qvp8d8tAnv3AuPJMYCNCAGMfAnIDqDfLczv3f9N29Xh8WW9DxDcg+zrT0AA44ix1z/RAMYzPmLzeexqGdszC7Yk3gkOMG9gCwIYR1xGAxCEGY3tP8OAoT0DyLwgTLIVjOkkwCWQjZe5+N2TgrAgpj/RODJm18RQxuVfigmCu5epYLzwDwABtMEeAXsEt+DP+ITW/LMMWBcE9hzo8kIAg9hysegXhH9lfMCnOX+7fTjjfOJ9Qehh3sSGPgK0gCz8zKXvEYT7YvoDPo/2/KVJMOMWpCbQz7yLYMGfAAJo4eS6nAJwJ+MTeuQvGeDLOOU9GSVgwAsBDIHZAXoF4buM40N2ffBknNMrbQTYPQACGIGXufCDgpB4+L74Inn88L6PtSeFLANCGXcxIwi9LA+DughwCuxlgymAW5hJHPjP5OGFBkDP3dCwL+O0I8Oh6SXWIJg+XJwXBpk3Ihb4ESCABn4cH2CQKADSgd/+LHG4Ld8L4KW7iSj79pzXdsp26dRIoe+J7X4ubUyftBVk3UjvCgQwgN5e1/7rPpkqAF/+PvFnbgNYCo3se/79HAilD5OmgI9YBoQhgO7Y7rBWfUDaAiQKQKoDZFd1zxDjAn19fb6hgr0g7U7fjDDJuJGeLQigPxOs/D8UFpIF4NvEn1k7gOkRKWA5VxkuMBZOpw/5D7sHDHghgO4VYJS16JPCeKIA3P4mZwL0jJzqk32hAgpkzIELQo/KIQACaEBGB0gM3199lV0AloYVxC9xKe93hzNKwCqzBwysQwC98fcy6BHuSYd9c/vrrAkg5FN6qed80/tNAc+Jgpt1L0EIoDfjLAF+l+wAX99OjABDmY+/GvJ8iSyjBNwTmDZCAL1HgAnWmk8mO8CXyRHgcRuf9qm8Xu73SMZ8GT3gI9bd+CGAzoyyltz9nXTUP25/mUjv8fc61V8vtw2k95H/Fj5k3c04BNCZ/7NvPqFtXHkc9yXtod29LAuBLKW3gBwMxmvQwacQkvpg8GGTYAJDDgZhyEEgDI4dd21KWyi9eQ4jbDPyIkUSkvxnZyzJFTaSm7DCpFILWpdIwsH/oK5dU2Kblpz2vZFm9N/vPemNXNjfF5JK0zfzfsz3836/33t2fia98vmoVgFQDzi1VWNZM3rTuAYcbxKC+XoDAOB+DkgCAJ8C+dzhUgVYbHHKxSoCSjUgSQLgn2utA2AFlSn4lKDJeTRq2u32W63FCrDY6py3qggwHji1Pk+I5uu1uk8EAEwEIIdGRdzuiNW6yMd/q/4kowYY11MkAJ4+BQD4aoP0wjd30Si/2+2yWl/y8t9qregDvildBwD+eADsoFE+DQB8CvSG07wVe4EV43KOCEAQAOCpvyeJAKA3fsuLAVjFp/+c5p2q+L3SUhOQBADarDUiAHE0yo0BWMaHNtwmLv+XBVvG1egkANBW3Vr7lKBNNMqlAbB1584yv5m7yxrBpdI2YIIUz0bLAPSCykQEIIsGaQD0bt15w3HiqalSG7BkXA2SAaj3MACgaZHe96drvb2f+DUAXn6zynXqst8t0C9ZAIA/IgC9BQCWFjnPvVgDQG9qEgBoryboAdjiPfc/lmoAIAL5DADgq01aAPy9q9wnN37DeIU+I0UBAL4APCOoBIAJ0lPAsnGFFA4AcFUAhM2YfZkZgGcAwBUB4DNjdv0HzDoAn6htAGAKVKZ5IgBokH8OyZTpixuBVf17kAxAvccwAXATVCYyAGiQBkDIjOmLZwHGdyIAE9F6jwEAmlaO9Ma/0AEQTZn/JSMAmwAAV1lykyShUS4MQNiUALQ28L/G1w1SNJs7AADfDDBBeuX/LgLgNScAXAOWGAAIAgA81Z3cJL1y/MbnTGsCenENeGN8XSNFEwMA+CpKBADnXC8GwG9KAHgfsGV8+4EIQBwA4AtAjPDGnyXRKB8GwGfG/No/Nlk2vhI7EuUmAMBVQRIAkz/o24C5gFlNQCkaUjAjhwAAV3UFlQmS0LAI9t9tyj7AslTWA+4QQhnZzAEAnKVskgBAbde9OfP2AW/KWoADUiyxbQCAr6aPiQBsoFFaE+A25Sxo686K/tH6BSmW+SgAwPsgIEZ66bgJCM+Z1gYul46BUhOThFiUIADAuQRHyU0A2nmFNADmXCakoOXSKcAGKZJNJQ4AcNa6MkZ67ev6SYApKWBlpXQKQGwB6m8CAIAWFFdsI5cL1wBr2LQUUDoSiBMCGZlUcgAAdx3GSO99pFQDvGZGskGKY0yJcgDAAipX14FCBGADjfPZseb8JobyPSETjYwrifp3AgAtKKqMkgD4Hg3r1wCwewOmBBFBf35EFl+ueUUFAHhrKq2Qa8A6GugtEBA2xX+XxdK3RgxD2bcAAPx1SK4Ba2iYvwCAvZ9/BAKmitgCogpwDgCY0gSMjpEURC4VU4A7xD0EH0oAliQxiFijFgAAaEkJJUZ89+UpwCdwDsDvwwmAGMOYolimAAD+iivKGE0K0LsA3m1AxE6VAEZiyoEFMoAZ2qdIAXgj4CoCYOe6Fwx5MVDBsRYqAADQWhOwQ5MCdiyW6bCdfyMY8HpxSTkmBjCqNNoEAgCt1gBZHp0hKauW+kCOBAg+Oz4D2JkZIwUQkxtWAACg1Rogx4gAjBxo5bqoOU4EBHxaRxHPEuefUeQEAGDWPkBWyClg5kc00igCfHIAWv9aAVgjzx6TZRUAMEnqIUUKmMnGNcc45oAQKikhrQDQJIBtCwBglrZpuoCZNa1nM3JAy7vBiLeQSFIU/ttkOc0JgGlQjVIyRQoYHd1FQ0MGAG5foKVJ8cFSGP1XPaNKAHuXPIoJgG5QrfZlmcKFmXU0tN8gwO51NT9jABeTMP6Uo0sAiUseBgC0qOmEJMVGKZSqJMDub3ZGnP7tPvwpSTOvIh2qAICZ2pPkcQojstUENJcEhHDhhwro4w6N/zFJynQDACbqJm0KqCHAHg4wz+bHy39O8399lC4BSCoAYKrUQ0myNUeA1y8wTdVf2Eho9Z/Of5QAtrsBAFPVFZUkZZSagJC3HAG3P8Bqf6F7oPN/XJakOABgdgrYoywCBQICPnuFwlS9QMBftN8bwV93qeYb9ZASAADAaSMg28ZplMW7we5wJQGoEhDSgNBv3OLDQ9Uk1WzjqAAcqQBAOzYCkofOkvEoHu/y2qsZCEcatQMhv69q86ge081lkwlbAACA00YgLUnSMCUBB3hJPq5OAtriDvtdlanA1e/3lbPiC+GrwSzlVKgA7Kk8AegDNVCeugigMhDEd4R89vry+nTV/J9+ba5dynnGnyAsE6TIAQAemo5L9EXAZttV8U0Rr51FqFHAd6WOaf3HBSDfBwC0RxlEQMxGq7PCwuz3sdqv7lLPgf2X4gBAu7SP2wBab8bHcyntLleYyn5fIfn3rWep7ccNgJTpAwDaJdwHSjYGJQurM9BPYsAbDhXtP7NRI2bDDcB+HwDQvjYAFwEPvf/DtuFksE9noGE74PMX3cf2M2gY85gCANpdBDxMJg3n1tXizYGIv6rt9+Jdof7s+G7WxiSZrgAwAtAFaqzO1BF66U/YfBrOJhPlD3HpCqAv3cWL6voxgoXZ/zxV2AAAPyVw2r3LSMDweDa5Hm/80FT02GZjc99mww3gURwAaLe2nU6n9GSYUU/QHWcH0WCNYalENJcdbkIeFIcz3QUAtFvqflMEFDkYHj7OHUSLyuXOUNbXrjLrLvY/0wUAtL8NiB+1QAAvYf8d+S4A4CqUdl45Adr631dNASAADhN0L3HVBGjrXzqljvgDAIAvAZmrJUBb/4c/Pb8AAK5yK+CU7j65Enm09f/T8+eziwDA/yEB2v7Pif3/dmHRBABC4C41Ac4rIEDG69+B/P/124WFkxWaWAMAgGkEeNps/11ZX//Y/4XZk1XuALjAWxYC5Pb6L5Wv/4XZ2YXT38mRhpgAiNwD0WnbgSXdbZ88TjzjYcl/pFNyoC4mAMROsJaJAKenXf7Ljlr/Z0/eEeOMsAEQAGdpldAcccjt8V/SJjur9B9pkRClILIB4AJjadWTOGpbGSikf8fZ8yr/Ty8uXiO9evWiUZQhRgAin4Fo1ZPaL5QBuT3L3/GfSv9P396+/+B+UQ9+eVE3SBcjAGKgE0SpHkHNF5yRTO0E5MLyx8d/5f3f28EH9wdLGhh4/aJOkCIbAB+LLjCWnoCenozD7E6gmP219g+f/xX8P7kYHBis0sDALzUhhkTxQxYArosi+MoiIbXnMHU7IDtK6b/M/7eD9TTwWqiKzyWKLP53/FUUQ+AqEwHqtsM8BOTy5f/rgu7/6e3a9V/Q/coyIIjiDSYA3hfFCJjKRoC+G+DfCuj2O35+rpV/3f93t3G+r69BoTIB9F9nAuADEdpA9k5APXeYgIBhv7b8Ufo3/B/4qqH/AxVVACUA8X0mAK6JkAKa2A10pvcdnAuBYb/jXC2kf93/twOX6uHrig6AbRPQ0XEDUkBzMuoAj2MBj6Q/zJGPd3b+Cy//kv+DlxNQ2gvgBMDWA2pNgBgRwE/mTkBQMwYCraUBT2nxO/bS6Nl9wrLm/2yd9f9VHT18VQwqgsy8zgjAexgaOAtoSsZ+oIVuoNx9x15Cx2tR9/9Cc5ikAgEB7OXfGAHQagAUgSbTQPz8qJwB2dOC+9h+PRULj98Vj/8e0umFXgDEax1N1AAoAs1ngcxemYcOJzUEHlkqv9GRTyPbS8/97F2hAFACMCQUOkDmCtDR8aEIRaCVJNApJPKOSiEIPJd7X7HykY6241XP7f79FG8AH9JqUAhhH/s/YgYAHwaKcB7YCgOP4+d7jmo5JUlGIJRQwJ9lWZJqRjryCbWzJgXfWz1BCeBLWg19p9l4g91/7SwICGgxDXSmt48cTWk/E++sW4ADKyenQ4+GaPXlb7iU/7kJAPAPhDQCekAtKXW+z+p+PhNv/Dxh8WKIQZiAZhJAcScIBLQsQRDiie09evPTpMd9xwLA0Oe/iU0lAL0LAAK4MNCjpjN5AgX72wTzi0979DmTHjWXADo6rn0MBHCEQPs7ncic5/NVfcFePp/JpFPUNFW4S9aXf3mvSQI+KgIgugQwkLfiaU1qFSEUevWIUUN/utYkAdd1AiIBcOx/7d29TiJRGMZxXCJbqAQjGhNB1MhN7B1IWIzTrpGNlkaI3sLaEEKCiTSnODE5lSHWNnMJey90brvjV9Tlc17cMHnn/+tt3vPwDs8B4n/ZCJI/vLsMG4DvS9KHwMZrAngMRMfv8+BQL0P5sSpMQGrrmiUQNXe9/hM+HOfLtG8DiEBkdHuHAmvCBKT33rm/+4mZO/LrkgSkPiMB1/c3R5zArD28rYD65FY+JQGPa+Cme4QZ+vXHL9UFVqRlML21t9cXgptulxzMSNfvnYVXr4uvA1L9CcAsPfjnZxLSMpiYX2foUXLr/5uA0mR2pAlI5FgC0VoBvZLImjgBi+vfEBl7vjQBC+IEJDY3GHxk3AoTcCYug091gAhExoPv18Kd/fmTkrgMPn9RkAdBlBJwLlBamioBifk0GYgG3/fLA4/4dIztxLQWvq7zMJj9G8FgB5RPJVYTnyG1sPAVM5X3fcHxl8vltQQ0SLlgB0jsbzI8FdLO9UQJmKoMIjrmxAlYZHgqLDu/JkrAlGUQUZFxrrYvUFlidirMZ4IdIAhArbbK8FRYzDt/XyTH8HSUQXECuA7QUwZrAheUQSVyJCD2ZdAdDD7i0SqUQT0J8C4kKINqyqCrSBxQBpUkIC9MQGWO4akpg7IEUAZ12HXSBFAF1FwHVEc+7ofwKIN6qkD1QMArUgbVJOBYEACuAzSVQU+0AyiDShJQHJ8Ab4CT4x2Gp6QMWudJnFAGdShYJ0uAV2B4OsqgtU1RAPKUQR2SEybg5CPvIk8VUFIGra2ehOcdUAaVyFh7HD4AravmNrNTch1g3fAEtIa74jpASRnMWtea1PGbapMyqCQBNtgBEnl+MaamDHYE599q8hUxPWXQFySgWuU+SE8ZbF+FUH3WpgkoKoPNqgCXAXrKoCQBFAE1FrPWCjYAdwGqrgPCB6DI4DSVwbcENCfF3PTIGeuaIbUZm6YyaEwnZAAaTE1XAmzIBDiGpqsMGtv+uOLHsAxNVwKyQQJC6BAAdWUwVAJchpEps2vCJMAmmZi66wBj3IBdP1DD7DIwjWWw0ZlIw2YZV5wT4AxPAKVlcKIENEyWT4N1JqBo7OAENN4zLADNZbAxjjF0QLUKZmwCjMny+0DdZXDU8TtjDN8I1Sw5MgE2eP2nGZL2MmhHnT/7X7vM0AQE6z/Dj4JicR1gB7/8TYYLgJgkoC8C9vH8lxlOPBIQvA/4kIGn0zeGfx8UG7mseWZfzv5x/fP2L05LIPkagRe0v9hFIL38dvrLfP4fS6lCMpnMFah+AAAAAAAAAAAAAAAAAAAAAAAAAAAAAAAAAAAAAAAAAAAAQLT8BcNyereESDpWAAAAAElFTkSuQmCC;" vertex="1" parent="rsI_LoDy6iaIcR9gqDgO-23">
          <mxGeometry x="128" y="22.849999999999994" width="90" height="90" as="geometry" />
        </mxCell>
      </root>
    </mxGraphModel>
  </diagram>
</mxfile>
